<svg width="229" height="154" viewBox="0 0 229 154" fill="none" xmlns="http://www.w3.org/2000/svg">
<path d="M32.647 82.7917C33.5609 83.0976 126.728 153.411 126.728 153.411L133.708 147.375L45.6982 69.8203L32.647 82.7917Z" fill="#D64D8B"/>
<path d="M45.6982 69.8203L32.647 82.7963C22.1125 85.0335 13.9842 79.1163 11.3437 66.6379C11.1054 65.5339 10.9245 64.4183 10.8018 63.2957C9.51135 51.9452 14.6455 45.6215 14.6455 45.6215C15.1736 51.7945 16.6293 55.4745 31.6873 52.5844C32.2103 52.4836 32.7396 52.418 33.2716 52.388C44.6649 51.7534 45.6982 69.8203 45.6982 69.8203Z" fill="#373B54"/>
<path d="M33.2716 52.388C32.0592 59.6522 26.3878 66.437 13.6903 63.9624C12.6586 63.7615 11.7034 63.5393 10.8247 63.2957C9.53432 51.9452 14.6684 45.6215 14.6684 45.6215C15.1965 51.7945 16.6523 55.4745 31.7102 52.5844C32.2257 52.4846 32.7473 52.419 33.2716 52.388Z" fill="#F3C700"/>
<path d="M137.763 151.639H88.6861L94.6009 119.186H143.678L137.763 151.639Z" fill="#373B54"/>
<path d="M142.81 150.105H80.3236C79.2407 150.105 78.3628 150.977 78.3628 152.053C78.3628 153.128 79.2407 154 80.3236 154H142.81C143.893 154 144.771 153.128 144.771 152.053C144.771 150.977 143.893 150.105 142.81 150.105Z" fill="#494F70"/>
<path d="M44.9864 134.285L60.9536 46.6762C61.1667 45.5085 61.7856 44.4524 62.7021 43.6921C63.6187 42.9319 64.7747 42.5159 65.9683 42.5168H199.382C200.128 42.5169 200.864 42.6799 201.54 42.9941C202.215 43.3084 202.813 43.7663 203.291 44.3355C203.769 44.9047 204.115 45.5713 204.305 46.2882C204.496 47.0051 204.525 47.7548 204.392 48.4843L188.425 136.093C188.212 137.261 187.593 138.317 186.676 139.077C185.76 139.837 184.604 140.253 183.41 140.252H49.9965C49.2508 140.252 48.5142 140.089 47.8388 139.775C47.1633 139.461 46.5656 139.003 46.0877 138.434C45.6098 137.864 45.2635 137.198 45.0732 136.481C44.8829 135.764 44.8533 135.014 44.9864 134.285Z" fill="#494F70"/>
<path d="M184.554 123.277H53.6428C53.3195 123.277 53.0001 123.206 52.7074 123.07C52.4147 122.933 52.1557 122.734 51.9489 122.487C51.7421 122.24 51.5924 121.951 51.5105 121.64C51.4287 121.329 51.4166 121.004 51.4752 120.688L64.8295 48.3975C64.922 47.8933 65.1897 47.4374 65.5859 47.1095C65.9821 46.7815 66.4815 46.6023 66.997 46.6032H197.876C198.198 46.6032 198.517 46.6738 198.809 46.81C199.102 46.9462 199.36 47.1446 199.566 47.3912C199.773 47.6379 199.922 47.9266 200.004 48.237C200.085 48.5474 200.097 48.8719 200.039 49.1874L186.721 121.45C186.634 121.96 186.368 122.422 185.972 122.756C185.576 123.09 185.073 123.274 184.554 123.277Z" fill="white"/>
<path d="M186.473 65.6882H74.3492V57.9766H188.241L186.473 65.6882Z" fill="#55C0BF"/>
<path d="M85.4853 72.7241H70.6708L73.4261 57.9948H88.2407L85.4853 72.7241Z" fill="#F3C700"/>
<path d="M94.6606 117.688L123.054 74.6052L142.48 117.734L94.6606 117.688Z" fill="#F2A14D"/>
<path d="M102.224 108.305C110.931 108.305 117.989 101.288 117.989 92.631C117.989 83.9743 110.931 76.9566 102.224 76.9566C93.5172 76.9566 86.4589 83.9743 86.4589 92.631C86.4589 101.288 93.5172 108.305 102.224 108.305Z" fill="#D64D8B"/>
<path d="M69.339 93.0008H102.224L126.333 57.6204" stroke="#373B54" stroke-width="3" stroke-miterlimit="10"/>
<path d="M72.1495 90.928H67.9981V95.0555H72.1495V90.928Z" fill="#373B54"/>
<path d="M104.832 90.928H100.681V95.0555H104.832V90.928Z" fill="#373B54"/>
<path d="M128.542 55.5019H124.391V59.6294H128.542V55.5019Z" fill="#373B54"/>
<path d="M145.322 93.7999C147.945 93.7999 150.071 91.6862 150.071 89.0788C150.071 86.4715 147.945 84.3578 145.322 84.3578C142.7 84.3578 140.574 86.4715 140.574 89.0788C140.574 91.6862 142.7 93.7999 145.322 93.7999Z" fill="#55C0BF"/>
<path d="M193.963 75.6782C198.528 75.6782 202.229 71.9986 202.229 67.4597C202.229 62.9208 198.528 59.2413 193.963 59.2413C189.398 59.2413 185.697 62.9208 185.697 67.4597C185.697 71.9986 189.398 75.6782 193.963 75.6782Z" fill="#373B54"/>
<path d="M212.667 39.3801C212.675 44.0561 210.895 48.5603 207.689 51.9817C206.108 53.6682 204.849 55.6269 203.974 57.762C203.25 59.5325 202.816 61.4069 202.688 63.314C202.661 63.6976 202.647 64.0856 202.647 64.4692H185.376C185.376 64.0856 185.376 63.6976 185.334 63.314C185.102 59.1556 183.395 55.2135 180.517 52.1872C177.442 48.9931 175.62 44.8089 175.383 40.3937C175.351 39.7853 175.351 39.1757 175.383 38.5674C175.616 33.8087 177.674 29.3196 181.133 26.0223C184.592 22.7251 189.19 20.87 193.982 20.8384C196.089 20.8296 198.183 21.1801 200.172 21.8748C203.823 23.145 206.986 25.5119 209.225 28.648C211.463 31.7841 212.666 35.5344 212.667 39.3801Z" fill="#F2A14D"/>
<path d="M202.592 64.5193H185.523V69.5143H202.592V64.5193Z" fill="#373B54"/>
<path d="M202.67 63.3185H185.334C184.515 63.3185 183.851 63.9788 183.851 64.7933V64.7979C183.851 65.6123 184.515 66.2726 185.334 66.2726H202.67C203.489 66.2726 204.153 65.6123 204.153 64.7979V64.7933C204.153 63.9788 203.489 63.3185 202.67 63.3185Z" fill="#494F70"/>
<path d="M202.67 68.0305H185.334C184.515 68.0305 183.851 68.6907 183.851 69.5052V69.5098C183.851 70.3243 184.515 70.9845 185.334 70.9845H202.67C203.489 70.9845 204.153 70.3243 204.153 69.5098V69.5052C204.153 68.6907 203.489 68.0305 202.67 68.0305Z" fill="#494F70"/>
<path d="M205.94 34.0746C205.939 37.7171 204.677 41.2484 202.365 44.074C200.053 46.8996 196.833 48.8472 193.246 49.589C189.659 50.3307 185.925 49.8214 182.671 48.1466C179.418 46.4719 176.844 43.734 175.383 40.3937C175.351 39.7853 175.351 39.1757 175.383 38.5674C175.616 33.8087 177.674 29.3196 181.133 26.0223C184.592 22.7251 189.19 20.87 193.982 20.8384C196.089 20.8296 198.183 21.1801 200.172 21.8748C201.978 23.3598 203.432 25.2236 204.429 27.3327C205.427 29.4419 205.942 31.7441 205.94 34.0746Z" fill="#F3C700"/>
<path d="M193.183 15.4963L187.901 3.94029L199.52 0L193.183 15.4963Z" fill="#F3C700"/>
<path d="M181.826 18.6468L174.166 12.8665L171.787 20.222L181.826 18.6468Z" fill="#F3C700"/>
<path d="M205.494 16.7109L214.734 13.4417L211.827 8.98096L205.494 16.7109Z" fill="#F3C700"/>
<path d="M186.381 39.1016C186.381 39.1016 186.772 45.4206 194.56 45.4206C202.349 45.4206 204.415 38.2112 199.612 37.9373C195.851 37.7227 194.289 41.6812 194.289 43.4847C194.289 45.2882 194.234 60.0403 194.234 60.0403" stroke="white" stroke-width="3" stroke-miterlimit="10" stroke-linecap="round"/>
</svg>
