<svg width="95" height="32" viewBox="0 0 95 32" fill="none" xmlns="http://www.w3.org/2000/svg">
<path d="M2.05236 0.942749H11.4548C11.7764 0.942749 12.0849 1.07052 12.3123 1.29793C12.5397 1.52534 12.6675 1.83377 12.6675 2.15538V3.96529C12.6675 4.2869 12.5397 4.59534 12.3123 4.82275C12.0849 5.05017 11.7764 5.17794 11.4548 5.17794H6.21513C5.89352 5.17794 5.58509 5.30569 5.35768 5.5331C5.13027 5.76052 5.0025 6.06896 5.0025 6.39057V12.2456C5.0025 12.5672 5.13027 12.8757 5.35768 13.1031C5.58509 13.3305 5.89352 13.4583 6.21513 13.4583H9.88471C10.2063 13.4583 10.5148 13.586 10.7422 13.8134C10.9696 14.0408 11.0974 14.3493 11.0974 14.6709V16.4808C11.0974 16.6398 11.066 16.7973 11.005 16.9442C10.944 17.091 10.8546 17.2244 10.7419 17.3367C10.6292 17.4489 10.4955 17.5378 10.3484 17.5982C10.2013 17.6587 10.0437 17.6895 9.88471 17.6889H6.21513C5.89352 17.6889 5.58509 17.8167 5.35768 18.0441C5.13027 18.2715 5.0025 18.5799 5.0025 18.9015V25.1865C5.0037 25.5073 5.13198 25.8146 5.35927 26.041C5.58655 26.2674 5.8943 26.3946 6.21513 26.3946H11.4548C11.6141 26.3946 11.7717 26.4259 11.9189 26.4869C12.066 26.5478 12.1997 26.6371 12.3123 26.7497C12.4249 26.8623 12.5142 26.996 12.5752 27.1431C12.6361 27.2903 12.6675 27.4479 12.6675 27.6072V29.4171C12.6675 29.7387 12.5397 30.0471 12.3123 30.2746C12.0849 30.502 11.7764 30.6297 11.4548 30.6297H2.05236C1.73074 30.6297 1.4223 30.502 1.19489 30.2746C0.967476 30.0471 0.839722 29.7387 0.839722 29.4171V2.15538C0.839722 1.83377 0.967476 1.52534 1.19489 1.29793C1.4223 1.07052 1.73074 0.942749 2.05236 0.942749Z" fill="white"/>
<path d="M27.8027 4.94723L20.6038 24.7793C20.5377 24.9624 20.5166 25.1587 20.5424 25.3516C20.5682 25.5445 20.64 25.7284 20.7519 25.8877C20.8637 26.0471 21.0122 26.1771 21.1849 26.2669C21.3576 26.3567 21.5494 26.4036 21.744 26.4037H26.6625C26.9841 26.4037 27.2925 26.5314 27.5199 26.7588C27.7473 26.9863 27.8751 27.2947 27.8751 27.6163V29.4262C27.8751 29.7478 27.7473 30.0563 27.5199 30.2837C27.2925 30.5111 26.9841 30.6389 26.6625 30.6389H16.5903C16.2687 30.6389 15.9603 30.5111 15.7329 30.2837C15.5055 30.0563 15.3777 29.7478 15.3777 29.4262V27.0281C15.3882 26.9033 15.4187 26.7811 15.4682 26.6661L22.6671 6.83406C22.7332 6.65098 22.7542 6.45468 22.7285 6.26174C22.7027 6.06881 22.6309 5.88492 22.519 5.7256C22.4072 5.56629 22.2587 5.43624 22.086 5.34644C21.9133 5.25663 21.7215 5.20972 21.5269 5.20966H16.5903C16.2687 5.20966 15.9603 5.08191 15.7329 4.85449C15.5055 4.62708 15.3777 4.31864 15.3777 3.99703V2.18712C15.3777 1.86551 15.5055 1.55707 15.7329 1.32966C15.9603 1.10224 16.2687 0.974487 16.5903 0.974487H26.6625C26.9841 0.974487 27.2925 1.10224 27.5199 1.32966C27.7473 1.55707 27.8751 1.86551 27.8751 2.18712V4.58526C27.8687 4.7088 27.8443 4.83074 27.8027 4.94723Z" fill="white"/>
<path d="M31.16 2.15546C31.16 1.83385 31.2878 1.52543 31.5152 1.29801C31.7426 1.0706 32.0511 0.94283 32.3727 0.94283H37.6802C38.5654 0.902684 39.4487 1.05458 40.2696 1.38808C41.0905 1.72159 41.8294 2.22882 42.4357 2.87491C43.6182 4.16296 44.208 5.88387 44.2049 8.03766V11.5172C44.2049 13.671 43.6152 15.3904 42.4357 16.6754C41.8304 17.3231 41.0917 17.8316 40.2707 18.166C39.4496 18.5003 38.5658 18.6525 37.6802 18.612H36.5355C36.3764 18.6115 36.2188 18.6423 36.0717 18.7027C35.9246 18.7631 35.7909 18.852 35.6783 18.9643C35.5656 19.0765 35.4762 19.2099 35.4152 19.3568C35.3542 19.5037 35.3228 19.6611 35.3228 19.8202V29.4579C35.3228 29.7795 35.1951 30.0879 34.9676 30.3154C34.7402 30.5428 34.4318 30.6705 34.1102 30.6705H32.3727C32.0511 30.6705 31.7426 30.5428 31.5152 30.3154C31.2878 30.0879 31.16 29.7795 31.16 29.4579V2.15546ZM37.4947 14.3723C37.8427 14.3932 38.191 14.3394 38.5165 14.2146C38.8419 14.0897 39.1369 13.8967 39.3815 13.6484C39.8557 13.0799 40.0938 12.3511 40.0467 11.6122V7.96075C40.0931 7.22061 39.8552 6.49067 39.3815 5.92007C39.1359 5.67332 38.8407 5.48159 38.5155 5.35756C38.1902 5.23353 37.8422 5.18004 37.4947 5.20064H36.5445C36.2229 5.20064 35.9145 5.32839 35.687 5.5558C35.4596 5.78322 35.3319 6.09166 35.3319 6.41327V13.1597C35.3319 13.4813 35.4596 13.7897 35.687 14.0172C35.9145 14.2446 36.2229 14.3723 36.5445 14.3723H37.4947Z" fill="white"/>
<path d="M56.8245 29.7475L54.2544 19.3179C54.1863 19.0581 54.0338 18.8282 53.8208 18.6644C53.6079 18.5006 53.3466 18.4122 53.078 18.413C52.919 18.4124 52.7614 18.4432 52.6143 18.5036C52.4672 18.5641 52.3335 18.653 52.2208 18.7652C52.1082 18.8774 52.0187 19.0108 51.9577 19.1577C51.8967 19.3046 51.8654 19.462 51.8654 19.6211V29.4715C51.8654 29.7923 51.7382 30.1001 51.5118 30.3273C51.2854 30.5546 50.9781 30.6829 50.6573 30.6841H48.9152C48.5936 30.6841 48.2852 30.5563 48.0578 30.3289C47.8303 30.1015 47.7026 29.7931 47.7026 29.4715V2.15546C47.7026 1.83385 47.8303 1.52543 48.0578 1.29801C48.2852 1.0706 48.5936 0.94283 48.9152 0.94283H54.2228C55.1079 0.902684 55.9912 1.05458 56.8121 1.38808C57.633 1.72159 58.372 2.22882 58.9783 2.87491C60.1608 4.16296 60.7505 5.88387 60.7475 8.03766V11.3045C60.7738 12.5519 60.5186 13.7892 60.0009 14.9244C59.6344 15.7134 59.1001 16.4129 58.4353 16.9741C58.2697 17.1204 58.149 17.3108 58.0873 17.5231C58.0257 17.7354 58.0255 17.9608 58.0869 18.1731L60.9783 29.1593C61.0244 29.3389 61.029 29.5267 60.9915 29.7083C60.954 29.89 60.8756 30.0606 60.7621 30.2073C60.6486 30.354 60.503 30.4728 60.3366 30.5546C60.1702 30.6365 59.9873 30.6792 59.8018 30.6796H57.9919C57.7214 30.676 57.4598 30.5825 57.2484 30.4137C57.037 30.2449 56.8879 30.0105 56.8245 29.7475ZM51.8473 12.938C51.8473 13.2596 51.975 13.568 52.2024 13.7955C52.4298 14.0229 52.7383 14.1506 53.0599 14.1506H54.0101C54.3576 14.1712 54.7056 14.1177 55.0309 13.9937C55.3561 13.8697 55.6513 13.6779 55.8969 13.4312C56.3706 12.8606 56.6085 12.1306 56.5621 11.3905V7.9517C56.6085 7.21157 56.3706 6.48162 55.8969 5.91103C55.6513 5.66428 55.3561 5.47253 55.0309 5.3485C54.7056 5.22447 54.3576 5.17099 54.0101 5.19159H53.0599C52.7383 5.19159 52.4298 5.31935 52.2024 5.54676C51.975 5.77417 51.8473 6.08261 51.8473 6.40422V12.938Z" fill="white"/>
<path d="M66.2858 29.1185C65.0551 27.8003 64.4397 26.0673 64.4397 23.9196V7.69827C64.4397 5.54448 65.0551 3.80998 66.2858 2.49479C67.5772 1.2299 69.3129 0.521484 71.1205 0.521484C72.9282 0.521484 74.6638 1.2299 75.9552 2.49479C77.186 3.813 77.8013 5.54749 77.8013 7.69827V23.9196C77.8013 26.0703 77.186 27.8033 75.9552 29.1185C74.665 30.3856 72.9289 31.0954 71.1205 31.0954C69.3122 31.0954 67.5761 30.3856 66.2858 29.1185ZM72.9689 26.0824C73.4494 25.4679 73.6862 24.6978 73.634 23.9196V7.69827C73.6843 6.91884 73.4478 6.14794 72.9689 5.53091C72.4793 5.0413 71.8152 4.76623 71.1228 4.76623C70.4304 4.76623 69.7663 5.0413 69.2767 5.53091C68.7935 6.14591 68.555 6.91791 68.607 7.69827V23.9196C68.5561 24.6984 68.7946 25.4686 69.2767 26.0824C69.7663 26.572 70.4304 26.8471 71.1228 26.8471C71.8152 26.8471 72.4793 26.572 72.9689 26.0824Z" fill="white"/>
<path d="M92.0589 10.6078C91.7373 10.6078 91.4289 10.48 91.2014 10.2526C90.974 10.0252 90.8463 9.71676 90.8463 9.39515V8.11465C90.8983 7.33429 90.6597 6.56228 90.1766 5.94728C89.687 5.45767 89.0229 5.18261 88.3305 5.18261C87.6381 5.18261 86.974 5.45767 86.4844 5.94728C86.0055 6.56431 85.7689 7.33522 85.8192 8.11465V24.3359C85.7698 25.1153 86.0063 25.8859 86.4844 26.5033C86.9752 26.9907 87.6388 27.2642 88.3305 27.2642C89.0222 27.2642 89.6858 26.9907 90.1766 26.5033C90.6597 25.8883 90.8983 25.1163 90.8463 24.3359V20.2636C90.8463 19.942 90.7185 19.6336 90.4911 19.4062C90.2637 19.1788 89.9552 19.051 89.6336 19.051H89.5431C89.3831 19.0528 89.2243 19.0229 89.076 18.9631C88.9276 18.9032 88.7925 18.8146 88.6785 18.7023C88.5645 18.59 88.4739 18.4562 88.4118 18.3087C88.3498 18.1612 88.3175 18.0029 88.3169 17.8429V16.033C88.3181 15.7122 88.4464 15.4049 88.6737 15.1785C88.901 14.952 89.2087 14.8249 89.5296 14.8249H93.7874C94.1082 14.8249 94.4159 14.952 94.6432 15.1785C94.8705 15.4049 94.9988 15.7122 95 16.033V24.3359C95 26.4867 94.3846 28.2212 93.1539 29.5394C91.8625 30.8043 90.1268 31.5127 88.3192 31.5127C86.5115 31.5127 84.7759 30.8043 83.4845 29.5394C82.2537 28.2242 81.6384 26.4897 81.6384 24.3359V8.11465C81.6384 5.96086 82.2537 4.22637 83.4845 2.91117C84.7759 1.64628 86.5115 0.937866 88.3192 0.937866C90.1268 0.937866 91.8625 1.64628 93.1539 2.91117C94.3846 4.22637 95 5.96086 95 8.11465V9.40873C95 9.73034 94.8722 10.0388 94.6448 10.2662C94.4174 10.4936 94.109 10.6214 93.7874 10.6214L92.0589 10.6078Z" fill="white"/>
</svg>
