<svg width="39" height="39" viewBox="0 0 39 39" fill="none" xmlns="http://www.w3.org/2000/svg">
<path d="M38.7541 19.1885C38.7541 8.59106 30.163 0 19.5656 0C8.96811 0 0.377045 8.59091 0.377045 19.1885C0.377045 28.766 7.39405 36.7045 16.5674 38.1439V24.7352H11.6953V19.1885H16.5674V14.9611C16.5674 10.1519 19.4321 7.49552 23.8151 7.49552C25.9146 7.49552 28.1105 7.87029 28.1105 7.87029V12.5925H25.6909C23.307 12.5925 22.5638 14.0716 22.5638 15.5892V19.1885H27.8856L27.0348 24.7352H22.5638V38.1439C31.7371 36.7045 38.7541 28.7661 38.7541 19.1885Z" fill="#1877F2"/>
<path d="M27.0348 24.7355L27.8856 19.1889H22.5638V15.5895C22.5638 14.0718 23.3072 12.5928 25.6909 12.5928H28.1104V7.87063C28.1104 7.87063 25.9146 7.49585 23.8151 7.49585C19.4321 7.49585 16.5674 10.1523 16.5674 14.9614V19.1889H11.6953V24.7355H16.5674V38.1443C17.5592 38.2997 18.5616 38.3776 19.5656 38.3774C20.5695 38.3777 21.5719 38.2997 22.5638 38.1443V24.7355H27.0348Z" fill="white"/>
</svg>
