<svg width="39" height="39" viewBox="0 0 39 39" fill="none" xmlns="http://www.w3.org/2000/svg">
<path d="M29.3824 0H8.99462C4.02703 0 0 4.02703 0 8.99462V29.3824C0 34.35 4.02703 38.377 8.99462 38.377H29.3824C34.35 38.377 38.377 34.35 38.377 29.3824V8.99462C38.377 4.02703 34.35 0 29.3824 0Z" fill="url(#paint0_radial_92_31)"/>
<path d="M29.3824 0H8.99462C4.02703 0 0 4.02703 0 8.99462V29.3824C0 34.35 4.02703 38.377 8.99462 38.377H29.3824C34.35 38.377 38.377 34.35 38.377 29.3824V8.99462C38.377 4.02703 34.35 0 29.3824 0Z" fill="url(#paint1_radial_92_31)"/>
<path d="M19.1898 5.95532C15.5958 5.95532 15.1447 5.97107 13.7332 6.03525C12.3244 6.09983 11.3627 6.32282 10.5213 6.65008C9.65083 6.98806 8.91254 7.44025 8.17702 8.17603C7.44085 8.91168 6.98866 9.64997 6.64962 10.5201C6.32143 11.3617 6.09818 12.3238 6.03479 13.732C5.97167 15.1436 5.95512 15.5948 5.95512 19.1889C5.95512 22.783 5.971 23.2327 6.03505 24.6441C6.0999 26.053 6.32288 27.0147 6.64988 27.856C6.98813 28.7265 7.44032 29.4648 8.1761 30.2003C8.91148 30.9365 9.64978 31.3898 10.5196 31.7278C11.3617 32.055 12.3235 32.278 13.732 32.3426C15.1436 32.4068 15.5944 32.4225 19.1882 32.4225C22.7825 32.4225 23.2322 32.4068 24.6437 32.3426C26.0525 32.278 27.0153 32.055 27.8573 31.7278C28.7274 31.3898 29.4646 30.9365 30.1999 30.2003C30.9361 29.4648 31.3881 28.7265 31.7273 27.8564C32.0526 27.0147 32.276 26.0527 32.3421 24.6444C32.4055 23.2329 32.4221 22.783 32.4221 19.1889C32.4221 15.5948 32.4055 15.1438 32.3421 13.7322C32.276 12.3234 32.0526 11.3619 31.7273 10.5205C31.3881 9.64997 30.9361 8.91168 30.1999 8.17603C29.4638 7.43998 28.7277 6.9878 27.8565 6.65021C27.0129 6.32282 26.0507 6.0997 24.6418 6.03525C23.2302 5.97107 22.7808 5.95532 19.1857 5.95532H19.1898ZM18.0026 8.34012C18.355 8.3396 18.7482 8.34012 19.1898 8.34012C22.7232 8.34012 23.142 8.35283 24.5373 8.41622C25.8276 8.47524 26.5279 8.69081 26.9943 8.87198C27.612 9.11177 28.0522 9.39854 28.5151 9.86184C28.9783 10.325 29.2649 10.7661 29.5054 11.3837C29.6866 11.8495 29.9024 12.5498 29.9612 13.8401C30.0245 15.2352 30.0383 15.6541 30.0383 19.1859C30.0383 22.7176 30.0245 23.1367 29.9612 24.5317C29.9021 25.8219 29.6866 26.5222 29.5054 26.9882C29.2656 27.6058 28.9783 28.0455 28.5151 28.5084C28.052 28.9716 27.6122 29.2583 26.9943 29.4982C26.5284 29.6801 25.8276 29.8952 24.5373 29.9542C23.1422 30.0176 22.7232 30.0314 19.1898 30.0314C15.6562 30.0314 15.2373 30.0176 13.8424 29.9542C12.5521 29.8947 11.8518 29.6791 11.3849 29.4979C10.7675 29.258 10.3263 28.9714 9.8631 28.5082C9.39993 28.045 9.11329 27.605 8.87284 26.9871C8.69167 26.5212 8.47583 25.8209 8.41708 24.5306C8.35369 23.1355 8.34099 22.7166 8.34099 19.1826C8.34099 15.6487 8.35369 15.2318 8.41708 13.8368C8.4761 12.5465 8.69167 11.8462 8.87284 11.3797C9.11276 10.7621 9.39993 10.321 9.86323 9.85787C10.3264 9.3947 10.7675 9.10793 11.3851 8.86761C11.8516 8.68565 12.5521 8.47061 13.8424 8.41132C15.0632 8.35614 15.5363 8.33959 18.0026 8.33682V8.34012ZM26.2538 10.5374C25.3771 10.5374 24.6658 11.248 24.6658 12.1249C24.6658 13.0016 25.3771 13.7129 26.2538 13.7129C27.1305 13.7129 27.8418 13.0016 27.8418 12.1249C27.8418 11.2482 27.1305 10.5369 26.2538 10.5369V10.5374ZM19.1898 12.3929C15.4368 12.3929 12.3939 15.4358 12.3939 19.1889C12.3939 22.9421 15.4368 25.9835 19.1898 25.9835C22.9429 25.9835 25.9848 22.9421 25.9848 19.1889C25.9848 15.4359 22.9427 12.3929 19.1895 12.3929H19.1898ZM19.1898 14.7777C21.6259 14.7777 23.601 16.7525 23.601 19.1889C23.601 21.6251 21.6259 23.6002 19.1898 23.6002C16.7535 23.6002 14.7787 21.6251 14.7787 19.1889C14.7787 16.7525 16.7535 14.7777 19.1898 14.7777Z" fill="white"/>
<defs>
<radialGradient id="paint0_radial_92_31" cx="0" cy="0" r="1" gradientUnits="userSpaceOnUse" gradientTransform="translate(10.1939 41.3328) rotate(-90) scale(38.0345 35.3751)">
<stop stop-color="#FFDD55"/>
<stop offset="0.1" stop-color="#FFDD55"/>
<stop offset="0.5" stop-color="#FF543E"/>
<stop offset="1" stop-color="#C837AB"/>
</radialGradient>
<radialGradient id="paint1_radial_92_31" cx="0" cy="0" r="1" gradientUnits="userSpaceOnUse" gradientTransform="translate(-6.4283 2.7645) rotate(78.681) scale(17.0016 70.0813)">
<stop stop-color="#3771C8"/>
<stop offset="0.128" stop-color="#3771C8"/>
<stop offset="1" stop-color="#6600FF" stop-opacity="0"/>
</radialGradient>
</defs>
</svg>
