<svg width="105" height="105" viewBox="0 0 105 105" fill="none" xmlns="http://www.w3.org/2000/svg">
<path d="M15.9011 82.271C16.2039 85.0896 17.1378 87.8038 18.6336 90.212C20.1294 92.6201 22.1486 94.6603 24.5411 96.181L24.9011 96.421C34.8638 102.56 46.6061 105.16 58.2293 103.799C69.8524 102.438 80.6766 97.1964 88.9516 88.9214C97.2265 80.6465 102.468 69.8223 103.829 58.1991C105.19 46.576 102.591 34.8336 96.4511 24.871C93.9118 20.7548 90.8159 17.0094 87.2511 13.741C89.4958 17.7351 90.3727 22.3538 89.748 26.8927C89.1233 31.4316 87.0313 35.6417 83.7911 38.881L83.1111 39.561C85.5755 45.686 86.1722 52.4033 84.8261 58.8669C83.48 65.3304 80.2513 71.2511 75.5466 75.8831C70.8419 80.515 64.8717 83.6512 58.388 84.8965C51.9042 86.1418 45.197 85.4405 39.1111 82.881L38.7911 82.701C36.1703 81.0732 33.9529 78.8722 32.3057 76.2637C30.6584 73.6551 29.6243 70.7069 29.2811 67.641C28.8608 64.0514 29.374 60.4141 30.7711 57.081L21.4811 66.361C19.4151 68.423 17.8405 70.9243 16.8744 73.6788C15.9084 76.4333 15.5757 79.3702 15.9011 82.271Z" fill="white"/>
<path d="M88.281 21.911C87.9825 19.0871 87.0506 16.3669 85.5546 13.9533C84.0586 11.5396 82.0372 9.49474 79.641 7.971L79.481 7.861L79.681 7.071L79.281 7.731C69.3183 1.59147 57.5759 -1.00802 45.9528 0.352904C34.3297 1.71383 23.5055 6.9556 15.2305 15.2305C6.9556 23.5055 1.71383 34.3297 0.352904 45.9528C-1.00802 57.5759 1.59147 69.3183 7.731 79.281C10.2703 83.3971 13.3662 87.1426 16.931 90.411C14.6863 86.4169 13.8094 81.7982 14.4341 77.2593C15.0588 72.7203 17.1508 68.5103 20.391 65.271L21.071 64.591C18.5962 58.4656 17.9918 51.7442 19.3341 45.2756C20.6764 38.8069 23.9053 32.881 28.613 28.2461C33.3207 23.6111 39.2962 20.4749 45.785 19.2335C52.2737 17.9921 58.9849 18.7011 65.071 21.271L65.391 21.451C68.0155 23.0818 70.2352 25.2875 71.8826 27.9016C73.53 30.5156 74.5621 33.4698 74.901 36.541C75.3208 40.1338 74.8076 43.7742 73.411 47.111L82.701 37.811C84.7674 35.7513 86.3424 33.2518 87.3085 30.4988C88.2746 27.7458 88.6071 24.8103 88.281 21.911Z" fill="white"/>
</svg>
