<svg width="143" height="142" viewBox="0 0 143 142" fill="none" xmlns="http://www.w3.org/2000/svg">
<path d="M21.8585 112.141C22.2757 115.99 23.5559 119.695 25.6037 122.98C27.6515 126.265 30.4142 129.046 33.6859 131.116L34.1793 131.43C47.741 139.761 63.7143 143.279 79.5213 141.417C95.3283 139.555 110.047 132.421 121.301 121.167C132.556 109.912 139.69 95.1938 141.552 79.3868C143.414 63.5798 139.895 47.6065 131.564 34.0448C128.068 28.4352 123.811 23.3377 118.914 18.8981C121.979 24.3265 123.184 30.6087 122.344 36.7859C121.505 42.963 118.667 48.6957 114.264 53.1091L113.337 54.0362C116.685 62.3646 117.495 71.4968 115.666 80.2844C113.836 89.0719 109.45 97.1225 103.058 103.424C96.6654 109.725 88.5527 113.995 79.7398 115.698C70.9268 117.401 61.8072 116.46 53.5277 112.993L53.0791 112.739C49.5093 110.52 46.4902 107.519 44.2496 103.963C42.0091 100.407 40.6057 96.3876 40.1453 92.2096C39.5747 87.3198 40.2751 82.3655 42.1788 77.8254L29.4544 90.4901C26.6411 93.2952 24.4971 96.6988 23.1819 100.447C21.8668 104.196 21.4144 108.193 21.8585 112.141Z" fill="url(#paint0_linear_138_22)"/>
<path d="M120.836 29.9277C120.433 26.0899 119.163 22.3924 117.12 19.112C115.078 15.8316 112.316 13.0532 109.041 10.9849L108.831 10.8356L109.101 9.7608L108.546 10.6565C93.489 1.34191 75.4745 -2.03395 58.0426 1.19227C40.6107 4.41849 25.0219 14.0135 14.3394 28.0919C3.65695 42.1702 -1.34679 59.7139 0.311507 77.2756C1.96981 94.8372 10.1702 111.147 23.3013 123C21.3945 119.671 20.1991 115.987 19.7901 112.178C19.3127 107.92 19.8084 103.611 21.24 99.5706C22.6717 95.5305 25.0024 91.8644 28.058 88.8461L28.9883 87.9206C25.626 79.5965 24.8141 70.4689 26.6548 61.6868C28.4955 52.9046 32.9065 44.8604 39.3326 38.5665C45.7587 32.2727 53.9127 28.0107 62.7683 26.3167C71.6239 24.6228 80.7853 25.5728 89.0994 29.047L89.5346 29.3008C93.1178 31.5153 96.1481 34.511 98.3967 38.0616C100.645 41.6122 102.053 45.6247 102.514 49.7961C103.094 54.6765 102.396 59.6232 100.488 64.1562L113.168 51.5426C116.003 48.7489 118.165 45.3531 119.493 41.6098C120.821 37.8664 121.28 33.8726 120.836 29.9277Z" fill="url(#paint1_linear_138_22)"/>
<defs>
<linearGradient id="paint0_linear_138_22" x1="41.3714" y1="139.743" x2="140.64" y2="40.4744" gradientUnits="userSpaceOnUse">
<stop offset="0.5" stop-color="#2BB3E8"/>
<stop offset="1" stop-color="#3B5AA9"/>
</linearGradient>
<linearGradient id="paint1_linear_138_22" x1="1.58869" y1="101.46" x2="100.899" y2="1.63109" gradientUnits="userSpaceOnUse">
<stop stop-color="#3B5AA9"/>
<stop offset="0.5" stop-color="#2BB4E8"/>
</linearGradient>
</defs>
</svg>
