<svg width="149" height="44" viewBox="0 0 149 44" fill="none" xmlns="http://www.w3.org/2000/svg">
<path d="M56.0524 6.94275H65.4548C65.7764 6.94275 66.0849 7.07052 66.3123 7.29793C66.5397 7.52534 66.6675 7.83377 66.6675 8.15538V9.96529C66.6675 10.2869 66.5397 10.5953 66.3123 10.8228C66.0849 11.0502 65.7764 11.1779 65.4548 11.1779H60.2151C59.8935 11.1779 59.5851 11.3057 59.3577 11.5331C59.1303 11.7605 59.0025 12.069 59.0025 12.3906V18.2456C59.0025 18.5672 59.1303 18.8757 59.3577 19.1031C59.5851 19.3305 59.8935 19.4583 60.2151 19.4583H63.8847C64.2063 19.4583 64.5148 19.586 64.7422 19.8134C64.9696 20.0408 65.0974 20.3493 65.0974 20.6709V22.4808C65.0974 22.6398 65.066 22.7973 65.005 22.9442C64.944 23.091 64.8546 23.2244 64.7419 23.3367C64.6292 23.4489 64.4955 23.5378 64.3484 23.5982C64.2013 23.6587 64.0437 23.6895 63.8847 23.6889H60.2151C59.8935 23.6889 59.5851 23.8167 59.3577 24.0441C59.1303 24.2715 59.0025 24.5799 59.0025 24.9015V31.1865C59.0037 31.5073 59.132 31.8146 59.3593 32.041C59.5866 32.2674 59.8943 32.3946 60.2151 32.3946H65.4548C65.6141 32.3946 65.7717 32.4259 65.9189 32.4869C66.066 32.5478 66.1997 32.6371 66.3123 32.7497C66.4249 32.8623 66.5142 32.996 66.5752 33.1431C66.6361 33.2903 66.6675 33.4479 66.6675 33.6072V35.4171C66.6675 35.7387 66.5397 36.0471 66.3123 36.2746C66.0849 36.502 65.7764 36.6297 65.4548 36.6297H56.0524C55.7307 36.6297 55.4223 36.502 55.1949 36.2746C54.9675 36.0471 54.8397 35.7387 54.8397 35.4171V8.15538C54.8397 7.83377 54.9675 7.52534 55.1949 7.29793C55.4223 7.07052 55.7307 6.94275 56.0524 6.94275Z" fill="white"/>
<path d="M81.8027 10.9472L74.6038 30.7793C74.5377 30.9624 74.5166 31.1587 74.5424 31.3516C74.5682 31.5445 74.64 31.7284 74.7519 31.8877C74.8637 32.0471 75.0122 32.1771 75.1849 32.2669C75.3576 32.3567 75.5494 32.4036 75.744 32.4037H80.6625C80.9841 32.4037 81.2925 32.5314 81.5199 32.7588C81.7473 32.9863 81.8751 33.2947 81.8751 33.6163V35.4262C81.8751 35.7478 81.7473 36.0563 81.5199 36.2837C81.2925 36.5111 80.9841 36.6389 80.6625 36.6389H70.5903C70.2687 36.6389 69.9603 36.5111 69.7329 36.2837C69.5055 36.0563 69.3777 35.7478 69.3777 35.4262V33.0281C69.3882 32.9033 69.4187 32.7811 69.4682 32.6661L76.6671 12.8341C76.7332 12.651 76.7542 12.4547 76.7285 12.2617C76.7027 12.0688 76.6309 11.8849 76.519 11.7256C76.4072 11.5663 76.2587 11.4362 76.086 11.3464C75.9133 11.2566 75.7215 11.2097 75.5269 11.2097H70.5903C70.2687 11.2097 69.9603 11.0819 69.7329 10.8545C69.5055 10.6271 69.3777 10.3186 69.3777 9.99703V8.18712C69.3777 7.86551 69.5055 7.55707 69.7329 7.32966C69.9603 7.10224 70.2687 6.97449 70.5903 6.97449H80.6625C80.9841 6.97449 81.2925 7.10224 81.5199 7.32966C81.7473 7.55707 81.8751 7.86551 81.8751 8.18712V10.5853C81.8687 10.7088 81.8443 10.8307 81.8027 10.9472Z" fill="white"/>
<path d="M85.16 8.15546C85.16 7.83385 85.2878 7.52543 85.5152 7.29801C85.7426 7.0706 86.0511 6.94283 86.3727 6.94283H91.6802C92.5654 6.90268 93.4487 7.05458 94.2696 7.38808C95.0905 7.72159 95.8294 8.22882 96.4357 8.87491C97.6182 10.163 98.208 11.8839 98.2049 14.0377V17.5172C98.2049 19.671 97.6152 21.3904 96.4357 22.6754C95.8304 23.3231 95.0917 23.8316 94.2707 24.166C93.4496 24.5003 92.5658 24.6525 91.6802 24.612H90.5355C90.3764 24.6115 90.2188 24.6423 90.0717 24.7027C89.9246 24.7631 89.7909 24.852 89.6783 24.9643C89.5656 25.0765 89.4762 25.2099 89.4152 25.3568C89.3542 25.5037 89.3228 25.6611 89.3228 25.8202V35.4579C89.3228 35.7795 89.1951 36.0879 88.9676 36.3154C88.7402 36.5428 88.4318 36.6705 88.1102 36.6705H86.3727C86.0511 36.6705 85.7426 36.5428 85.5152 36.3154C85.2878 36.0879 85.16 35.7795 85.16 35.4579V8.15546ZM91.4947 20.3723C91.8427 20.3932 92.191 20.3394 92.5165 20.2146C92.8419 20.0897 93.1369 19.8967 93.3815 19.6484C93.8557 19.0799 94.0938 18.3511 94.0467 17.6122V13.9607C94.0931 13.2206 93.8552 12.4907 93.3815 11.9201C93.1359 11.6733 92.8407 11.4816 92.5155 11.3576C92.1902 11.2335 91.8422 11.18 91.4947 11.2006H90.5445C90.2229 11.2006 89.9145 11.3284 89.687 11.5558C89.4596 11.7832 89.3319 12.0917 89.3319 12.4133V19.1597C89.3319 19.4813 89.4596 19.7897 89.687 20.0172C89.9145 20.2446 90.2229 20.3723 90.5445 20.3723H91.4947Z" fill="white"/>
<path d="M110.825 35.7475L108.254 25.3179C108.186 25.0581 108.034 24.8282 107.821 24.6644C107.608 24.5006 107.347 24.4122 107.078 24.413C106.919 24.4124 106.761 24.4432 106.614 24.5036C106.467 24.5641 106.333 24.653 106.221 24.7652C106.108 24.8774 106.019 25.0108 105.958 25.1577C105.897 25.3046 105.865 25.462 105.865 25.6211V35.4715C105.865 35.7923 105.738 36.1001 105.512 36.3273C105.285 36.5546 104.978 36.6829 104.657 36.6841H102.915C102.594 36.6841 102.285 36.5563 102.058 36.3289C101.83 36.1015 101.703 35.7931 101.703 35.4715V8.15546C101.703 7.83385 101.83 7.52543 102.058 7.29801C102.285 7.0706 102.594 6.94283 102.915 6.94283H108.223C109.108 6.90268 109.991 7.05458 110.812 7.38808C111.633 7.72159 112.372 8.22882 112.978 8.87491C114.161 10.163 114.751 11.8839 114.747 14.0377V17.3045C114.774 18.5519 114.519 19.7892 114.001 20.9244C113.634 21.7134 113.1 22.4129 112.435 22.9741C112.27 23.1204 112.149 23.3108 112.087 23.5231C112.026 23.7354 112.026 23.9608 112.087 24.1731L114.978 35.1593C115.024 35.3389 115.029 35.5267 114.992 35.7083C114.954 35.89 114.876 36.0606 114.762 36.2073C114.649 36.354 114.503 36.4728 114.337 36.5546C114.17 36.6365 113.987 36.6792 113.802 36.6796H111.992C111.721 36.676 111.46 36.5825 111.248 36.4137C111.037 36.2449 110.888 36.0105 110.825 35.7475ZM105.847 18.938C105.847 19.2596 105.975 19.568 106.202 19.7955C106.43 20.0229 106.738 20.1506 107.06 20.1506H108.01C108.358 20.1712 108.706 20.1177 109.031 19.9937C109.356 19.8697 109.651 19.6779 109.897 19.4312C110.371 18.8606 110.609 18.1306 110.562 17.3905V13.9517C110.609 13.2116 110.371 12.4816 109.897 11.911C109.651 11.6643 109.356 11.4725 109.031 11.3485C108.706 11.2245 108.358 11.171 108.01 11.1916H107.06C106.738 11.1916 106.43 11.3193 106.202 11.5468C105.975 11.7742 105.847 12.0826 105.847 12.4042V18.938Z" fill="white"/>
<path d="M120.286 35.1185C119.055 33.8003 118.44 32.0673 118.44 29.9196V13.6983C118.44 11.5445 119.055 9.80998 120.286 8.49479C121.577 7.2299 123.313 6.52148 125.121 6.52148C126.928 6.52148 128.664 7.2299 129.955 8.49479C131.186 9.813 131.801 11.5475 131.801 13.6983V29.9196C131.801 32.0703 131.186 33.8033 129.955 35.1185C128.665 36.3856 126.929 37.0954 125.121 37.0954C123.312 37.0954 121.576 36.3856 120.286 35.1185ZM126.969 32.0824C127.449 31.4679 127.686 30.6978 127.634 29.9196V13.6983C127.684 12.9188 127.448 12.1479 126.969 11.5309C126.479 11.0413 125.815 10.7662 125.123 10.7662C124.43 10.7662 123.766 11.0413 123.277 11.5309C122.794 12.1459 122.555 12.9179 122.607 13.6983V29.9196C122.556 30.6984 122.795 31.4686 123.277 32.0824C123.766 32.572 124.43 32.8471 125.123 32.8471C125.815 32.8471 126.479 32.572 126.969 32.0824Z" fill="white"/>
<path d="M146.059 16.6078C145.737 16.6078 145.429 16.48 145.201 16.2526C144.974 16.0252 144.846 15.7168 144.846 15.3952V14.1146C144.898 13.3343 144.66 12.5623 144.177 11.9473C143.687 11.4577 143.023 11.1826 142.331 11.1826C141.638 11.1826 140.974 11.4577 140.484 11.9473C140.006 12.5643 139.769 13.3352 139.819 14.1146V30.3359C139.77 31.1153 140.006 31.8859 140.484 32.5033C140.975 32.9907 141.639 33.2642 142.331 33.2642C143.022 33.2642 143.686 32.9907 144.177 32.5033C144.66 31.8883 144.898 31.1163 144.846 30.3359V26.2636C144.846 25.942 144.719 25.6336 144.491 25.4062C144.264 25.1788 143.955 25.051 143.634 25.051H143.543C143.383 25.0528 143.224 25.0229 143.076 24.9631C142.928 24.9032 142.792 24.8146 142.678 24.7023C142.565 24.59 142.474 24.4562 142.412 24.3087C142.35 24.1612 142.318 24.0029 142.317 23.8429V22.033C142.318 21.7122 142.446 21.4049 142.674 21.1785C142.901 20.952 143.209 20.8249 143.53 20.8249H147.787C148.108 20.8249 148.416 20.952 148.643 21.1785C148.871 21.4049 148.999 21.7122 149 22.033V30.3359C149 32.4867 148.385 34.2212 147.154 35.5394C145.863 36.8043 144.127 37.5127 142.319 37.5127C140.512 37.5127 138.776 36.8043 137.484 35.5394C136.254 34.2242 135.638 32.4897 135.638 30.3359V14.1146C135.638 11.9609 136.254 10.2264 137.484 8.91117C138.776 7.64628 140.512 6.93787 142.319 6.93787C144.127 6.93787 145.863 7.64628 147.154 8.91117C148.385 10.2264 149 11.9609 149 14.1146V15.4087C149 15.7303 148.872 16.0388 148.645 16.2662C148.417 16.4936 148.109 16.6214 147.787 16.6214L146.059 16.6078Z" fill="white"/>
<path d="M6.61467 34.2407C6.74092 35.4054 7.12831 36.5266 7.748 37.5207C8.36769 38.5149 9.2037 39.3564 10.1938 39.9827L10.3431 40.0777C14.447 42.5988 19.2807 43.6635 24.0641 43.1001C28.8475 42.5366 33.3015 40.3777 36.7072 36.972C40.113 33.5663 42.2718 29.1123 42.8352 24.3289C43.3987 19.5455 42.334 14.7118 39.8129 10.6079C38.755 8.91033 37.4668 7.36776 35.9849 6.02429C36.9124 7.667 37.2769 9.56807 37.0229 11.4373C36.7688 13.3066 35.91 15.0414 34.5777 16.377L34.2972 16.6575C35.3101 19.1778 35.5552 21.9413 35.0017 24.6005C34.4483 27.2597 33.1209 29.6959 31.1865 31.6027C29.2521 33.5096 26.7971 34.8018 24.1302 35.3171C21.4633 35.8324 18.7036 35.5476 16.1981 34.4986L16.0624 34.4217C14.9821 33.7502 14.0685 32.8421 13.3905 31.7659C12.7125 30.6897 12.2878 29.4735 12.1485 28.2092C11.9758 26.7295 12.1877 25.2303 12.7638 23.8564L8.91326 27.6889C8.06194 28.5377 7.41312 29.5677 7.01514 30.7021C6.61716 31.8365 6.48027 33.0461 6.61467 34.2407Z" fill="white"/>
<path d="M36.4374 9.37718C36.3159 8.21387 35.9329 7.09309 35.317 6.09873C34.7011 5.10438 33.8683 4.2622 32.8809 3.63525L32.8176 3.59L32.899 3.26422L32.7316 3.53571C28.1912 0.7123 22.759 -0.310986 17.5025 0.666941C12.246 1.64487 7.54523 4.5533 4.32398 8.8207C1.10274 13.0881 -0.406119 18.4059 0.0939335 23.7292C0.593986 29.0525 3.06678 33.9963 7.0264 37.5891C6.45139 36.5802 6.09094 35.4634 5.96761 34.3086C5.82365 33.0182 5.97312 31.7118 6.40483 30.4872C6.83654 29.2626 7.53934 28.1513 8.46076 27.2364L8.74129 26.9559C7.72741 24.4327 7.48258 21.666 8.03762 19.0039C8.59267 16.3419 9.92279 13.9035 11.8605 11.9958C13.7983 10.088 16.2571 8.79609 18.9275 8.28263C21.5978 7.76917 24.3604 8.05711 26.8675 9.11022L26.9987 9.18714C28.0792 9.85839 28.993 10.7665 29.6711 11.8427C30.3491 12.919 30.7737 14.1352 30.9126 15.3996C31.0876 16.879 30.8771 18.3784 30.3018 19.7525L34.1252 15.929C34.9801 15.0822 35.6321 14.0529 36.0326 12.9182C36.433 11.7836 36.5714 10.573 36.4374 9.37718Z" fill="white"/>
</svg>
