<svg width="179" height="160" viewBox="0 0 179 160" fill="none" xmlns="http://www.w3.org/2000/svg">
<rect x="0.914612" width="178" height="160" rx="10" fill="white"/>
<path d="M54.4979 75.2355C54.2747 75.2355 54.0606 75.1468 53.9027 74.9889C53.7448 74.8311 53.6562 74.617 53.6562 74.3937V60.9253C53.6555 60.8145 53.6768 60.7047 53.7186 60.6022C53.7605 60.4996 53.8223 60.4063 53.9003 60.3277L60.9291 53.2989V45.866L53.6141 38.551C53.5345 38.4731 53.4713 38.3801 53.4279 38.2775C53.3846 38.1749 53.362 38.0647 53.3615 37.9534V22.1196C53.3615 21.8964 53.4502 21.6822 53.6081 21.5244C53.766 21.3665 53.9801 21.2778 54.2033 21.2778C54.4266 21.2778 54.6407 21.3665 54.7985 21.5244C54.9564 21.6822 55.0451 21.8964 55.0451 22.1196V37.5998L62.3601 44.9148C62.4396 44.9928 62.5029 45.0857 62.5463 45.1883C62.5896 45.2909 62.6122 45.4011 62.6126 45.5125V53.6019C62.6122 53.7133 62.5896 53.8235 62.5463 53.926C62.5029 54.0286 62.4396 54.1216 62.3601 54.1996L55.3397 61.2284V74.3853C55.3408 74.4965 55.3199 74.6069 55.2781 74.71C55.2363 74.8131 55.1744 74.9069 55.0962 74.986C55.0179 75.065 54.9247 75.1278 54.822 75.1706C54.7193 75.2134 54.6092 75.2355 54.4979 75.2355Z" fill="#FF5325"/>
<path d="M70.4916 76.2121C70.2683 76.2121 70.0542 76.1234 69.8964 75.9655C69.7385 75.8077 69.6498 75.5935 69.6498 75.3703V60.05C69.6529 59.8272 69.7401 59.6137 69.8939 59.4524L72.9832 56.4052V46.8174C72.9832 46.5941 73.0719 46.38 73.2298 46.2221C73.3877 46.0643 73.6018 45.9756 73.825 45.9756C74.0483 45.9756 74.2624 46.0643 74.4202 46.2221C74.5781 46.38 74.6668 46.5941 74.6668 46.8174V56.7082C74.6685 56.8204 74.6479 56.9318 74.6059 57.0359C74.564 57.14 74.5017 57.2346 74.4227 57.3143L71.3249 60.4036V75.3619C71.3261 75.4724 71.3054 75.5821 71.2641 75.6847C71.2228 75.7872 71.1617 75.8806 71.0844 75.9596C71.007 76.0385 70.9148 76.1015 70.8131 76.1448C70.7114 76.1881 70.6021 76.211 70.4916 76.2121Z" fill="#FF5325"/>
<path d="M87.3776 76.2121C87.1543 76.2121 86.9402 76.1234 86.7823 75.9656C86.6245 75.8077 86.5358 75.5936 86.5358 75.3704V40.5883L79.1618 33.2144C79.0823 33.1364 79.019 33.0434 78.9757 32.9409C78.9323 32.8383 78.9098 32.7281 78.9093 32.6167V21.0508C78.9093 20.8275 78.998 20.6134 79.1559 20.4555C79.3137 20.2977 79.5278 20.209 79.7511 20.209C79.9743 20.209 80.1885 20.2977 80.3463 20.4555C80.5042 20.6134 80.5929 20.8275 80.5929 21.0508V32.2716L87.9668 39.6371C88.1206 39.7984 88.2078 40.0119 88.2109 40.2348V75.3619C88.212 75.4725 88.1913 75.5822 88.1501 75.6847C88.1088 75.7873 88.0477 75.8807 87.9703 75.9596C87.8929 76.0386 87.8008 76.1015 87.699 76.1448C87.5973 76.1882 87.4881 76.211 87.3776 76.2121Z" fill="#FF5325"/>
<path d="M104.179 77.4999C103.956 77.4999 103.742 77.4112 103.584 77.2533C103.426 77.0954 103.338 76.8813 103.338 76.6581V66.9356L97.6724 61.2705C97.5929 61.1925 97.5296 61.0995 97.4863 60.997C97.4429 60.8944 97.4204 60.7842 97.4199 60.6728V44.4182C97.4204 44.3068 97.4429 44.1966 97.4863 44.094C97.5296 43.9915 97.5929 43.8985 97.6724 43.8205L103.026 38.4584V28.3572C103.026 28.1339 103.115 27.9198 103.273 27.7619C103.431 27.6041 103.645 27.5154 103.868 27.5154C104.091 27.5154 104.305 27.6041 104.463 27.7619C104.621 27.9198 104.71 28.1339 104.71 28.3572V38.812C104.709 38.9233 104.687 39.0335 104.643 39.1361C104.6 39.2387 104.537 39.3317 104.457 39.4096L99.1034 44.7717V60.3193L104.769 65.9844C104.847 66.0631 104.908 66.1563 104.95 66.2589C104.992 66.3615 105.013 66.4713 105.013 66.5821V76.6833C105.006 76.9007 104.916 77.1072 104.76 77.2594C104.605 77.4116 104.397 77.4978 104.179 77.4999Z" fill="#FF5325"/>
<path d="M116.183 78.0304C115.96 78.0304 115.746 77.9417 115.588 77.7838C115.43 77.626 115.341 77.4119 115.341 77.1886V72.34C115.341 72.2272 115.363 72.1154 115.406 72.0113C115.449 71.9072 115.513 71.8129 115.594 71.7339L121.099 66.254V57.7857L115.88 52.6004C115.802 52.5218 115.74 52.4285 115.698 52.3259C115.657 52.2234 115.635 52.1135 115.636 52.0028V37.5158C115.636 37.2926 115.725 37.0785 115.882 36.9206C116.04 36.7628 116.254 36.6741 116.478 36.6741C116.701 36.6741 116.915 36.7628 117.073 36.9206C117.231 37.0785 117.319 37.2926 117.319 37.5158V51.6492L122.505 56.8345C122.584 56.9125 122.648 57.0055 122.691 57.1081C122.734 57.2106 122.757 57.3208 122.757 57.4322V66.6075C122.757 66.7189 122.734 66.8291 122.691 66.9317C122.648 67.0342 122.584 67.1272 122.505 67.2052L117.025 72.6851V77.1802C117.026 77.2914 117.005 77.4018 116.963 77.5049C116.921 77.608 116.86 77.7018 116.781 77.7809C116.703 77.8599 116.61 77.9227 116.507 77.9655C116.404 78.0083 116.294 78.0304 116.183 78.0304Z" fill="#FF5325"/>
<path d="M126.562 75.2357C126.339 75.2357 126.125 75.147 125.967 74.9892C125.809 74.8313 125.72 74.6172 125.72 74.394V53.2149L122.277 49.7721C122.198 49.6941 122.135 49.6012 122.091 49.4986C122.048 49.396 122.025 49.2858 122.025 49.1744V45.0245C122.025 44.9131 122.048 44.803 122.091 44.7004C122.135 44.5978 122.198 44.5048 122.277 44.4268L125.308 41.4385V30.3608C125.308 30.1376 125.397 29.9235 125.554 29.7656C125.712 29.6077 125.926 29.519 126.15 29.519C126.373 29.519 126.587 29.6077 126.745 29.7656C126.903 29.9235 126.991 30.1376 126.991 30.3608V41.7921C126.991 41.9035 126.968 42.0136 126.925 42.1162C126.882 42.2188 126.818 42.3118 126.739 42.3897L123.759 45.378V48.8293L127.202 52.2722C127.356 52.4335 127.443 52.6469 127.446 52.8698V74.3855C127.447 74.5004 127.425 74.6143 127.381 74.7203C127.336 74.8263 127.271 74.922 127.188 75.0017C127.105 75.0813 127.007 75.1432 126.899 75.1834C126.792 75.2237 126.677 75.2415 126.562 75.2357Z" fill="#FF5325"/>
<path d="M57.966 20.9412C57.966 21.6891 57.7441 22.4201 57.3285 23.0419C56.9128 23.6636 56.322 24.148 55.6309 24.4338C54.9398 24.7197 54.1794 24.794 53.446 24.6475C52.7126 24.501 52.0392 24.1402 51.5109 23.6108C50.9827 23.0813 50.6234 22.4071 50.4785 21.6734C50.3336 20.9397 50.4097 20.1794 50.697 19.489C50.9844 18.7985 51.4701 18.2088 52.0928 17.7945C52.7154 17.3802 53.447 17.16 54.1949 17.1616C54.6908 17.1616 55.1819 17.2595 55.64 17.4495C56.0981 17.6395 56.5142 17.9181 56.8645 18.2691C57.2148 18.6202 57.4924 19.0369 57.6814 19.4955C57.8704 19.954 57.9671 20.4452 57.966 20.9412Z" fill="#173953"/>
<path d="M77.6045 44.7046C77.6045 45.4525 77.3827 46.1836 76.967 46.8053C76.5513 47.427 75.9605 47.9115 75.2694 48.1973C74.5783 48.4831 73.8179 48.5574 73.0845 48.4109C72.3511 48.2644 71.6777 47.9036 71.1495 47.3742C70.6212 46.8448 70.2619 46.1705 70.117 45.4368C69.9721 44.7031 70.0482 43.9429 70.3355 43.2524C70.6229 42.5619 71.1087 41.9722 71.7313 41.5579C72.354 41.1436 73.0855 40.9234 73.8334 40.9251C74.8343 40.9273 75.7935 41.3265 76.5005 42.035C77.2075 42.7436 77.6046 43.7037 77.6045 44.7046Z" fill="#173953"/>
<path d="M83.5391 19.7796C83.5391 20.5271 83.3174 21.2578 82.9021 21.8794C82.4868 22.5009 81.8965 22.9854 81.2059 23.2714C80.5153 23.5575 79.7553 23.6323 79.0222 23.4865C78.289 23.3407 77.6156 22.9807 77.087 22.4521C76.5584 21.9235 76.1984 21.2501 76.0526 20.5169C75.9068 19.7838 75.9816 19.0238 76.2677 18.3332C76.5537 17.6426 77.0382 17.0523 77.6597 16.637C78.2813 16.2217 79.012 16 79.7595 16C80.7619 16 81.7233 16.3982 82.4321 17.107C83.1409 17.8158 83.5391 18.7772 83.5391 19.7796Z" fill="#173953"/>
<path d="M107.631 27.3303C107.636 28.08 107.418 28.8142 107.004 29.4396C106.591 30.065 106.001 30.5533 105.309 30.8425C104.618 31.1317 103.856 31.2087 103.12 31.0636C102.384 30.9186 101.709 30.5581 101.179 30.028C100.649 29.4979 100.288 28.8222 100.143 28.0867C99.998 27.3512 100.075 26.5891 100.364 25.8975C100.653 25.2058 101.142 24.6158 101.767 24.2024C102.392 23.7891 103.127 23.571 103.876 23.576C104.87 23.5826 105.821 23.9803 106.524 24.6829C107.226 25.3856 107.624 26.3367 107.631 27.3303Z" fill="#173953"/>
<path d="M120.257 36.3963C120.257 37.1438 120.036 37.8745 119.62 38.4961C119.205 39.1176 118.615 39.6021 117.924 39.8881C117.233 40.1742 116.473 40.249 115.74 40.1032C115.007 39.9574 114.334 39.5974 113.805 39.0688C113.277 38.5402 112.917 37.8668 112.771 37.1336C112.625 36.4005 112.7 35.6405 112.986 34.9499C113.272 34.2593 113.756 33.669 114.378 33.2537C114.999 32.8384 115.73 32.6167 116.478 32.6167C117.48 32.6167 118.441 33.0149 119.15 33.7237C119.859 34.4325 120.257 35.3939 120.257 36.3963Z" fill="#173953"/>
<path d="M129.887 28.3403C129.887 29.0897 129.664 29.822 129.247 30.4445C128.83 31.0669 128.237 31.5513 127.544 31.836C126.851 32.1208 126.089 32.1932 125.355 32.0439C124.62 31.8946 123.947 31.5305 123.42 30.9977C122.893 30.4649 122.537 29.7875 122.395 29.0516C122.254 28.3156 122.335 27.5544 122.628 26.8646C122.92 26.1747 123.411 25.5874 124.038 25.1772C124.665 24.767 125.4 24.5524 126.15 24.5608C127.145 24.5697 128.097 24.9721 128.797 25.6801C129.498 26.3882 129.889 27.3445 129.887 28.3403Z" fill="#173953"/>
<path d="M142.547 103.208V120.708H45.895C43.7383 120.704 41.6713 119.844 40.1471 118.319C38.6228 116.793 37.7657 114.725 37.7635 112.568V106.912C37.7635 106.592 37.7635 106.263 37.7635 105.952C37.7635 105.043 37.8224 104.134 37.8897 103.241C38.0132 101.573 38.2268 99.9121 38.5295 98.2665C38.6894 97.3574 38.883 96.4483 39.0935 95.556C39.7405 92.8487 40.625 90.2037 41.7366 87.6518C42.1323 86.7342 42.5784 85.8419 43.0161 84.9412C44.6891 81.6612 46.731 78.5828 49.1021 75.7659C49.8934 74.8316 50.7099 73.9224 51.577 73.0554C52.9993 71.5785 54.5208 70.2004 56.1309 68.9307C57.4553 67.8757 58.8274 66.8992 60.2472 66.0014C61.8105 65.0111 63.4262 64.1063 65.0874 63.2908C69.2196 61.2731 73.6188 59.8559 78.1517 59.082C79.044 58.9305 79.9531 58.8126 80.8622 58.7032C82.6596 58.5041 84.4665 58.4029 86.2748 58.4001H97.7903C99.0866 58.4001 100.316 58.4591 101.637 58.5769C102.546 58.6443 103.439 58.7453 104.331 58.88C114.55 60.3846 123.931 65.3888 130.872 73.0386C131.714 73.8804 132.438 74.8147 133.162 75.7491C134.846 77.9243 136.328 80.2488 137.589 82.6937C138.052 83.586 138.482 84.4783 138.877 85.4042C140.847 89.9432 142.042 94.7803 142.413 99.7144C142.48 100.607 142.522 101.516 142.539 102.425C142.547 102.703 142.547 102.964 142.547 103.208Z" fill="#FF5325"/>
<path d="M142.556 120.708C142.556 123.309 141.504 125.237 139.778 127.636L139.542 127.964L130.577 136.937C126.239 141.254 120.367 143.675 114.247 143.672C110.471 143.791 106.754 142.71 103.632 140.582C100.863 138.688 98.5815 136.188 96.1067 133.671L95.6437 133.208H86.3169C83.009 133.206 79.8372 131.891 77.4982 129.552C75.1591 127.213 73.8441 124.041 73.8418 120.733L142.556 120.708Z" fill="#FF5325"/>
<path d="M142.556 120.708C142.556 123.309 141.504 125.237 139.778 127.636L139.542 127.964L130.577 136.937C126.239 141.254 120.367 143.675 114.247 143.672C110.471 143.791 106.754 142.71 103.632 140.582C100.863 138.688 98.5815 136.188 96.1067 133.671L95.6437 133.208H86.3169C83.009 133.206 79.8372 131.891 77.4982 129.552C75.1591 127.213 73.8441 124.041 73.8418 120.733L142.556 120.708Z" fill="#E3390F"/>
<path d="M134.323 133.183L130.569 136.937C126.235 141.255 120.365 143.677 114.247 143.672C110.471 143.791 106.754 142.71 103.632 140.582C100.863 138.688 98.5816 136.188 96.1067 133.671L95.6438 133.208L134.323 133.183Z" fill="#173953"/>
<path d="M53.6898 112.299H50.9793C50.9771 110.624 50.31 109.018 49.1247 107.834C47.9394 106.65 46.3327 105.985 44.6576 105.985H37.7635C37.7635 105.076 37.814 104.167 37.8813 103.275H44.6155C45.8041 103.271 46.982 103.501 48.0816 103.952C49.1813 104.403 50.1812 105.067 51.024 105.905C51.8669 106.743 52.5361 107.739 52.9936 108.836C53.451 109.934 53.6876 111.11 53.6898 112.299Z" fill="#173953"/>
<path d="M66.2743 82.719C66.2801 84.6921 65.9027 86.6475 65.1632 88.4767C64.7911 89.4271 64.3199 90.3356 63.7574 91.1872C62.3483 93.3707 60.414 95.1659 58.1317 96.4085C55.8494 97.6512 53.2918 98.3016 50.6931 98.3002H38.5379C38.6979 97.3911 38.8915 96.482 39.1019 95.5897H50.6931C54.1053 95.5852 57.3764 94.2278 59.7892 91.815C62.2019 89.4023 63.5594 86.1312 63.5638 82.719H66.2743Z" fill="#173953"/>
<path d="M142.547 110.943V113.646H124.281C121.237 113.586 118.338 112.337 116.204 110.165C114.071 107.994 112.872 105.073 112.866 102.029H115.577C115.579 104.388 116.516 106.651 118.181 108.321C119.847 109.992 122.107 110.935 124.466 110.943H142.547Z" fill="#173953"/>
<path d="M54.54 84.9749V87.6854H41.745C42.1407 86.7678 42.5868 85.8756 43.0245 84.9749H54.54Z" fill="#173953"/>
<path d="M133.162 75.7659H115.922C112.642 75.7704 109.497 77.0755 107.177 79.3951C104.858 81.7148 103.552 84.8596 103.548 88.14H100.837C100.833 85.5771 101.485 83.0558 102.731 80.8166C103.207 79.939 103.771 79.1126 104.415 78.3502C105.823 76.6828 107.579 75.3435 109.56 74.426C111.54 73.5084 113.697 73.0349 115.88 73.0386H130.83C131.68 73.9309 132.438 74.84 133.162 75.7659Z" fill="#173953"/>
<path d="M138.877 85.4295H119.23V82.719H137.589C138.052 83.6113 138.482 84.5036 138.877 85.4295Z" fill="#173953"/>
<path d="M80.8706 100.674V103.385C79.002 103.385 77.2099 104.127 75.8886 105.448C74.5673 106.77 73.825 108.562 73.825 110.43V120.7H71.1145V110.43C71.1061 110.332 71.1061 110.234 71.1145 110.136C71.1309 109.226 71.2813 108.324 71.5606 107.459C72.196 105.489 73.4393 103.771 75.1121 102.552C76.7848 101.333 78.8009 100.676 80.8706 100.674Z" fill="#173953"/>
<path d="M89.1537 74.0825V76.7761C86.2394 76.7694 83.4466 75.6076 81.3875 73.5453C79.3283 71.483 78.1708 68.6885 78.1686 65.7742V59.1073C79.0608 58.9558 79.97 58.8379 80.8791 58.7285V65.7742C80.8769 66.863 81.0891 67.9416 81.5038 68.9484C81.9184 69.9553 82.5273 70.8705 83.2957 71.642C84.064 72.4135 84.9768 73.0261 85.982 73.4449C86.9871 73.8636 88.0648 74.0802 89.1537 74.0825Z" fill="#173953"/>
<path d="M104.331 58.9306C104.067 61.6516 102.801 64.1773 100.779 66.0164C98.756 67.8555 96.1215 68.8763 93.3878 68.8803V66.1446C95.4619 66.1419 97.4599 65.3628 98.9883 63.9606C100.517 62.5585 101.465 60.6348 101.646 58.5686C102.58 58.6696 103.422 58.7706 104.331 58.9306Z" fill="#173953"/>
<path d="M76.7964 85.0844H74.0859C74.0815 82.6129 73.0971 80.244 71.3487 78.4972C69.6003 76.7504 67.2306 75.7682 64.7591 75.7659H49.1021C49.8934 74.8316 50.7015 73.9224 51.5685 73.0554H64.7591C67.9488 73.0599 71.0067 74.3284 73.2629 76.583C75.5191 78.8377 76.7898 81.8947 76.7964 85.0844Z" fill="#173953"/>
<path d="M105.105 81.1027H104.861C103.691 81.1061 102.531 80.8787 101.449 80.4337C100.367 79.9887 99.3828 79.3347 98.5533 78.5091C97.7239 77.6836 97.0652 76.7027 96.6151 75.6225C96.165 74.5422 95.9322 73.3839 95.9299 72.2136H98.6405C98.6427 73.8531 99.2955 75.4246 100.456 76.5831C101.616 77.7415 103.188 78.3922 104.827 78.3922H105.105V81.1027Z" fill="#173953"/>
<path d="M72.6129 110.278C70.5797 110.276 68.6305 109.468 67.1929 108.03C65.7552 106.592 64.9466 104.643 64.9443 102.61V97.8455H67.6548V102.601C67.6548 103.916 68.1772 105.178 69.107 106.107C70.0368 107.037 71.2979 107.56 72.6129 107.56V110.278Z" fill="#173953"/>
<path d="M101.351 133.183H98.6405V118.579C98.6383 117.635 98.2624 116.73 97.5951 116.063C96.9278 115.396 96.0235 115.02 95.0798 115.018C93.4172 115.016 91.8234 114.354 90.6478 113.179C89.4722 112.003 88.8108 110.409 88.8086 108.747V103.385H91.5191V108.747C91.5191 109.691 91.8942 110.597 92.562 111.264C93.2298 111.932 94.1354 112.307 95.0798 112.307C96.7423 112.31 98.3361 112.971 99.5117 114.147C100.687 115.322 101.349 116.916 101.351 118.579V133.183Z" fill="#173953"/>
<path d="M99.9958 126.424V123.747C101.673 123.745 103.281 123.077 104.466 121.89C105.652 120.703 106.317 119.094 106.317 117.417V115.918H109.028V117.383C109.026 119.779 108.074 122.076 106.381 123.77C104.687 125.465 102.391 126.419 99.9958 126.424Z" fill="#173953"/>
<path d="M96.999 101.129H94.2885C94.2885 98.4935 93.2423 95.9662 91.3797 94.1021C89.5172 92.2379 86.9907 91.1896 84.3556 91.1873H63.0166V88.4768H84.3556C86.0173 88.4746 87.6631 88.8004 89.1986 89.4355C90.7341 90.0707 92.1292 91.0026 93.3038 92.178C94.4784 93.3534 95.4094 94.7491 96.0435 96.285C96.6776 97.821 97.0023 99.467 96.999 101.129Z" fill="#173953"/>
<path d="M103.615 95.699H93.3793V92.9885H103.615C105.53 92.9863 107.366 92.2247 108.72 90.8707C110.074 89.5167 110.835 87.6809 110.838 85.7661H113.523C113.519 88.3948 112.474 90.9149 110.618 92.776C108.761 94.6371 106.244 95.6879 103.615 95.699Z" fill="#173953"/>
<path d="M133.726 123.376C131.212 123.372 128.802 122.371 127.025 120.592C125.248 118.814 124.249 116.404 124.247 113.89V112.307H126.991V113.89C127.007 115.678 127.727 117.388 128.996 118.649C130.264 119.91 131.979 120.619 133.768 120.624L133.726 123.376Z" fill="#173953"/>
<path d="M123.826 93.5609H121.453V90.8504H123.826C125.616 90.8482 127.332 90.1394 128.601 88.8781C129.87 87.6169 130.589 85.9054 130.603 84.1162H133.313C133.298 86.6236 132.292 89.0232 130.515 90.7923C128.738 92.5614 126.334 93.5565 123.826 93.5609Z" fill="#173953"/>
<path d="M142.539 102.475H128.793V99.7649H142.413C142.48 100.657 142.522 101.566 142.539 102.475Z" fill="#173953"/>
<path d="M73.5304 70.1765H70.8199C70.8199 69.0602 70.3765 67.9897 69.5872 67.2004C68.7979 66.411 67.7273 65.9676 66.6111 65.9676H60.2136C61.7768 64.9774 63.3926 64.0725 65.0538 63.2571H66.6111C67.5203 63.2549 68.4211 63.4323 69.2616 63.7793C70.1021 64.1262 70.8658 64.6358 71.5087 65.2788C72.1517 65.9218 72.6613 66.6854 73.0082 67.5259C73.3552 68.3664 73.5326 69.2672 73.5304 70.1765Z" fill="#173953"/>
<path d="M45.735 120.7V128.579C45.7349 128.76 45.7713 128.939 45.8422 129.106C45.913 129.273 46.0167 129.424 46.1472 129.549C46.2777 129.675 46.4322 129.773 46.6014 129.838C46.7707 129.903 46.9513 129.932 47.1324 129.926C47.4778 129.91 47.8042 129.763 48.044 129.514C48.2837 129.265 48.4185 128.933 48.4203 128.587V120.708L45.735 120.7Z" fill="#173953"/>
<path d="M50.9288 120.7V128.579C50.9298 128.76 50.9671 128.938 51.0383 129.105C51.1095 129.271 51.2133 129.421 51.3435 129.547C51.4737 129.672 51.6278 129.77 51.7965 129.835C51.9653 129.901 52.1454 129.931 52.3261 129.926C52.6723 129.912 52.9999 129.766 53.2401 129.516C53.4802 129.267 53.6143 128.934 53.6141 128.587V120.708L50.9288 120.7Z" fill="#173953"/>
<path d="M56.1309 120.7V128.579C56.1308 128.76 56.1672 128.939 56.238 129.106C56.3089 129.273 56.4126 129.424 56.5431 129.549C56.6735 129.675 56.828 129.773 56.9973 129.838C57.1666 129.903 57.3472 129.932 57.5282 129.926C57.8737 129.908 58.1992 129.759 58.4374 129.508C58.6756 129.257 58.8082 128.925 58.8077 128.579V120.7H56.1309Z" fill="#173953"/>
<path d="M61.3331 120.7V128.579C61.3341 128.76 61.3714 128.938 61.4426 129.105C61.5138 129.271 61.6176 129.421 61.7478 129.547C61.878 129.672 62.0321 129.77 62.2008 129.835C62.3696 129.901 62.5497 129.931 62.7304 129.926C63.0766 129.912 63.4042 129.766 63.6444 129.516C63.8845 129.267 64.0186 128.934 64.0184 128.587V120.708L61.3331 120.7Z" fill="#173953"/>
<path d="M66.5269 120.7V128.579C66.5268 128.76 66.5632 128.939 66.634 129.106C66.7048 129.273 66.8086 129.424 66.939 129.549C67.0695 129.675 67.224 129.773 67.3933 129.838C67.5626 129.903 67.7432 129.932 67.9242 129.926C68.2697 129.91 68.5961 129.763 68.8358 129.514C69.0756 129.265 69.2103 128.933 69.2121 128.587V120.708L66.5269 120.7Z" fill="#173953"/>
</svg>
