<svg width="128" height="155" viewBox="0 0 128 155" fill="none" xmlns="http://www.w3.org/2000/svg">
<path d="M20.4149 71.7618C20.1444 71.7618 19.8851 71.6544 19.6938 71.4632C19.5026 71.2719 19.3951 71.0125 19.3951 70.7421V54.4256C19.3944 54.2914 19.4201 54.1583 19.4708 54.0341C19.5216 53.9099 19.5964 53.7968 19.6909 53.7016L28.206 45.1864V36.1818L19.3441 27.3199C19.2478 27.2254 19.1711 27.1128 19.1186 26.9885C19.0661 26.8642 19.0388 26.7308 19.0382 26.5959V7.41382C19.0382 7.14336 19.1456 6.88397 19.3369 6.69273C19.5281 6.50148 19.7875 6.39404 20.058 6.39404C20.3284 6.39404 20.5878 6.50148 20.7791 6.69273C20.9703 6.88397 21.0778 7.14336 21.0778 7.41382V26.1675L29.9396 35.0294C30.036 35.1239 30.1127 35.2365 30.1652 35.3608C30.2177 35.4851 30.245 35.6185 30.2456 35.7535V45.5535C30.245 45.6885 30.2177 45.8219 30.1652 45.9462C30.1127 46.0705 30.036 46.1831 29.9396 46.2776L21.4347 54.7927V70.7319C21.436 70.8666 21.4107 71.0003 21.36 71.1252C21.3094 71.2502 21.2345 71.3638 21.1396 71.4595C21.0448 71.5553 20.9319 71.6314 20.8075 71.6832C20.6831 71.7351 20.5497 71.7618 20.4149 71.7618Z" fill="#FF5325"/>
<path d="M39.7907 72.9447C39.5203 72.9447 39.2609 72.8373 39.0696 72.646C38.8784 72.4548 38.7709 72.1954 38.7709 71.9249V53.365C38.7747 53.095 38.8803 52.8363 39.0667 52.6409L42.8093 48.9493V37.334C42.8093 37.0636 42.9167 36.8042 43.1079 36.613C43.2992 36.4217 43.5586 36.3143 43.829 36.3143C44.0995 36.3143 44.3589 36.4217 44.5501 36.613C44.7414 36.8042 44.8488 37.0636 44.8488 37.334V49.3164C44.8509 49.4524 44.8259 49.5873 44.7751 49.7134C44.7243 49.8395 44.6488 49.9542 44.5531 50.0507L40.8003 53.7933V71.9147C40.8016 72.0487 40.7766 72.1815 40.7266 72.3058C40.6766 72.43 40.6026 72.5432 40.5088 72.6388C40.4151 72.7345 40.3034 72.8107 40.1802 72.8632C40.057 72.9157 39.9246 72.9434 39.7907 72.9447Z" fill="#FF5325"/>
<path d="M60.2475 72.9447C59.977 72.9447 59.7176 72.8373 59.5264 72.646C59.3351 72.4548 59.2277 72.1954 59.2277 71.9249V29.7877L50.2944 20.8545C50.1981 20.76 50.1214 20.6474 50.0689 20.5231C50.0164 20.3988 49.9891 20.2653 49.9885 20.1304V6.11866C49.9885 5.84819 50.0959 5.58881 50.2872 5.39756C50.4784 5.20632 50.7378 5.09888 51.0083 5.09888C51.2787 5.09888 51.5381 5.20632 51.7294 5.39756C51.9206 5.58881 52.0281 5.84819 52.0281 6.11866V19.7123L60.9613 28.6354C61.1477 28.8308 61.2533 29.0894 61.257 29.3594V71.9147C61.2584 72.0487 61.2333 72.1815 61.1833 72.3058C61.1333 72.43 61.0593 72.5432 60.9656 72.6388C60.8718 72.7345 60.7602 72.8107 60.6369 72.8632C60.5137 72.9157 60.3814 72.9434 60.2475 72.9447Z" fill="#FF5325"/>
<path d="M80.6022 74.505C80.3318 74.505 80.0724 74.3976 79.8811 74.2063C79.6899 74.0151 79.5825 73.7557 79.5825 73.4852V61.7068L72.7194 54.8437C72.623 54.7492 72.5463 54.6366 72.4938 54.5123C72.4413 54.388 72.414 54.2546 72.4134 54.1196V34.4277C72.414 34.2928 72.4413 34.1593 72.4938 34.035C72.5463 33.9107 72.623 33.7981 72.7194 33.7037L79.2051 27.2077V14.9703C79.2051 14.6999 79.3126 14.4405 79.5038 14.2492C79.6951 14.058 79.9545 13.9506 80.2249 13.9506C80.4954 13.9506 80.7548 14.058 80.946 14.2492C81.1373 14.4405 81.2447 14.6999 81.2447 14.9703V27.636C81.2441 27.7709 81.2168 27.9044 81.1643 28.0287C81.1118 28.153 81.0351 28.2656 80.9388 28.36L74.453 34.856V53.6913L81.3161 60.5544C81.4106 60.6497 81.4854 60.7627 81.5361 60.887C81.5869 61.0112 81.6126 61.1443 81.6118 61.2785V73.5158C81.6039 73.7792 81.4944 74.0293 81.3062 74.2137C81.118 74.3981 80.8657 74.5025 80.6022 74.505Z" fill="#FF5325"/>
<path d="M95.1443 75.1475C94.8738 75.1475 94.6144 75.0401 94.4232 74.8488C94.2319 74.6576 94.1245 74.3982 94.1245 74.1277V68.2538C94.1237 68.1171 94.1504 67.9817 94.2029 67.8556C94.2555 67.7295 94.3328 67.6152 94.4304 67.5195L101.1 60.8808V50.6218L94.7772 44.34C94.6826 44.2447 94.6079 44.1317 94.5571 44.0074C94.5064 43.8832 94.4806 43.7502 94.4814 43.6159V26.0656C94.4814 25.7951 94.5889 25.5357 94.7801 25.3445C94.9714 25.1532 95.2307 25.0458 95.5012 25.0458C95.7717 25.0458 96.031 25.1532 96.2223 25.3445C96.4135 25.5357 96.521 25.7951 96.521 26.0656V43.1876L102.803 49.4695C102.899 49.5639 102.976 49.6765 103.028 49.8008C103.081 49.9251 103.108 50.0586 103.109 50.1935V61.3091C103.108 61.444 103.081 61.5775 103.028 61.7018C102.976 61.8261 102.899 61.9387 102.803 62.0331L96.1641 68.6719V74.1175C96.1654 74.2523 96.14 74.386 96.0894 74.5109C96.0387 74.6358 95.9638 74.7494 95.869 74.8452C95.7742 74.941 95.6613 75.017 95.5369 75.0689C95.4125 75.1208 95.2791 75.1475 95.1443 75.1475Z" fill="#FF5325"/>
<path d="M107.718 71.7618C107.448 71.7618 107.188 71.6544 106.997 71.4631C106.806 71.2719 106.698 71.0125 106.698 70.742V45.0844L102.527 40.9135C102.431 40.819 102.354 40.7064 102.302 40.5821C102.249 40.4578 102.222 40.3244 102.222 40.1894V35.1619C102.222 35.027 102.249 34.8935 102.302 34.7693C102.354 34.645 102.431 34.5323 102.527 34.4379L106.199 30.8177V17.3974C106.199 17.1269 106.306 16.8676 106.497 16.6763C106.689 16.4851 106.948 16.3776 107.218 16.3776C107.489 16.3776 107.748 16.4851 107.94 16.6763C108.131 16.8676 108.238 17.1269 108.238 17.3974V31.246C108.238 31.3809 108.21 31.5144 108.158 31.6387C108.105 31.763 108.029 31.8756 107.932 31.97L104.322 35.5903V39.7713L108.493 43.9422C108.68 44.1377 108.785 44.3963 108.789 44.6663V70.7318C108.79 70.871 108.764 71.009 108.71 71.1374C108.656 71.2658 108.576 71.3818 108.476 71.4782C108.376 71.5747 108.257 71.6497 108.127 71.6984C107.996 71.7472 107.857 71.7688 107.718 71.7618Z" fill="#FF5325"/>
<path d="M24.6164 5.9861C24.6164 6.89214 24.3476 7.77781 23.844 8.53101C23.3404 9.28421 22.6247 9.87108 21.7874 10.2173C20.9502 10.5636 20.029 10.6537 19.1405 10.4762C18.2521 10.2987 17.4362 9.86156 16.7963 9.22019C16.1563 8.57881 15.721 7.76199 15.5455 6.87312C15.37 5.98425 15.4621 5.06328 15.8102 4.22679C16.1584 3.39031 16.7468 2.6759 17.5012 2.174C18.2555 1.67211 19.1417 1.40528 20.0478 1.4073C20.6486 1.4073 21.2435 1.52581 21.7985 1.75604C22.3534 1.98627 22.8575 2.3237 23.2819 2.74902C23.7062 3.17433 24.0426 3.67918 24.2715 4.23464C24.5005 4.79011 24.6177 5.38529 24.6164 5.9861Z" fill="#173953"/>
<path d="M48.4078 34.7744C48.4078 35.6805 48.139 36.5661 47.6355 37.3193C47.1319 38.0725 46.4162 38.6594 45.5789 39.0057C44.7416 39.3519 43.8205 39.442 42.932 39.2645C42.0435 39.087 41.2277 38.6499 40.5877 38.0085C39.9478 37.3671 39.5125 36.5503 39.337 35.6614C39.1615 34.7726 39.2536 33.8516 39.6017 33.0151C39.9498 32.1786 40.5383 31.4642 41.2926 30.9623C42.0469 30.4604 42.9332 30.1936 43.8392 30.1956C45.0518 30.1983 46.2139 30.6819 47.0703 31.5403C47.9268 32.3987 48.4078 33.5618 48.4078 34.7744Z" fill="#173953"/>
<path d="M55.5973 4.5788C55.5973 5.48441 55.3287 6.36967 54.8256 7.12265C54.3225 7.87563 53.6074 8.46251 52.7707 8.80907C51.934 9.15563 51.0134 9.24631 50.1252 9.06963C49.237 8.89296 48.4211 8.45687 47.7808 7.81651C47.1404 7.17615 46.7043 6.36029 46.5276 5.47209C46.351 4.58388 46.4416 3.66324 46.7882 2.82657C47.1348 1.98991 47.7216 1.27479 48.4746 0.771668C49.2276 0.268542 50.1129 0 51.0185 0C52.2328 0 53.3975 0.482408 54.2562 1.3411C55.1149 2.19979 55.5973 3.36443 55.5973 4.5788Z" fill="#173953"/>
<path d="M84.7833 13.7262C84.7894 14.6343 84.5252 15.5238 84.0244 16.2815C83.5236 17.0391 82.8088 17.6307 81.9709 17.9811C81.133 18.3314 80.2099 18.4247 79.3188 18.249C78.4278 18.0733 77.6091 17.6366 76.9669 16.9944C76.3247 16.3522 75.888 15.5335 75.7123 14.6425C75.5366 13.7514 75.6299 12.8283 75.9802 11.9904C76.3306 11.1524 76.9222 10.4377 77.6798 9.93687C78.4375 9.43608 79.3269 9.17191 80.2351 9.17796C81.4389 9.18597 82.5911 9.66773 83.4423 10.519C84.2936 11.3702 84.7753 12.5224 84.7833 13.7262Z" fill="#173953"/>
<path d="M100.08 24.7092C100.08 25.6148 99.8115 26.5001 99.3083 27.2531C98.8052 28.0061 98.0901 28.5929 97.2534 28.9395C96.4168 29.2861 95.4961 29.3767 94.6079 29.2001C93.7197 29.0234 92.9039 28.5873 92.2635 27.9469C91.6231 27.3066 91.1871 26.4907 91.0104 25.6025C90.8337 24.7143 90.9244 23.7937 91.2709 22.957C91.6175 22.1203 92.2044 21.4052 92.9573 20.9021C93.7103 20.399 94.5956 20.1304 95.5012 20.1304C96.7156 20.1304 97.8802 20.6128 98.7389 21.4715C99.5976 22.3302 100.08 23.4949 100.08 24.7092Z" fill="#173953"/>
<path d="M111.746 14.9499C111.746 15.8577 111.476 16.745 110.971 17.499C110.465 18.2531 109.747 18.8399 108.908 19.1849C108.068 19.5299 107.145 19.6175 106.255 19.4367C105.366 19.2558 104.55 18.8146 103.912 18.1692C103.273 17.5237 102.841 16.7031 102.671 15.8116C102.5 14.92 102.598 13.9978 102.952 13.1621C103.306 12.3264 103.901 11.6148 104.661 11.1179C105.421 10.621 106.311 10.361 107.218 10.3711C108.425 10.3819 109.578 10.8694 110.426 11.7272C111.274 12.585 111.749 13.7435 111.746 14.9499Z" fill="#173953"/>
<path d="M127.084 105.649V126.85H9.99278C7.38001 126.845 4.87595 125.804 3.02939 123.955C1.18283 122.107 0.144417 119.602 0.141724 116.989L0.141724 110.136C0.141724 109.749 0.141724 109.351 0.141724 108.973C0.141724 107.872 0.213108 106.771 0.29469 105.69C0.444277 103.668 0.702998 101.656 1.06972 99.6629C1.26348 98.5616 1.49803 97.4602 1.75297 96.3792C2.53685 93.0994 3.60837 89.8951 4.95508 86.8035C5.43437 85.692 5.97486 84.611 6.50514 83.5198C8.53186 79.5462 11.0055 75.8168 13.8781 72.4042C14.8367 71.2723 15.8259 70.1709 16.8763 69.1206C18.5994 67.3313 20.4427 65.6618 22.3933 64.1236C23.9977 62.8455 25.66 61.6626 27.38 60.5748C29.2738 59.3752 31.2313 58.279 33.2437 57.2911C38.2498 54.8468 43.5792 53.1298 49.0707 52.1922C50.1517 52.0087 51.253 51.8659 52.3544 51.7333C54.5318 51.4921 56.7208 51.3696 58.9116 51.3662H72.8621C74.4326 51.3662 75.9214 51.4376 77.5225 51.5804C78.6239 51.6619 79.7048 51.7843 80.7858 51.9475C93.1662 53.7704 104.53 59.8327 112.939 69.1002C113.959 70.1199 114.836 71.2519 115.713 72.3838C117.754 75.019 119.549 77.8351 121.077 80.797C121.638 81.878 122.158 82.9589 122.638 84.0807C125.024 89.5795 126.472 95.4394 126.921 101.417C127.002 102.498 127.053 103.599 127.074 104.701C127.084 105.037 127.084 105.353 127.084 105.649Z" fill="#FF5325"/>
<path d="M127.094 126.85C127.094 130.001 125.819 132.337 123.729 135.243L123.443 135.641L112.582 146.512C107.327 151.741 100.213 154.675 92.7988 154.67C88.2242 154.815 83.7216 153.504 79.9394 150.927C76.5843 148.633 73.8207 145.604 70.8226 142.555L70.2617 141.994H58.9625C54.9551 141.991 51.1126 140.398 48.2789 137.564C45.4453 134.731 43.8521 130.888 43.8494 126.881L127.094 126.85Z" fill="#FF5325"/>
<path d="M127.094 126.85C127.094 130.001 125.819 132.337 123.729 135.243L123.443 135.641L112.582 146.512C107.327 151.741 100.213 154.675 92.7988 154.67C88.2242 154.815 83.7216 153.504 79.9394 150.927C76.5843 148.633 73.8207 145.604 70.8226 142.555L70.2617 141.994H58.9625C54.9551 141.991 51.1126 140.398 48.2789 137.564C45.4453 134.731 43.8521 130.888 43.8494 126.881L127.094 126.85Z" fill="#E3390F"/>
<path d="M117.121 141.963L112.572 146.512C107.322 151.742 100.21 154.676 92.7988 154.67C88.2242 154.815 83.7216 153.504 79.9394 150.927C76.5843 148.633 73.8207 145.604 70.8226 142.555L70.2617 141.994L117.121 141.963Z" fill="#173953"/>
<path d="M19.4359 116.663H16.1522C16.1495 114.633 15.3415 112.688 13.9055 111.254C12.4695 109.82 10.5231 109.014 8.49371 109.014H0.141724C0.141724 107.913 0.20291 106.812 0.284493 105.731H8.44272C9.88273 105.725 11.3097 106.004 12.6418 106.551C13.974 107.097 15.1853 107.901 16.2064 108.917C17.2275 109.932 18.0383 111.139 18.5925 112.468C19.1466 113.797 19.4333 115.223 19.4359 116.663Z" fill="#173953"/>
<path d="M34.6816 80.8276C34.6885 83.2179 34.2314 85.5868 33.3355 87.8029C32.8847 88.9543 32.3139 90.0549 31.6325 91.0866C29.9253 93.7318 27.5821 95.9066 24.8171 97.412C22.0521 98.9174 18.9538 99.7054 15.8055 99.7037H1.07993C1.27368 98.6024 1.50823 97.501 1.76318 96.42H15.8055C19.9392 96.4147 23.9021 94.7702 26.8251 91.8472C29.748 88.9242 31.3925 84.9613 31.3979 80.8276H34.6816Z" fill="#173953"/>
<path d="M127.084 115.021V118.294H104.955C101.267 118.222 97.7549 116.709 95.1701 114.078C92.5852 111.448 91.1337 107.909 91.1264 104.221H94.41C94.4127 107.079 95.5472 109.82 97.5653 111.844C99.5834 113.868 102.321 115.01 105.179 115.021H127.084Z" fill="#173953"/>
<path d="M20.4659 83.5607V86.8444H4.9653C5.4446 85.7328 5.98508 84.6518 6.51536 83.5607H20.4659Z" fill="#173953"/>
<path d="M115.713 72.4043H94.8281C90.854 72.4097 87.0442 73.9908 84.234 76.801C81.4239 79.6111 79.8428 83.4209 79.8374 87.3951H76.5537C76.5481 84.2903 77.338 81.2358 78.8482 78.523C79.4241 77.4599 80.1075 76.4586 80.8878 75.535C82.5941 73.5151 84.7213 71.8925 87.1205 70.781C89.5198 69.6695 92.133 69.0958 94.7772 69.1002H112.888C113.918 70.1812 114.836 71.2826 115.713 72.4043Z" fill="#173953"/>
<path d="M122.638 84.1113H98.8359V80.8276H121.077C121.638 81.9086 122.158 82.9896 122.638 84.1113Z" fill="#173953"/>
<path d="M52.3646 102.579V105.863C50.1008 105.863 47.9298 106.762 46.329 108.363C44.7283 109.964 43.829 112.135 43.829 114.399V126.84H40.5453V114.399C40.5352 114.28 40.5352 114.161 40.5453 114.042C40.5653 112.94 40.7474 111.847 41.0858 110.799C41.8555 108.412 43.3618 106.331 45.3883 104.855C47.4147 103.378 49.8571 102.581 52.3646 102.579Z" fill="#173953"/>
<path d="M62.3992 70.3647V73.628C58.8686 73.6199 55.4853 72.2124 52.9907 69.714C50.4961 67.2156 49.0938 63.8301 49.0911 60.2995V52.2229C50.1721 52.0393 51.2734 51.8965 52.3748 51.764V60.2995C52.3721 61.6186 52.6293 62.9253 53.1316 64.1451C53.6339 65.3648 54.3716 66.4736 55.3024 67.4083C56.2333 68.3429 57.3391 69.085 58.5568 69.5923C59.7744 70.0996 61.0801 70.3621 62.3992 70.3647Z" fill="#173953"/>
<path d="M80.7858 52.0087C80.4668 55.3051 78.9329 58.365 76.4825 60.5929C74.0321 62.8209 70.8405 64.0576 67.5287 64.0625V60.7482C70.0414 60.745 72.4619 59.8012 74.3135 58.1025C76.1651 56.4038 77.3135 54.0734 77.5327 51.5702C78.6647 51.6926 79.6844 51.8149 80.7858 52.0087Z" fill="#173953"/>
<path d="M47.4288 83.6932H44.1452C44.1398 80.6991 42.9473 77.8293 40.8291 75.7131C38.711 73.5969 35.8401 72.407 32.846 72.4043H13.8781C14.8367 71.2723 15.8157 70.171 16.8661 69.1206H32.846C36.7102 69.126 40.4147 70.6627 43.1481 73.3942C45.8814 76.1256 47.4208 79.8291 47.4288 83.6932Z" fill="#173953"/>
<path d="M81.724 78.8697H81.4283C80.0106 78.8737 78.6059 78.5983 77.2947 78.0592C75.9835 77.52 74.7914 76.7277 73.7866 75.7276C72.7817 74.7275 71.9838 73.5392 71.4385 72.2305C70.8932 70.9219 70.6111 69.5186 70.6084 68.1008H73.8921C73.8948 70.087 74.6857 71.9908 76.0911 73.3943C77.4964 74.7977 79.4014 75.586 81.3875 75.586H81.724V78.8697Z" fill="#173953"/>
<path d="M42.3606 114.215C39.8975 114.212 37.536 113.233 35.7944 111.491C34.0527 109.749 33.0731 107.388 33.0704 104.925V99.153H36.3541V104.915C36.3541 106.508 36.9869 108.036 38.1133 109.162C39.2398 110.288 40.7675 110.921 42.3606 110.921V114.215Z" fill="#173953"/>
<path d="M77.1758 141.963H73.8921V124.27C73.8894 123.127 73.4341 122.031 72.6257 121.223C71.8173 120.415 70.7217 119.959 69.5784 119.956C67.5643 119.954 65.6335 119.153 64.2093 117.728C62.7851 116.304 61.9838 114.373 61.9811 112.359V105.863H65.2648V112.359C65.2648 113.503 65.7192 114.6 66.5282 115.409C67.3372 116.218 68.4344 116.673 69.5784 116.673C71.5925 116.676 73.5234 117.477 74.9476 118.901C76.3718 120.325 77.1731 122.256 77.1758 124.27V141.963Z" fill="#173953"/>
<path d="M75.5339 133.775V130.532C77.566 130.529 79.514 129.72 80.95 128.282C82.3859 126.844 83.1925 124.895 83.1925 122.863V121.048H86.4762V122.822C86.4735 125.724 85.3201 128.507 83.2689 130.56C81.2177 132.613 78.4361 133.769 75.5339 133.775Z" fill="#173953"/>
<path d="M71.9035 103.13H68.6198C68.6198 99.9378 67.3524 96.876 65.096 94.6177C62.8396 92.3594 59.7788 91.0893 56.5865 91.0866H30.7351V87.8029H56.5865C58.5995 87.8002 60.5934 88.1949 62.4536 88.9644C64.3138 89.7338 66.0039 90.8629 67.4269 92.2868C68.8499 93.7108 69.9778 95.4016 70.746 97.2623C71.5142 99.123 71.9076 101.117 71.9035 103.13Z" fill="#173953"/>
<path d="M79.919 96.5526H67.5185V93.2689H79.919C82.2387 93.2662 84.4627 92.3435 86.103 90.7032C87.7433 89.0629 88.666 86.839 88.6687 84.5192H91.9218C91.9164 87.7037 90.6511 90.7567 88.4022 93.0114C86.1533 95.2661 83.1035 96.5391 79.919 96.5526Z" fill="#173953"/>
<path d="M116.396 130.083C113.351 130.078 110.432 128.865 108.279 126.71C106.127 124.556 104.916 121.636 104.914 118.59V116.673H108.238V118.59C108.257 120.757 109.13 122.829 110.666 124.356C112.203 125.883 114.281 126.743 116.447 126.748L116.396 130.083Z" fill="#173953"/>
<path d="M104.404 93.9624H101.528V90.6787H104.404C106.571 90.676 108.65 89.8173 110.188 88.2893C111.725 86.7614 112.597 84.688 112.613 82.5204H115.897C115.878 85.558 114.659 88.4651 112.507 90.6083C110.354 92.7515 107.442 93.957 104.404 93.9624Z" fill="#173953"/>
<path d="M127.074 104.762H110.421V101.478H126.921C127.002 102.559 127.053 103.66 127.074 104.762Z" fill="#173953"/>
<path d="M43.4721 65.6329H40.1884C40.1884 64.2806 39.6512 62.9837 38.695 62.0274C37.7388 61.0712 36.4419 60.534 35.0895 60.534H27.3392C29.2331 59.3344 31.1905 58.2382 33.203 57.2503H35.0895C36.1911 57.2476 37.2824 57.4626 38.3006 57.8829C39.3188 58.3032 40.244 58.9206 41.0229 59.6995C41.8019 60.4785 42.4192 61.4036 42.8395 62.4219C43.2598 63.4401 43.4748 64.5313 43.4721 65.6329Z" fill="#173953"/>
<path d="M9.79901 126.84V136.385C9.79886 136.605 9.843 136.822 9.9288 137.024C10.0146 137.226 10.1403 137.409 10.2983 137.561C10.4564 137.713 10.6436 137.832 10.8486 137.911C11.0537 137.989 11.2725 138.025 11.4918 138.017C11.9103 137.998 12.3057 137.82 12.5962 137.518C12.8867 137.216 13.0499 136.814 13.0521 136.395V126.85L9.79901 126.84Z" fill="#173953"/>
<path d="M16.0911 126.84V136.385C16.0923 136.604 16.1374 136.821 16.2237 137.022C16.31 137.224 16.4357 137.406 16.5935 137.558C16.7512 137.71 16.9378 137.829 17.1423 137.908C17.3467 137.987 17.5649 138.024 17.7839 138.017C18.2032 138.001 18.6001 137.823 18.8911 137.521C19.182 137.218 19.3445 136.815 19.3442 136.395V126.85L16.0911 126.84Z" fill="#173953"/>
<path d="M22.3933 126.84V136.385C22.3932 136.605 22.4373 136.822 22.5231 137.024C22.6089 137.226 22.7346 137.409 22.8926 137.561C23.0507 137.713 23.2379 137.832 23.4429 137.911C23.648 137.989 23.8668 138.025 24.0861 138.017C24.5046 137.996 24.8989 137.815 25.1875 137.511C25.4761 137.207 25.6367 136.804 25.6362 136.385V126.84H22.3933Z" fill="#173953"/>
<path d="M28.6955 126.84V136.385C28.6968 136.604 28.7419 136.821 28.8282 137.022C28.9145 137.224 29.0402 137.406 29.1979 137.558C29.3557 137.71 29.5423 137.829 29.7468 137.908C29.9512 137.987 30.1694 138.024 30.3884 138.017C30.8077 138.001 31.2046 137.823 31.4955 137.521C31.7865 137.218 31.9489 136.815 31.9486 136.395V126.85L28.6955 126.84Z" fill="#173953"/>
<path d="M34.9875 126.84V136.385C34.9874 136.605 35.0315 136.822 35.1173 137.024C35.2031 137.226 35.3288 137.409 35.4869 137.561C35.6449 137.713 35.8321 137.832 36.0372 137.911C36.2422 137.989 36.461 138.025 36.6804 138.017C37.0989 137.998 37.4943 137.82 37.7847 137.518C38.0752 137.216 38.2384 136.814 38.2406 136.395V126.85L34.9875 126.84Z" fill="#173953"/>
</svg>
