<svg width="39" height="39" viewBox="0 0 39 39" fill="none" xmlns="http://www.w3.org/2000/svg">
<mask id="mask0_92_39" style="mask-type:alpha" maskUnits="userSpaceOnUse" x="0" y="0" width="39" height="39">
<circle cx="19.3196" cy="19.1885" r="19.1885" fill="#D9D9D9"/>
</mask>
<g mask="url(#mask0_92_39)">
<path d="M28.0802 2.53052H10.4425C6.14504 2.53052 2.66122 6.01433 2.66122 10.3118V27.9495C2.66122 32.247 6.14504 35.7308 10.4425 35.7308H28.0802C32.3777 35.7308 35.8615 32.247 35.8615 27.9495V10.3118C35.8615 6.01433 32.3777 2.53052 28.0802 2.53052Z" fill="white"/>
<path d="M32.6276 -6.02881H5.8956C-0.617797 -6.02881 -5.89795 -0.748657 -5.89795 5.76474V32.4968C-5.89795 39.0102 -0.617797 44.2903 5.8956 44.2903H32.6276C39.141 44.2903 44.4212 39.0102 44.4212 32.4968V5.76474C44.4212 -0.748657 39.141 -6.02881 32.6276 -6.02881Z" fill="#1D9BF0"/>
<path d="M29.7027 15.5451C29.717 15.7509 29.717 15.9567 29.717 16.1645C29.717 22.4929 24.8993 29.7915 16.09 29.7915V29.7876C13.4875 29.7914 10.939 29.046 8.74869 27.6406C9.12712 27.6861 9.50737 27.7088 9.88865 27.7097C12.0456 27.7114 14.1405 26.988 15.8367 25.6556C14.8373 25.6367 13.8688 25.306 13.0666 24.7097C12.2644 24.1134 11.6686 23.2813 11.3624 22.3297C12.08 22.4681 12.8197 22.4399 13.5246 22.2473C11.2903 21.7958 9.68283 19.8327 9.68283 17.5528V17.4921C10.3489 17.8631 11.0943 18.0687 11.8564 18.0915C9.75209 16.685 9.10339 13.8855 10.3741 11.6966C11.5765 13.1762 13.0766 14.3863 14.7772 15.2484C16.4777 16.1104 18.3406 16.6051 20.2448 16.7002C20.0549 15.883 20.083 15.0302 20.3261 14.2272C20.5693 13.4242 21.019 12.6991 21.6303 12.1244C23.5592 10.3111 26.5931 10.4041 28.4064 12.332C29.4789 12.1203 30.5074 11.7271 31.4477 11.1694C31.0901 12.2783 30.342 13.2196 29.3423 13.8181C30.2917 13.7063 31.2189 13.4522 32.0926 13.0643C31.4499 14.0268 30.6406 14.8668 29.7027 15.5451Z" fill="white"/>
</g>
</svg>
