<svg width="154" height="163" viewBox="0 0 154 163" fill="none" xmlns="http://www.w3.org/2000/svg">
<path d="M97.8874 0.0991821H46.4967C37.7765 0.0991821 30.7074 7.16831 30.7074 15.8885V147.211C30.7074 155.931 37.7765 163 46.4967 163H97.8874C106.608 163 113.677 155.931 113.677 147.211V15.8885C113.677 7.16831 106.608 0.0991821 97.8874 0.0991821Z" fill="#E0E0E0"/>
<path d="M97.8874 163L99.0859 162.931C99.5765 162.899 100.065 162.837 100.548 162.744L101.002 162.676C101.158 162.645 101.315 162.595 101.479 162.557L102.536 162.282C104.354 161.701 106.055 160.804 107.563 159.634L107.906 159.378L108.227 159.084L108.891 158.481C109.12 158.283 109.307 158.035 109.524 157.806C109.742 157.577 109.963 157.348 110.154 157.084C110.573 156.561 110.955 156.011 111.299 155.435C111.471 155.134 111.681 154.848 111.83 154.523L112.299 153.546C112.463 153.222 112.562 152.859 112.681 152.508L112.875 151.974C112.94 151.794 112.975 151.592 113.028 151.42C113.12 151.039 113.23 150.657 113.307 150.275C113.383 149.894 113.429 149.485 113.49 149.085C113.658 147.466 113.597 145.749 113.608 143.963C113.608 140.385 113.608 136.506 113.608 132.326C113.608 123.975 113.608 114.468 113.608 103.961C113.608 82.9389 113.608 57.9133 113.585 30.1207C113.585 26.6476 113.585 23.1325 113.585 19.5754V16.9038C113.604 16.0069 113.555 15.1176 113.497 14.2322C113.299 12.4411 112.795 10.6973 112.009 9.07591C110.412 5.74742 107.688 3.0928 104.318 1.5839C102.623 0.82847 100.808 0.377581 98.9561 0.251897C98.0287 0.183198 97.0936 0.194647 96.1471 0.194647H46.5082C42.4996 0.198233 38.6445 1.73593 35.7339 4.49216C32.8601 7.20446 31.119 10.9036 30.86 14.8466C30.7875 15.8122 30.8066 16.7893 30.8066 17.7625V37.9066C30.8066 53.0319 30.8066 67.6228 30.8066 81.5191C30.8066 95.4154 30.8066 108.617 30.8066 120.983C30.8066 127.161 30.8066 133.121 30.8066 138.864V147.295C30.8066 147.634 30.841 147.978 30.86 148.317L30.8868 148.825L30.9631 149.329C31.0127 149.661 31.0623 149.997 31.1158 150.329C31.1692 150.661 31.2799 150.981 31.36 151.306C31.5284 151.955 31.7388 152.592 31.9898 153.214C32.1043 153.523 32.2684 153.81 32.4058 154.111C32.5297 154.401 32.6725 154.683 32.8332 154.955C34.1009 157.185 35.8947 159.072 38.0582 160.451C40.1115 161.756 42.4369 162.573 44.8556 162.84C45.4433 162.874 46.0273 162.908 46.6074 162.928H58.2175H79.6364H93.1701L79.6364 162.947L58.2175 162.966H46.6074C46.0235 162.947 45.4319 162.916 44.8403 162.882C42.3963 162.618 40.0457 161.795 37.9704 160.477C35.7862 159.09 33.9752 157.189 32.6958 154.939C32.5251 154.656 32.3722 154.363 32.2378 154.061C32.1004 153.76 31.9363 153.466 31.818 153.157C31.5668 152.534 31.354 151.897 31.1806 151.249C31.1005 150.92 31.0089 150.592 30.9326 150.26C30.8562 149.928 30.8295 149.588 30.7799 149.253L30.7036 148.745L30.6845 148.325C30.6845 147.982 30.6463 147.638 30.6311 147.295C30.6311 144.544 30.6311 141.734 30.6311 138.864C30.6311 133.129 30.6311 127.168 30.6311 120.983C30.6311 108.621 30.6311 95.4116 30.6311 81.5191C30.6311 67.6266 30.6311 53.0319 30.6311 37.9066V17.7625C30.6311 16.7893 30.631 15.8161 30.6845 14.8352C30.8822 11.8506 31.9183 8.98235 33.6738 6.56049C35.4292 4.13862 37.8327 2.26148 40.6077 1.14498C42.4823 0.39564 44.4817 0.00716794 46.5005 0L96.1471 0C97.086 0 98.0248 0 98.9675 0.0534326C100.842 0.181411 102.679 0.638768 104.395 1.40451C107.802 2.93128 110.559 5.61518 112.177 8.9805C112.971 10.6214 113.48 12.3858 113.681 14.1978C113.738 15.1023 113.787 16.0069 113.772 16.8962C113.757 17.7854 113.772 18.6823 113.772 19.5678V30.1245C113.772 57.9171 113.772 82.9427 113.749 103.965C113.749 114.472 113.749 123.979 113.749 132.33C113.749 136.505 113.749 140.384 113.749 143.967C113.749 145.753 113.799 147.466 113.623 149.096C113.562 149.501 113.501 149.901 113.44 150.294C113.379 150.688 113.249 151.058 113.154 151.439C113.104 151.626 113.066 151.821 113.001 152.001L112.807 152.535C112.665 152.886 112.566 153.249 112.398 153.577L111.898 154.573C111.749 154.901 111.539 155.187 111.368 155.489C111.021 156.065 110.639 156.618 110.223 157.145C110.032 157.409 109.795 157.63 109.589 157.867C109.387 158.103 109.173 158.328 108.948 158.542L108.284 159.145L107.959 159.439L107.616 159.695C106.1 160.865 104.389 161.759 102.563 162.336L101.502 162.607C101.338 162.645 101.177 162.695 101.021 162.721L100.571 162.79C100.085 162.879 99.5941 162.938 99.1011 162.966C98.2958 162.989 97.8874 163 97.8874 163Z" fill="#263238"/>
<path d="M96.5593 4.01886H47.2639C40.2173 4.01886 34.5049 9.73123 34.5049 16.7778V145.096C34.5049 152.143 40.2173 157.855 47.2639 157.855H96.5593C103.606 157.855 109.318 152.143 109.318 145.096V16.7778C109.318 9.73123 103.606 4.01886 96.5593 4.01886Z" fill="white"/>
<path d="M99.082 43.5094C99.5858 43.4711 100.085 43.388 100.574 43.2613C101.159 43.0972 101.713 42.8394 102.215 42.498C102.894 42.0192 103.459 41.3978 103.872 40.6775C104.117 40.25 104.301 39.79 104.418 39.3111C104.484 39.0604 104.532 38.8053 104.563 38.5478C104.563 38.2768 104.601 38.0059 104.593 37.7158C104.593 37.1395 104.593 36.5403 104.593 35.9144C104.593 35.2884 104.593 34.632 104.555 33.9793C104.409 32.5692 103.726 31.2693 102.647 30.3497C102.061 29.8517 101.375 29.4859 100.635 29.2773C99.8455 29.0848 99.031 29.0127 98.2195 29.0635L45.3327 29.1246C44.09 29.1221 42.8845 29.5482 41.9195 30.3311C40.9545 31.114 40.289 32.2057 40.0352 33.4221C39.9351 34.0273 39.8967 34.6411 39.9207 35.2541V37.1166C39.8929 37.7212 39.9235 38.327 40.0123 38.9257C40.1232 39.5055 40.3241 40.0644 40.6077 40.5821C41.1839 41.6052 42.0737 42.416 43.1457 42.8949C43.6741 43.1226 44.2338 43.2693 44.806 43.33C45.367 43.372 45.9509 43.3529 46.554 43.3568H53.4239L77.1976 43.3987L93.2274 43.4636L97.5859 43.498L98.7309 43.5209H99.021C99.0526 43.5158 99.0848 43.5158 99.1164 43.5209C99.0848 43.5259 99.0526 43.5259 99.021 43.5209H98.7309H97.5859L93.2274 43.559L77.1976 43.6239L53.4239 43.6659H46.554C45.9624 43.6659 45.3899 43.6659 44.7716 43.6392C44.1588 43.5739 43.5592 43.417 42.9931 43.1736C41.842 42.6642 40.8863 41.7968 40.268 40.7004C39.9607 40.1456 39.7443 39.5451 39.6268 38.9218L39.5543 38.4524L39.5314 37.9753C39.5314 37.6585 39.5314 37.357 39.5314 37.0441C39.5314 36.4258 39.5314 35.8037 39.5314 35.1816C39.5084 34.543 39.5493 33.9037 39.6535 33.2733C39.9277 31.9679 40.6424 30.7965 41.6778 29.9556C42.7133 29.1147 44.0064 28.6556 45.3403 28.6552L98.2271 28.7162C98.6508 28.7162 99.0591 28.7162 99.4866 28.7353C99.9042 28.7627 100.318 28.8357 100.719 28.9528C101.493 29.1805 102.208 29.5708 102.819 30.0978C103.948 31.0659 104.659 32.4337 104.803 33.9144C104.853 34.6014 104.803 35.2426 104.826 35.8686C104.849 36.4945 104.826 37.0937 104.826 37.67C104.854 38.6314 104.639 39.5843 104.202 40.4408C103.764 41.2973 103.118 42.0298 102.322 42.5705C101.807 42.9179 101.237 43.176 100.635 43.3339L100.292 43.4178C100.185 43.4407 100.082 43.4484 99.9866 43.4636C99.8302 43.4903 99.6719 43.5044 99.5133 43.5056H99.2233C99.1768 43.5156 99.1289 43.5169 99.082 43.5094Z" fill="#FF725E"/>
<path d="M91.7503 16.2893C91.7503 16.2893 91.6244 16.2893 91.4145 16.3694C91.1218 16.4591 90.866 16.6412 90.6855 16.8885C90.5397 17.0856 90.4515 17.3194 90.4307 17.5637C90.4099 17.808 90.4574 18.0533 90.5678 18.2722C90.6782 18.4911 90.8472 18.6751 91.056 18.8037C91.2648 18.9322 91.5051 19.0003 91.7503 19.0003C91.9955 19.0003 92.2359 18.9322 92.4447 18.8037C92.6535 18.6751 92.8225 18.4911 92.9329 18.2722C93.0433 18.0533 93.0907 17.808 93.0699 17.5637C93.0491 17.3194 92.9609 17.0856 92.8152 16.8885C92.6355 16.6404 92.3794 16.4581 92.0862 16.3694C91.8763 16.3083 91.7503 16.3083 91.7503 16.2893C91.8669 16.2602 91.9887 16.2602 92.1053 16.2893C92.4271 16.3563 92.715 16.5347 92.9182 16.7931C93.0732 16.9881 93.1762 17.2192 93.2175 17.4648C93.2589 17.7104 93.2374 17.9625 93.1548 18.1976C93.0516 18.489 92.8605 18.7414 92.608 18.9198C92.3555 19.0983 92.0538 19.1941 91.7446 19.1941C91.4354 19.1941 91.1337 19.0983 90.8812 18.9198C90.6287 18.7414 90.4376 18.489 90.3344 18.1976C90.2502 17.963 90.2275 17.7109 90.2682 17.4651C90.309 17.2192 90.4119 16.9879 90.5672 16.7931C90.7723 16.5332 91.0632 16.3546 91.3878 16.2893C91.5067 16.2589 91.6314 16.2589 91.7503 16.2893Z" fill="#FF725E"/>
<path d="M95.7807 16.2893C95.7807 16.2893 95.6547 16.2893 95.4448 16.3695C95.1512 16.4574 94.8949 16.6398 94.7158 16.8885C94.57 17.0857 94.4819 17.3194 94.4611 17.5637C94.4403 17.808 94.4877 18.0533 94.5981 18.2723C94.7085 18.4912 94.8775 18.6752 95.0863 18.8037C95.2951 18.9323 95.5355 19.0003 95.7807 19.0003C96.0259 19.0003 96.2662 18.9323 96.475 18.8037C96.6838 18.6752 96.8528 18.4912 96.9632 18.2723C97.0736 18.0533 97.121 17.808 97.1003 17.5637C97.0795 17.3194 96.9913 17.0857 96.8455 16.8885C96.6644 16.6402 96.4071 16.4579 96.1127 16.3695C95.9028 16.3084 95.7807 16.3084 95.7807 16.2893C95.8959 16.2601 96.0166 16.2601 96.1318 16.2893C96.4575 16.3545 96.7496 16.533 96.9562 16.7931C97.1115 16.988 97.2144 17.2193 97.2551 17.4651C97.2959 17.7109 97.2731 17.9631 97.189 18.1976C97.0857 18.4891 96.8947 18.7414 96.6422 18.9199C96.3896 19.0983 96.088 19.1942 95.7788 19.1942C95.4695 19.1942 95.1679 19.0983 94.9154 18.9199C94.6628 18.7414 94.4718 18.4891 94.3685 18.1976C94.2862 17.9628 94.2644 17.711 94.3051 17.4656C94.3458 17.2201 94.4476 16.9888 94.6013 16.7931C94.8079 16.533 95.1 16.3545 95.4257 16.2893C95.5422 16.2602 95.6641 16.2602 95.7807 16.2893Z" fill="#FF725E"/>
<path d="M99.8148 16.2893C99.8148 16.2893 99.6889 16.2893 99.4828 16.3695C99.1884 16.4579 98.9311 16.6402 98.75 16.8885C98.6042 17.0857 98.516 17.3194 98.4952 17.5637C98.4745 17.808 98.5219 18.0533 98.6323 18.2723C98.7427 18.4912 98.9117 18.6752 99.1205 18.8037C99.3293 18.9323 99.5696 19.0004 99.8148 19.0004C100.06 19.0004 100.3 18.9323 100.509 18.8037C100.718 18.6752 100.887 18.4912 100.997 18.2723C101.108 18.0533 101.155 17.808 101.134 17.5637C101.114 17.3194 101.025 17.0857 100.88 16.8885C100.7 16.6392 100.442 16.4566 100.147 16.3695C99.937 16.3084 99.811 16.3084 99.811 16.2893C99.9275 16.2602 100.049 16.2602 100.166 16.2893C100.492 16.3529 100.785 16.5317 100.99 16.7931C101.145 16.9881 101.248 17.2193 101.29 17.4649C101.331 17.7105 101.309 17.9626 101.227 18.1976C101.124 18.4891 100.933 18.7414 100.68 18.9199C100.428 19.0984 100.126 19.1942 99.8167 19.1942C99.5075 19.1942 99.2059 19.0984 98.9533 18.9199C98.7008 18.7414 98.5098 18.4891 98.4065 18.1976C98.3224 17.9631 98.2996 17.7109 98.3404 17.4651C98.3811 17.2193 98.484 16.988 98.6393 16.7931C98.8452 16.5322 99.1376 16.3535 99.4637 16.2893C99.5789 16.2603 99.6996 16.2603 99.8148 16.2893Z" fill="#FF725E"/>
<path d="M44.0045 15.6099L42.3023 17.3618C42.2152 17.4527 42.1667 17.5737 42.1667 17.6995C42.1667 17.8254 42.2152 17.9464 42.3023 18.0373L44.0045 19.438C44.0948 19.5248 44.2151 19.5732 44.3403 19.5732C44.4655 19.5732 44.5859 19.5248 44.6762 19.438C44.7205 19.394 44.7557 19.3417 44.7797 19.284C44.8037 19.2264 44.816 19.1646 44.816 19.1021C44.816 19.0397 44.8037 18.9779 44.7797 18.9202C44.7557 18.8626 44.7205 18.8103 44.6762 18.7663C44.1113 18.2956 43.5452 17.8274 42.9778 17.3618V18.0373L44.6762 16.2855C44.7247 16.2424 44.7639 16.1898 44.7914 16.131C44.8189 16.0722 44.8341 16.0085 44.8361 15.9436C44.8381 15.8787 44.8268 15.8141 44.803 15.7538C44.7792 15.6934 44.7433 15.6385 44.6975 15.5925C44.6518 15.5465 44.5971 15.5103 44.5369 15.4862C44.4766 15.462 44.4121 15.4504 44.3472 15.452C44.2824 15.4536 44.2185 15.4685 44.1596 15.4956C44.1006 15.5228 44.0479 15.5617 44.0045 15.6099Z" fill="#FF725E"/>
<path d="M48.4623 36.0402C48.4621 36.3004 48.3817 36.5543 48.2322 36.7672C48.0827 36.9802 47.8712 37.142 47.6265 37.2306C47.3819 37.3192 47.1159 37.3303 46.8647 37.2624C46.6134 37.1945 46.3892 37.051 46.2225 36.8512C46.0557 36.6515 45.9545 36.4052 45.9326 36.1459C45.9106 35.8866 45.9691 35.6269 46.0999 35.402C46.2308 35.177 46.4277 34.9979 46.6639 34.8888C46.9002 34.7797 47.1643 34.746 47.4203 34.7922C47.7112 34.8484 47.9737 35.0033 48.1635 35.2307C48.3533 35.4581 48.4589 35.744 48.4623 36.0402C48.4696 36.0983 48.4979 36.1517 48.5418 36.1904C48.5858 36.2291 48.6423 36.2504 48.7008 36.2504C48.7593 36.2504 48.8159 36.2291 48.8598 36.1904C48.9037 36.1517 48.932 36.0983 48.9394 36.0402C48.9405 35.6799 48.8303 35.3279 48.6237 35.0327C48.4171 34.7374 48.1243 34.5131 47.7854 34.3907C47.4465 34.2682 47.078 34.2535 46.7304 34.3485C46.3828 34.4435 46.0731 34.6437 45.8436 34.9215C45.6141 35.1994 45.4761 35.5414 45.4485 35.9007C45.4209 36.26 45.505 36.619 45.6893 36.9287C45.8736 37.2384 46.1491 37.4835 46.4781 37.6305C46.8071 37.7776 47.1736 37.8193 47.5272 37.7501C47.9218 37.6678 48.2766 37.4536 48.5332 37.1429C48.7899 36.8321 48.9331 36.4432 48.9394 36.0402C48.932 35.9822 48.9037 35.9288 48.8598 35.8901C48.8159 35.8514 48.7593 35.83 48.7008 35.83C48.6423 35.83 48.5858 35.8514 48.5418 35.8901C48.4979 35.9288 48.4696 35.9822 48.4623 36.0402Z" fill="#FF725E"/>
<path d="M48.0501 37.3112L48.6226 37.9409L48.7065 38.0287C48.7285 38.0509 48.7547 38.0684 48.7835 38.0804C48.8123 38.0924 48.8432 38.0986 48.8745 38.0986C48.9057 38.0986 48.9366 38.0924 48.9654 38.0804C48.9942 38.0684 49.0204 38.0509 49.0424 38.0287C49.0853 37.9833 49.1093 37.9232 49.1093 37.8608C49.1093 37.7983 49.0853 37.7382 49.0424 37.6928L48.4737 37.0631L48.3898 36.9715C48.3448 36.9277 48.2846 36.9031 48.2218 36.9031C48.1591 36.9031 48.0988 36.9277 48.0539 36.9715C48.0107 37.0175 47.9866 37.0782 47.9866 37.1413C47.9866 37.2044 48.0107 37.2652 48.0539 37.3112H48.0501Z" fill="#FF725E"/>
<path d="M47.0959 56.3905C47.4155 56.3297 47.7305 56.2468 48.0386 56.1424C48.3855 56.0011 48.7007 55.7922 48.9661 55.5279C49.3164 55.1805 49.5646 54.7435 49.6836 54.2646C49.8265 53.6887 49.7782 53.0819 49.5462 52.5357C49.273 51.9161 48.7772 51.4217 48.1569 51.1503C47.8254 51.0076 47.4683 50.9336 47.1074 50.9327H45.9013H43.3595C42.7333 50.9448 42.1316 51.178 41.6609 51.5911C41.1901 52.0042 40.8808 52.5706 40.7875 53.1899C40.6943 53.8092 40.8232 54.4415 41.1514 54.9749C41.4796 55.5083 41.986 55.9084 42.5809 56.1042C42.8529 56.1889 43.1357 56.2339 43.4205 56.2378C44.5655 56.2569 45.4815 56.276 46.1189 56.3027C46.4514 56.294 46.7839 56.3196 47.1112 56.379C46.7839 56.4385 46.4514 56.464 46.1189 56.4554C45.4815 56.4783 44.5579 56.5012 43.4205 56.5203C43.1059 56.5236 42.7924 56.4825 42.4893 56.3981C42.163 56.2973 41.856 56.1425 41.5809 55.9401C40.9639 55.485 40.5457 54.8099 40.413 54.0547C40.3379 53.6228 40.3582 53.1796 40.4723 52.7563C40.5865 52.3329 40.7919 51.9397 41.074 51.6041C41.3562 51.2685 41.7083 50.9986 42.1057 50.8134C42.5032 50.6282 42.9363 50.5322 43.3747 50.532H45.9166H47.1226C47.5362 50.5345 47.9446 50.6242 48.3211 50.7953C48.975 51.0833 49.5024 51.5985 49.8055 52.2455C50.1087 52.8925 50.1671 53.6275 49.9698 54.3142C49.8222 54.8335 49.5328 55.3014 49.134 55.6653C48.8386 55.9362 48.4885 56.1405 48.1073 56.2645C47.8701 56.3461 47.6215 56.3899 47.3707 56.3943C47.199 56.4134 47.0959 56.4058 47.0959 56.3905Z" fill="#FF725E"/>
<path d="M101.7 56.3905C102.02 56.3302 102.335 56.2473 102.643 56.1424C102.99 56.0011 103.305 55.7922 103.57 55.5279C103.949 55.1572 104.208 54.6823 104.316 54.1636C104.424 53.6449 104.375 53.1058 104.176 52.6149C103.977 52.124 103.636 51.7035 103.197 51.4066C102.759 51.1098 102.241 50.9502 101.712 50.948H100.506H97.9676C97.5862 50.9482 97.2094 51.0311 96.8631 51.191C96.5168 51.351 96.2094 51.5841 95.962 51.8743C95.7145 52.1646 95.533 52.505 95.4299 52.8723C95.3267 53.2395 95.3045 53.6247 95.3647 54.0013C95.474 54.6692 95.8327 55.2708 96.3684 55.6844C96.6097 55.8731 96.8823 56.0178 97.1737 56.1119C97.4444 56.1968 97.7259 56.2418 98.0096 56.2455C99.1546 56.2645 100.071 56.2836 100.708 56.3103C101.04 56.3017 101.373 56.3272 101.7 56.3867C101.373 56.4461 101.04 56.4717 100.708 56.463C100.071 56.4859 99.1507 56.5088 98.0096 56.5279C97.6962 56.5312 97.384 56.4901 97.0821 56.4057C96.396 56.1939 95.8087 55.7429 95.4269 55.1348C95.045 54.5267 94.8939 53.8018 95.0011 53.0917C95.1083 52.3817 95.4666 51.7337 96.0109 51.2654C96.5553 50.7971 97.2495 50.5396 97.9676 50.5396H100.506H101.716C102.128 50.5422 102.535 50.6319 102.91 50.803C103.61 51.1168 104.163 51.6862 104.456 52.3945C104.704 53.0075 104.74 53.6859 104.559 54.3219C104.413 54.8408 104.124 55.3087 103.727 55.673C103.43 55.9433 103.078 56.1475 102.696 56.2722C102.459 56.3538 102.211 56.3976 101.96 56.4019C101.788 56.4134 101.7 56.4058 101.7 56.3905Z" fill="#FF725E"/>
<path d="M71.8238 56.3905C71.8238 56.3676 71.9955 56.3905 72.3085 56.3066C72.7621 56.2102 73.1853 56.0045 73.5413 55.7074C73.9931 55.3314 74.3115 54.8196 74.449 54.2482C74.5865 53.6767 74.5359 53.0761 74.3046 52.5358C74.1076 52.0754 73.7865 51.679 73.3771 51.3908C72.9307 51.0742 72.3978 50.9023 71.8505 50.8984H69.9842H65.8584H56.4123C55.7577 50.8994 55.127 51.1445 54.6435 51.5858C54.16 52.0271 53.8585 52.6328 53.7979 53.2846C53.7373 53.9364 53.9219 54.5874 54.3158 55.1103C54.7097 55.6331 55.2844 55.9903 55.9276 56.1119C56.0978 56.1419 56.27 56.1584 56.4428 56.1615H57.0191L64.7363 56.2035L69.9384 56.2684L71.3505 56.3028C71.5157 56.2986 71.6808 56.3127 71.8429 56.3447C71.6808 56.3764 71.5156 56.3892 71.3505 56.3829L69.9384 56.4211L64.7363 56.486L57.0191 56.5279H56.4695C56.2738 56.5302 56.0782 56.5135 55.8856 56.4783C55.2756 56.3684 54.7149 56.0718 54.2807 55.6295C53.8466 55.1871 53.5605 54.6209 53.462 54.009C53.3899 53.5768 53.4129 53.134 53.5293 52.7116C53.6458 52.2892 53.8529 51.8972 54.1363 51.563C54.4196 51.2287 54.7724 50.9603 55.1701 50.7763C55.5678 50.5923 56.0008 50.4973 56.439 50.4977H65.8851L70.0109 50.5168H71.881C72.4576 50.5301 73.0176 50.7118 73.4923 51.0393C73.967 51.3668 74.3355 51.8259 74.5527 52.3602C74.7324 52.8132 74.7992 53.3031 74.7473 53.7876C74.7023 54.1718 74.5816 54.5433 74.3923 54.8806C74.203 55.218 73.9488 55.5145 73.6443 55.7532C73.2616 56.05 72.8075 56.2409 72.3276 56.3066C72.2013 56.3258 72.0736 56.3335 71.9459 56.3295C71.8658 56.402 71.8238 56.3982 71.8238 56.3905Z" fill="#FF725E"/>
<path d="M89.5329 56.3905C89.6571 56.3532 89.7851 56.3302 89.9145 56.3218C90.316 56.2573 90.6982 56.1046 91.0338 55.8749C91.3693 55.6452 91.6498 55.344 91.8552 54.9931C92.0606 54.6421 92.1858 54.25 92.2218 53.845C92.2577 53.4399 92.2036 53.0319 92.0633 52.6503C91.9112 52.244 91.6625 51.8809 91.3387 51.5923C91.0148 51.3037 90.6256 51.0983 90.2046 50.9938C89.9748 50.9379 89.7388 50.911 89.5023 50.9137H88.739H87.1208H79.915C79.3516 50.9152 78.8036 51.0974 78.3515 51.4334C77.8993 51.7694 77.5668 52.2416 77.4028 52.7806C77.2388 53.3195 77.252 53.8968 77.4404 54.4278C77.6287 54.9587 77.9824 55.4152 78.4494 55.7303C78.6621 55.872 78.8932 55.9837 79.1364 56.0623C79.3756 56.1348 79.6232 56.1758 79.873 56.1844H81.3997L84.14 56.2073C85.8155 56.2264 87.1704 56.2455 88.1054 56.2722L89.1856 56.3066C89.3141 56.3021 89.4427 56.3163 89.5672 56.3486C89.4427 56.3805 89.314 56.3934 89.1856 56.3867C88.9375 56.3867 88.5749 56.4134 88.1054 56.4249C87.1704 56.4478 85.8155 56.4707 84.14 56.4898L81.3997 56.5127H79.873C79.5899 56.5096 79.3086 56.4673 79.0372 56.3867C78.7596 56.2943 78.4953 56.166 78.251 56.0051C77.7131 55.6459 77.305 55.1234 77.0869 54.5146C76.8687 53.9058 76.8521 53.243 77.0394 52.624C77.2268 52.005 77.6082 51.4627 78.1274 51.0771C78.6465 50.6915 79.2759 50.483 79.9226 50.4824H87.1284H88.7466H89.51C89.7674 50.4859 90.0235 50.5192 90.2733 50.5817C90.7404 50.7057 91.1703 50.9414 91.526 51.2685C91.8817 51.5957 92.1525 52.0044 92.3152 52.4594C92.4471 52.8311 92.5023 53.2257 92.4774 53.6193C92.4524 54.0129 92.3479 54.3973 92.1701 54.7494C91.9064 55.2801 91.4834 55.7151 90.9603 55.9936C90.6385 56.1725 90.2817 56.2793 89.9145 56.3066C89.7943 56.36 89.6644 56.3885 89.5329 56.3905Z" fill="#FF725E"/>
<path d="M47.3631 66.89C47.3224 66.8933 47.2816 66.8933 47.241 66.89H46.8822C46.4155 66.9079 45.9533 66.9888 45.5082 67.1305C44.7814 67.3688 44.1255 67.7846 43.5999 68.3403C42.8902 69.094 42.4593 70.0676 42.3786 71.0997C42.3786 75.8094 42.4053 82.6145 42.4244 91.0225C42.4244 92.072 42.4244 93.1483 42.4244 94.2513C42.4244 94.8009 42.4244 95.3581 42.4244 95.9192C42.4042 96.4787 42.4285 97.039 42.4969 97.5947C42.6757 98.7268 43.2505 99.7588 44.119 100.507C45.0178 101.284 46.1671 101.711 47.3555 101.709H63.1486L99.3339 101.69C100.104 101.705 100.867 101.537 101.56 101.2C102.252 100.863 102.855 100.367 103.318 99.7511C103.778 99.1426 104.087 98.4336 104.219 97.6825C104.302 96.9145 104.329 96.1415 104.299 95.3696C104.299 92.2451 104.299 89.1676 104.299 86.1372C104.299 83.1068 104.299 80.1362 104.299 77.2254C104.299 75.7713 104.299 74.3286 104.299 72.905C104.299 72.5501 104.299 72.1913 104.299 71.844C104.29 71.5048 104.248 71.1674 104.173 70.8364C104.016 70.178 103.727 69.5586 103.322 69.0159C102.923 68.487 102.421 68.045 101.845 67.7169C101.27 67.3888 100.633 67.1815 99.9751 67.1076C99.6507 67.0808 99.3225 67.0694 98.9828 67.0732H95.9868H88.3192L74.5756 67.0274L54.6528 66.9663L49.237 66.9282L47.8249 66.9091H47.4661C47.4268 66.9126 47.3872 66.9126 47.3478 66.9091C47.3871 66.904 47.4269 66.904 47.4661 66.9091H47.8249H49.237L54.6528 66.8709L74.5756 66.8099L88.3383 66.7831H96.0058H99.0019C99.3339 66.7831 99.6813 66.7831 100.032 66.8175C101.107 66.9389 102.118 67.3895 102.927 68.1075C103.736 68.8255 104.303 69.776 104.551 70.8288C104.634 71.1845 104.68 71.5477 104.689 71.9127C104.689 72.2943 104.689 72.6226 104.689 72.9813V77.3017C104.689 80.2125 104.689 83.1831 104.689 86.2135V96.5604C104.695 96.9655 104.666 97.3703 104.601 97.7702C104.459 98.5814 104.125 99.347 103.628 100.003C103.127 100.668 102.477 101.205 101.729 101.571C100.982 101.936 100.158 102.12 99.3263 102.106L63.141 102.087H47.3478C46.0847 102.081 44.8657 101.622 43.9129 100.793C42.9923 99.9937 42.3839 98.8946 42.1954 97.6901C42.1517 97.3995 42.1287 97.1061 42.1267 96.8123V95.965C42.1267 95.4039 42.1267 94.8467 42.1267 94.2971C42.1267 93.1941 42.1267 92.1178 42.1267 91.0683C42.1534 82.6717 42.1458 75.8514 42.2107 71.1341C42.3016 70.0708 42.7573 69.0717 43.5007 68.306C44.0395 67.7488 44.7084 67.3344 45.4471 67.0999C45.9014 66.9632 46.3735 66.895 46.8478 66.8976H47.2066L47.3631 66.89Z" fill="#FF725E"/>
<path d="M43.9472 69.2563C44.0006 69.1609 56.8894 76.0613 72.7321 84.6716C88.5749 93.2819 101.383 100.32 101.33 100.434C101.277 100.549 88.3917 93.6292 72.5451 85.0189C56.6985 76.4086 43.8976 69.3555 43.9472 69.2563Z" fill="#FF725E"/>
<path d="M101.876 70.3059C101.925 70.4051 88.8726 76.9964 72.7283 85.0227C56.584 93.0491 43.4511 99.4839 43.4014 99.3846C43.3518 99.2854 56.4008 92.6979 72.5527 84.6678C88.7047 76.6376 101.826 70.2257 101.876 70.3059Z" fill="#FF725E"/>
<path d="M59.2175 114.453C59.3433 114.421 59.4707 114.395 59.5992 114.376C59.9561 114.291 60.2849 114.115 60.5533 113.865C60.7614 113.67 60.9261 113.433 61.0366 113.17C61.1471 112.907 61.2009 112.624 61.1945 112.338C61.1832 111.966 61.0672 111.605 60.86 111.296C60.6528 110.987 60.3626 110.742 60.0228 110.59C59.8309 110.507 59.6276 110.453 59.4198 110.43C59.2137 110.43 58.9694 110.43 58.7328 110.43H57.2443L53.9582 110.449H46.428C45.9972 110.464 45.5841 110.625 45.2561 110.904C44.928 111.184 44.7044 111.567 44.6217 111.99C44.5389 112.413 44.6019 112.852 44.8003 113.234C44.9987 113.617 45.3209 113.921 45.7143 114.098C45.9719 114.198 46.247 114.246 46.5234 114.239H47.4013L53.5536 114.281C55.3017 114.3 56.7176 114.319 57.6985 114.346L58.8244 114.38C58.9529 114.377 59.0813 114.391 59.206 114.422C59.0812 114.453 58.9528 114.465 58.8244 114.46C58.5687 114.46 58.187 114.487 57.6985 114.498C56.7176 114.521 55.3017 114.544 53.5536 114.563L47.4013 114.605H46.5234C46.1989 114.614 45.8759 114.558 45.5731 114.441C45.0906 114.236 44.6932 113.871 44.4473 113.408C44.2013 112.945 44.1217 112.412 44.2218 111.897C44.3219 111.382 44.5956 110.918 44.9971 110.58C45.3987 110.243 45.9038 110.054 46.428 110.044H53.9582L57.2443 110.064H58.7328C58.9732 110.064 59.1984 110.064 59.4503 110.064C59.6885 110.09 59.9207 110.156 60.1373 110.258C60.518 110.436 60.8403 110.719 61.0667 111.073C61.2931 111.427 61.4142 111.838 61.4159 112.258C61.4144 112.571 61.3454 112.879 61.2137 113.162C61.0819 113.445 60.8905 113.697 60.6525 113.899C60.3577 114.153 59.9961 114.318 59.6106 114.373C59.5117 114.385 59.4118 114.385 59.3129 114.373C59.2518 114.464 59.2175 114.46 59.2175 114.453Z" fill="#FF725E"/>
<path d="M68.1598 146.463C68.1598 146.432 68.5224 146.463 69.1827 146.291C70.1458 146.041 70.991 145.461 71.5719 144.654C71.9904 144.079 72.2534 143.406 72.3352 142.699C72.3741 142.294 72.3856 141.886 72.3696 141.478C72.3696 141.047 72.3696 140.6 72.3696 140.138C72.3696 138.287 72.3505 136.181 72.339 133.856C72.3276 131.532 72.339 128.979 72.3161 126.223C72.3161 125.883 72.3161 125.536 72.3161 125.189C72.3161 124.841 72.3161 124.487 72.3161 124.151C72.2198 123.076 71.7097 122.082 70.8935 121.377C70.0773 120.672 69.0191 120.311 67.9423 120.372H47.9165C47.4937 120.378 47.0737 120.442 46.6685 120.563C46.2693 120.695 45.8913 120.884 45.5464 121.124C44.8593 121.604 44.3369 122.283 44.0503 123.071C43.7259 123.834 43.7984 124.685 43.7907 125.544C43.7831 126.402 43.7907 127.238 43.7907 128.078C43.7907 131.429 43.7907 134.658 43.7907 137.738V142.23C43.8177 143.243 44.214 144.211 44.905 144.952C45.596 145.693 46.534 146.155 47.5425 146.253C47.8554 146.276 48.1837 146.276 48.5119 146.276H49.4737H53.1262L64.1524 146.337L67.1522 146.375L67.9156 146.394C68.0052 146.392 68.0948 146.399 68.1827 146.417C68.0944 146.431 68.005 146.438 67.9156 146.436L67.1522 146.455L64.1524 146.493L53.1262 146.558H49.4737H48.5119C48.1875 146.558 47.8631 146.558 47.5158 146.539C46.425 146.44 45.4083 145.945 44.6574 145.147C43.9065 144.35 43.4733 143.306 43.4396 142.211C43.4396 140.749 43.4396 139.249 43.4396 137.707C43.4396 134.627 43.4396 131.398 43.4396 128.047V125.567C43.4396 125.135 43.4396 124.723 43.4396 124.273C43.4574 123.822 43.5476 123.378 43.7068 122.956C44.0225 122.094 44.5953 121.349 45.3479 120.823C45.7257 120.557 46.1412 120.35 46.5807 120.208C47.0241 120.075 47.484 120.004 47.947 119.998H67.9728C68.3683 119.99 68.7636 120.023 69.1521 120.097C69.5356 120.178 69.9075 120.306 70.259 120.479C70.9382 120.825 71.5175 121.339 71.9417 121.973C72.3659 122.606 72.621 123.337 72.6825 124.097C72.7092 124.479 72.6825 124.815 72.6825 125.162C72.6825 125.509 72.6825 125.857 72.6825 126.196C72.6825 128.937 72.6825 131.486 72.6596 133.83C72.6367 136.173 72.6367 138.261 72.6291 140.112C72.6291 140.574 72.6291 141.02 72.6291 141.451C72.6403 141.868 72.6224 142.285 72.5756 142.699C72.4549 143.572 72.0721 144.388 71.4778 145.039C70.8836 145.69 70.1059 146.145 69.2476 146.344C68.9974 146.405 68.7415 146.438 68.4842 146.444C68.3772 146.462 68.2683 146.469 68.1598 146.463Z" fill="#FF725E"/>
<path d="M74.1367 135.559C73.7716 135.25 73.4261 134.918 73.1023 134.566C72.4497 133.925 71.507 132.982 70.2437 131.94C69.5796 131.372 68.7712 130.998 67.9079 130.86C67.4326 130.784 66.9482 130.784 66.4729 130.86C65.9731 130.956 65.4963 131.146 65.0684 131.421C64.1451 132.049 63.3647 132.864 62.7784 133.814L61.7861 135.322C61.4434 135.859 61.0372 136.352 60.5762 136.791C60.3367 137.029 60.0498 137.214 59.7342 137.334C59.4186 137.453 59.0813 137.505 58.7442 137.486C58.1001 137.395 57.5069 137.085 57.0649 136.608C56.1947 135.761 55.5764 134.772 54.6872 134.234C54.4729 134.105 54.2417 134.006 54.0002 133.94C53.7628 133.885 53.5181 133.866 53.275 133.887C52.8015 133.935 52.3442 134.086 51.9354 134.33C51.2017 134.809 50.5754 135.436 50.0958 136.169L47.8707 139.364C47.6035 139.745 47.3974 140.028 47.2486 140.222C47.0997 140.417 47.0234 140.513 47.012 140.505C47.0526 140.388 47.1105 140.277 47.1837 140.177C47.3058 139.971 47.4967 139.665 47.7409 139.276C48.2371 138.513 48.9508 137.368 49.8668 136.009C50.3563 135.226 51.0068 134.556 51.7751 134.043C52.2257 133.769 52.7313 133.597 53.2559 133.54C53.5343 133.512 53.8154 133.53 54.088 133.593C54.3675 133.662 54.6351 133.773 54.8818 133.921C55.878 134.517 56.5115 135.536 57.3397 136.326C57.7216 136.737 58.2315 137.006 58.7862 137.089C59.0684 137.101 59.3499 137.054 59.6127 136.95C59.8756 136.847 60.1141 136.69 60.3129 136.49C60.7501 136.073 61.1346 135.604 61.4579 135.093L62.4578 133.593C63.0722 132.6 63.8937 131.751 64.8661 131.105C65.3326 130.812 65.8508 130.611 66.3927 130.513C66.9001 130.442 67.4157 130.454 67.9194 130.547C68.8366 130.705 69.691 131.118 70.3849 131.738C71.3673 132.594 72.2988 133.506 73.1749 134.471C73.484 134.814 73.7168 135.082 73.8733 135.269C73.9739 135.353 74.0625 135.45 74.1367 135.559Z" fill="#FF725E"/>
<path d="M61.851 127.784C61.8166 127.784 61.8128 127.528 61.6907 127.109C61.5103 126.517 61.1434 126.001 60.6449 125.635C60.2839 125.371 59.8629 125.201 59.4198 125.141C58.9767 125.08 58.5255 125.131 58.1069 125.288C57.6152 125.47 57.1888 125.794 56.8817 126.219C56.5496 126.673 56.3706 127.22 56.3706 127.782C56.3706 128.344 56.5496 128.892 56.8817 129.345C57.1874 129.772 57.6142 130.098 58.1069 130.28C58.5261 130.436 58.9772 130.485 59.42 130.423C59.8628 130.362 60.2837 130.192 60.6449 129.929C61.1434 129.564 61.5103 129.047 61.6907 128.456C61.8128 128.036 61.8166 127.78 61.851 127.784C61.9135 128.017 61.9135 128.261 61.851 128.494C61.7173 129.147 61.3579 129.732 60.8357 130.147C60.4712 130.435 60.0436 130.634 59.5877 130.727C58.9917 130.845 58.3738 130.78 57.8154 130.541C57.257 130.301 56.7843 129.898 56.4596 129.384C56.1348 128.871 55.9732 128.271 55.9961 127.664C56.019 127.056 56.2253 126.47 56.5878 125.983C56.9411 125.498 57.4338 125.133 58 124.937C58.508 124.757 59.0553 124.717 59.5839 124.822C60.0427 124.916 60.4722 125.119 60.8357 125.414C61.3617 125.828 61.7241 126.415 61.8586 127.07C61.9182 127.305 61.9156 127.551 61.851 127.784Z" fill="#FF725E"/>
<path d="M101.895 141.654C101.857 141.654 101.857 141.402 101.731 140.978C101.551 140.389 101.185 139.873 100.689 139.509C100.35 139.261 99.958 139.096 99.5439 139.028C99.0736 138.949 98.5908 138.993 98.1432 139.158C97.6342 139.348 97.1954 139.688 96.8851 140.134C96.5749 140.58 96.4079 141.11 96.4066 141.654C96.4094 142.216 96.5882 142.763 96.918 143.218C97.2262 143.642 97.6523 143.966 98.1432 144.15C98.5901 144.317 99.0733 144.363 99.5439 144.283C99.9571 144.212 100.349 144.048 100.689 143.802C101.186 143.437 101.552 142.92 101.731 142.329C101.857 141.906 101.857 141.654 101.895 141.654C101.955 141.888 101.955 142.133 101.895 142.367C101.76 143.023 101.398 143.61 100.872 144.024C100.509 144.316 100.081 144.516 99.624 144.608C99.0954 144.713 98.5481 144.673 98.0401 144.493C97.4722 144.298 96.978 143.933 96.6241 143.447C96.2376 142.929 96.0287 142.3 96.0287 141.654C96.0287 141.007 96.2376 140.378 96.6241 139.86C96.964 139.404 97.4265 139.054 97.9577 138.851C98.4889 138.649 99.0669 138.601 99.624 138.715C100.08 138.807 100.507 139.006 100.872 139.295C101.399 139.71 101.761 140.298 101.895 140.955C101.954 141.184 101.954 141.425 101.895 141.654Z" fill="#FF725E"/>
<path d="M93.9334 141.654C93.8991 141.654 93.8953 141.402 93.7693 140.978C93.5909 140.388 93.2252 139.872 92.7274 139.509C92.3888 139.261 91.9965 139.096 91.5824 139.028C91.1134 138.948 90.6318 138.993 90.1855 139.158C89.6922 139.339 89.2652 139.665 88.9604 140.093C88.6286 140.545 88.4494 141.092 88.449 141.654C88.4494 142.216 88.627 142.763 88.9566 143.218C89.2658 143.643 89.6932 143.967 90.1855 144.15C90.6309 144.318 91.1132 144.364 91.5824 144.283C91.9957 144.212 92.3873 144.048 92.7274 143.802C93.2262 143.438 93.5922 142.921 93.7693 142.329C93.8953 141.906 93.8991 141.654 93.9334 141.654C93.9965 141.887 93.9965 142.134 93.9334 142.367C93.8008 143.024 93.4381 143.611 92.9106 144.024C92.5482 144.317 92.1198 144.517 91.6625 144.608C91.1339 144.713 90.5866 144.673 90.0786 144.493C89.5114 144.297 89.0174 143.932 88.6627 143.447C88.2761 142.929 88.0673 142.3 88.0673 141.654C88.0673 141.007 88.2761 140.378 88.6627 139.86C89.0025 139.404 89.4651 139.054 89.9963 138.851C90.5275 138.649 91.1054 138.601 91.6625 138.715C92.1189 138.806 92.5469 139.005 92.9106 139.295C93.4383 139.709 93.801 140.298 93.9334 140.955C93.9948 141.184 93.9948 141.425 93.9334 141.654Z" fill="#FF725E"/>
<path d="M85.0789 141.654C85.0445 141.654 85.0407 141.402 84.9148 140.978C84.7364 140.388 84.3706 139.872 83.8728 139.509C83.5348 139.26 83.1423 139.095 82.7279 139.028C82.2576 138.948 81.7748 138.993 81.3272 139.158C80.8182 139.348 80.3794 139.689 80.0691 140.134C79.7589 140.58 79.5919 141.11 79.5906 141.654C79.5919 142.197 79.7589 142.727 80.0691 143.173C80.3794 143.619 80.8182 143.96 81.3272 144.15C81.774 144.317 82.2574 144.363 82.7279 144.283C83.1413 144.213 83.533 144.048 83.8728 143.802C84.3717 143.438 84.7376 142.921 84.9148 142.329C85.0407 141.906 85.0445 141.654 85.0789 141.654C85.141 141.888 85.141 142.134 85.0789 142.367C84.9444 143.023 84.582 143.61 84.056 144.024C83.6917 144.316 83.2623 144.516 82.8042 144.608C82.2755 144.713 81.7283 144.673 81.2203 144.493C80.6536 144.297 80.1607 143.932 79.8081 143.447C79.4439 142.961 79.2361 142.375 79.2121 141.767C79.1881 141.159 79.3491 140.559 79.6738 140.045C79.9985 139.53 80.4716 139.127 81.0306 138.887C81.5895 138.648 82.208 138.584 82.8042 138.703C83.2615 138.795 83.6905 138.994 84.056 139.284C84.5825 139.699 84.9449 140.287 85.0789 140.944C85.1414 141.176 85.1414 141.421 85.0789 141.654Z" fill="#FF725E"/>
<path d="M100.666 129.2C100.84 129.169 101.01 129.12 101.174 129.055C101.363 128.968 101.529 128.837 101.658 128.673C101.83 128.446 101.921 128.168 101.918 127.883C101.917 127.709 101.879 127.536 101.806 127.378C101.733 127.219 101.626 127.078 101.494 126.964C101.346 126.831 101.168 126.738 100.975 126.693C100.874 126.668 100.77 126.656 100.666 126.654H100.315L97.0707 126.685C92.2694 126.719 85.6208 126.742 78.3044 126.742C78.0301 126.767 77.7739 126.889 77.5826 127.087C77.3914 127.286 77.2779 127.546 77.2631 127.821C77.2483 128.096 77.333 128.367 77.5018 128.585C77.6707 128.802 77.9122 128.952 78.1823 129.005C78.583 129.005 79.0486 129.005 79.4685 129.005H84.453L92.8915 129.047L98.5783 129.109L100.128 129.147C100.308 129.143 100.488 129.157 100.666 129.189C100.488 129.218 100.308 129.23 100.128 129.227L98.5783 129.265L92.8915 129.33L84.453 129.372H79.4685C79.0295 129.372 78.6212 129.372 78.1441 129.372C77.9436 129.361 77.7472 129.311 77.566 129.225C77.3848 129.139 77.2224 129.017 77.0881 128.868C76.9537 128.719 76.8501 128.545 76.7831 128.355C76.7161 128.166 76.6871 127.966 76.6976 127.765C76.7081 127.565 76.758 127.368 76.8445 127.187C76.9309 127.006 77.0522 126.843 77.2014 126.709C77.3506 126.575 77.5248 126.471 77.7141 126.404C77.9033 126.337 78.1039 126.308 78.3044 126.319C85.6323 126.319 92.2694 126.341 97.0707 126.376L100.315 126.406H100.666C100.787 126.41 100.908 126.428 101.025 126.46C101.248 126.517 101.453 126.63 101.62 126.788C101.767 126.923 101.883 127.087 101.961 127.27C102.039 127.453 102.078 127.65 102.074 127.849C102.069 128.12 101.983 128.384 101.829 128.607C101.675 128.83 101.459 129.003 101.208 129.105C101.078 129.154 100.942 129.183 100.803 129.189C100.712 129.204 100.666 129.208 100.666 129.2Z" fill="#FF725E"/>
<path d="M100.666 134.726C100.84 134.695 101.01 134.646 101.174 134.581C101.398 134.477 101.588 134.309 101.72 134.099C101.852 133.89 101.921 133.646 101.918 133.398C101.916 133.224 101.878 133.051 101.805 132.893C101.732 132.734 101.626 132.593 101.494 132.478C101.346 132.346 101.168 132.253 100.975 132.207C100.874 132.183 100.77 132.17 100.666 132.169H100.315L97.0707 132.2C92.2694 132.238 85.6208 132.257 78.3044 132.257C78.0301 132.282 77.7739 132.404 77.5826 132.602C77.3914 132.8 77.278 133.061 77.2631 133.336C77.2483 133.611 77.333 133.882 77.5018 134.099C77.6707 134.317 77.9122 134.466 78.1823 134.52C78.583 134.52 79.0486 134.52 79.4685 134.52H84.453L92.8915 134.562L98.5783 134.627L100.128 134.662C100.308 134.658 100.488 134.672 100.666 134.704C100.488 134.735 100.308 134.748 100.128 134.742L98.5783 134.78L92.8915 134.845L84.453 134.887H79.4685C79.0295 134.887 78.6212 134.887 78.1441 134.887C77.8879 134.86 77.6426 134.769 77.4312 134.622C77.2197 134.475 77.0488 134.277 76.9346 134.046C76.8203 133.815 76.7663 133.559 76.7776 133.301C76.7888 133.044 76.8651 132.794 76.9991 132.574C77.1353 132.349 77.3274 132.163 77.5568 132.033C77.7862 131.904 78.045 131.837 78.3082 131.837C85.6361 131.837 92.2732 131.86 97.0745 131.898L100.319 131.925H100.67C100.791 131.929 100.911 131.947 101.029 131.978C101.333 132.06 101.602 132.241 101.792 132.493C101.982 132.744 102.083 133.052 102.078 133.368C102.073 133.684 101.958 133.989 101.754 134.23C101.608 134.401 101.422 134.532 101.212 134.612C101.083 134.664 100.946 134.692 100.807 134.696C100.713 134.716 100.666 134.726 100.666 134.726Z" fill="#FF725E"/>
<path d="M100.345 112.38C100.345 112.487 93.5098 112.579 85.0789 112.579C76.648 112.579 69.8124 112.487 69.8124 112.38C69.8124 112.273 76.648 112.182 85.0789 112.182C93.5098 112.182 100.345 112.27 100.345 112.38Z" fill="#FF725E"/>
<g opacity="0.3">
<path d="M123.89 104.464H149.442C151.915 104.464 153.919 102.46 153.919 99.9876V42.5971C153.919 40.1246 151.915 38.1203 149.442 38.1203H123.89C121.418 38.1203 119.413 40.1246 119.413 42.5971V99.9876C119.413 102.46 121.418 104.464 123.89 104.464Z" fill="black"/>
</g>
<path d="M123.646 102.797H147.137C150.179 102.797 152.644 100.331 152.644 97.2893V37.3532C152.644 34.3115 150.179 31.8458 147.137 31.8458H123.646C120.604 31.8458 118.138 34.3115 118.138 37.3532V97.2893C118.138 100.331 120.604 102.797 123.646 102.797Z" fill="white"/>
<path d="M125.046 31.8458H145.74C147.562 31.8458 149.31 32.5696 150.598 33.858C151.886 35.1463 152.61 36.8937 152.61 38.7157V59.3255C152.61 61.9674 151.561 64.5011 149.692 66.3692C147.824 68.2373 145.291 69.2868 142.649 69.2868H128.146C125.504 69.2868 122.97 68.2373 121.102 66.3692C119.234 64.5011 118.184 61.9674 118.184 59.3255V38.7157C118.184 36.895 118.907 35.1488 120.194 33.8607C121.48 32.5725 123.226 31.8478 125.046 31.8458Z" fill="#F5F5F5"/>
<path d="M146.755 43.3148H122.932C121.465 43.3148 120.276 44.5041 120.276 45.9712V47.4024C120.276 48.8695 121.465 50.0588 122.932 50.0588H146.755C148.222 50.0588 149.412 48.8695 149.412 47.4024V45.9712C149.412 44.5041 148.222 43.3148 146.755 43.3148Z" fill="#E0E0E0"/>
<path d="M144.519 37.5059C144.647 37.5059 144.773 37.544 144.879 37.6153C144.986 37.6866 145.069 37.7879 145.118 37.9065C145.167 38.025 145.18 38.1555 145.155 38.2813C145.13 38.4072 145.068 38.5228 144.978 38.6135C144.887 38.7043 144.771 38.7661 144.645 38.7911C144.52 38.8161 144.389 38.8033 144.271 38.7542C144.152 38.7051 144.051 38.6219 143.979 38.5152C143.908 38.4085 143.87 38.2831 143.87 38.1547C143.871 37.983 143.94 37.8185 144.061 37.6971C144.183 37.5756 144.347 37.5069 144.519 37.5059Z" fill="#263238"/>
<path d="M146.381 37.5059C146.51 37.5059 146.635 37.544 146.742 37.6153C146.849 37.6866 146.932 37.7879 146.981 37.9065C147.03 38.025 147.043 38.1555 147.018 38.2813C146.993 38.4072 146.931 38.5228 146.84 38.6135C146.749 38.7043 146.634 38.7661 146.508 38.7911C146.382 38.8161 146.252 38.8033 146.133 38.7542C146.015 38.7051 145.913 38.6219 145.842 38.5152C145.771 38.4085 145.733 38.2831 145.733 38.1547C145.733 37.9827 145.801 37.8176 145.923 37.696C146.044 37.5743 146.209 37.5059 146.381 37.5059Z" fill="#263238"/>
<path d="M148.244 38.8036C148.602 38.8036 148.893 38.5131 148.893 38.1547C148.893 37.7964 148.602 37.5059 148.244 37.5059C147.886 37.5059 147.595 37.7964 147.595 38.1547C147.595 38.5131 147.886 38.8036 148.244 38.8036Z" fill="#263238"/>
<path d="M122.489 37.1776L121.707 37.9867C121.685 38.0087 121.667 38.0349 121.655 38.0637C121.643 38.0925 121.637 38.1235 121.637 38.1547C121.637 38.1859 121.643 38.2168 121.655 38.2456C121.667 38.2744 121.685 38.3006 121.707 38.3226L122.489 38.9714C122.536 39.0078 122.594 39.0258 122.653 39.0221C122.712 39.0183 122.767 38.9931 122.809 38.9512C122.85 38.9092 122.875 38.8535 122.878 38.7946C122.881 38.7357 122.862 38.6778 122.825 38.6318L122.043 37.9867V38.3226L122.825 37.5173C122.852 37.4964 122.874 37.4701 122.89 37.4401C122.906 37.4101 122.915 37.3771 122.917 37.3432C122.919 37.3094 122.914 37.2754 122.902 37.2437C122.89 37.2119 122.872 37.183 122.848 37.1589C122.824 37.1348 122.795 37.116 122.764 37.1037C122.732 37.0915 122.698 37.0861 122.664 37.0879C122.631 37.0896 122.597 37.0985 122.567 37.114C122.537 37.1295 122.511 37.1512 122.489 37.1776Z" fill="#263238"/>
<path d="M123.447 46.6123C123.448 46.7267 123.413 46.8385 123.347 46.932C123.281 47.0254 123.187 47.096 123.079 47.1338C122.971 47.1717 122.854 47.1748 122.744 47.1429C122.635 47.111 122.537 47.0456 122.466 46.9558C122.396 46.8684 122.354 46.7615 122.347 46.6495C122.339 46.5375 122.366 46.4258 122.424 46.3299C122.486 46.2259 122.58 46.145 122.692 46.0997C122.804 46.0545 122.928 46.0474 123.044 46.0795C123.16 46.1117 123.263 46.1813 123.336 46.2776C123.409 46.3739 123.448 46.4915 123.447 46.6123C123.453 46.6462 123.47 46.6771 123.497 46.6994C123.523 46.7216 123.556 46.7339 123.59 46.7339C123.625 46.7339 123.658 46.7216 123.684 46.6994C123.711 46.6771 123.728 46.6462 123.734 46.6123C123.733 46.4403 123.679 46.2727 123.579 46.1325C123.48 45.9922 123.339 45.8861 123.177 45.8286C123.015 45.7711 122.839 45.765 122.673 45.8112C122.508 45.8574 122.36 45.9535 122.251 46.0866C122.142 46.2196 122.077 46.3831 122.064 46.5546C122.051 46.7262 122.092 46.8975 122.18 47.0451C122.268 47.1928 122.4 47.3096 122.557 47.3797C122.714 47.4498 122.889 47.4697 123.058 47.4367C123.248 47.3967 123.418 47.2932 123.541 47.1433C123.664 46.9934 123.732 46.8061 123.734 46.6123C123.728 46.5783 123.711 46.5475 123.684 46.5252C123.658 46.5029 123.625 46.4907 123.59 46.4907C123.556 46.4907 123.523 46.5029 123.497 46.5252C123.47 46.5475 123.453 46.5783 123.447 46.6123Z" fill="#263238"/>
<path d="M123.268 47.223L123.531 47.513L123.569 47.555C123.582 47.5684 123.598 47.5789 123.615 47.5862C123.632 47.5934 123.65 47.5971 123.669 47.597C123.707 47.5965 123.744 47.5815 123.772 47.555C123.797 47.5275 123.811 47.4914 123.811 47.4539C123.811 47.4164 123.797 47.3803 123.772 47.3528L123.508 47.0627L123.47 47.0207C123.457 47.0074 123.442 46.9968 123.425 46.9896C123.408 46.9824 123.39 46.9787 123.371 46.9787C123.352 46.9784 123.333 46.9819 123.315 46.9891C123.297 46.9964 123.281 47.0071 123.268 47.0207C123.242 47.0482 123.228 47.0843 123.228 47.1218C123.228 47.1593 123.242 47.1955 123.268 47.223Z" fill="#263238"/>
<path d="M123.379 56.0013H121.654C121.308 56.0003 120.977 55.8623 120.733 55.6176C120.489 55.3729 120.352 55.0415 120.352 54.696C120.352 54.3508 120.489 54.0198 120.733 53.7757C120.977 53.5317 121.308 53.3945 121.654 53.3945H123.379C123.724 53.3945 124.055 53.5317 124.299 53.7757C124.543 54.0198 124.68 54.3508 124.68 54.696C124.68 55.0415 124.543 55.3729 124.299 55.6176C124.055 55.8623 123.724 56.0003 123.379 56.0013Z" fill="#FF725E"/>
<path d="M148.553 56.0013H146.832C146.486 56.0003 146.155 55.8623 145.911 55.6176C145.667 55.3729 145.53 55.0415 145.53 54.696C145.53 54.3508 145.667 54.0198 145.911 53.7757C146.156 53.5317 146.487 53.3945 146.832 53.3945H148.553C148.899 53.3945 149.23 53.5315 149.475 53.7755C149.719 54.0195 149.857 54.3505 149.858 54.696C149.858 54.8674 149.825 55.0371 149.759 55.1955C149.693 55.3539 149.597 55.4978 149.476 55.619C149.355 55.7402 149.211 55.8363 149.053 55.9019C148.894 55.9675 148.724 56.0013 148.553 56.0013Z" fill="#E0E0E0"/>
<path d="M134.775 56.0013H127.668C127.323 56.0003 126.992 55.8623 126.748 55.6176C126.504 55.3729 126.367 55.0415 126.367 54.696C126.367 54.3508 126.504 54.0198 126.748 53.7757C126.992 53.5317 127.323 53.3945 127.668 53.3945H134.775C135.121 53.3945 135.452 53.5315 135.697 53.7755C135.941 54.0195 136.079 54.3505 136.08 54.696C136.08 54.8674 136.047 55.0371 135.981 55.1955C135.915 55.3539 135.819 55.4978 135.698 55.619C135.577 55.7402 135.433 55.8363 135.275 55.9019C135.116 55.9675 134.946 56.0013 134.775 56.0013Z" fill="#EBEBEB"/>
<path d="M142.943 56.0013H138.496C138.151 56.0003 137.82 55.8623 137.576 55.6176C137.332 55.3729 137.195 55.0415 137.195 54.696C137.195 54.3508 137.332 54.0198 137.576 53.7757C137.82 53.5317 138.151 53.3945 138.496 53.3945H142.943C143.288 53.3945 143.619 53.5317 143.863 53.7757C144.107 54.0198 144.244 54.3508 144.244 54.696C144.245 54.8672 144.211 55.0369 144.146 55.1952C144.081 55.3536 143.985 55.4975 143.864 55.6187C143.743 55.74 143.6 55.8362 143.442 55.9019C143.283 55.9675 143.114 56.0013 142.943 56.0013Z" fill="#455A64"/>
<path d="M129.371 80.9161H123.47C122.939 80.9161 122.508 81.3467 122.508 81.8779C122.508 82.409 122.939 82.8397 123.47 82.8397H129.371C129.902 82.8397 130.332 82.409 130.332 81.8779C130.332 81.3467 129.902 80.9161 129.371 80.9161Z" fill="#FF725E"/>
<path d="M148.4 95.3237C148.4 95.5827 148.324 95.8358 148.18 96.051C148.036 96.2663 147.831 96.4341 147.592 96.5332C147.353 96.6323 147.09 96.6582 146.836 96.6077C146.582 96.5572 146.349 96.4325 146.166 96.2494C145.982 96.0663 145.858 95.8331 145.807 95.5791C145.757 95.3252 145.783 95.062 145.882 94.8228C145.981 94.5836 146.149 94.3791 146.364 94.2353C146.579 94.0914 146.832 94.0146 147.091 94.0146C147.438 94.0157 147.771 94.1539 148.016 94.3992C148.261 94.6445 148.399 94.9769 148.4 95.3237Z" fill="#FF725E"/>
<path d="M144.637 95.3237C144.637 95.5827 144.56 95.8358 144.417 96.051C144.273 96.2663 144.068 96.4341 143.829 96.5332C143.59 96.6323 143.327 96.6582 143.073 96.6077C142.819 96.5572 142.585 96.4325 142.402 96.2494C142.219 96.0663 142.095 95.8331 142.044 95.5791C141.994 95.3252 142.02 95.062 142.119 94.8228C142.218 94.5836 142.386 94.3791 142.601 94.2353C142.816 94.0914 143.069 94.0146 143.328 94.0146C143.675 94.0146 144.008 94.1526 144.254 94.3981C144.499 94.6436 144.637 94.9765 144.637 95.3237Z" fill="#FF725E"/>
<path d="M140.603 95.3237C140.603 95.5827 140.526 95.8358 140.382 96.051C140.239 96.2663 140.034 96.4341 139.795 96.5332C139.556 96.6323 139.292 96.6582 139.039 96.6077C138.785 96.5572 138.551 96.4325 138.368 96.2494C138.185 96.0663 138.06 95.8331 138.01 95.5791C137.959 95.3252 137.985 95.062 138.084 94.8228C138.184 94.5836 138.351 94.3791 138.567 94.2353C138.782 94.0914 139.035 94.0146 139.294 94.0146C139.641 94.0157 139.973 94.1539 140.218 94.3992C140.464 94.6445 140.602 94.9769 140.603 95.3237Z" fill="#FF725E"/>
<path d="M148.484 89.5798H138.179C138.097 89.5818 138.016 89.5674 137.94 89.5375C137.863 89.5075 137.794 89.4626 137.735 89.4053C137.676 89.348 137.63 89.2796 137.598 89.204C137.566 89.1285 137.55 89.0473 137.55 88.9653C137.55 88.8023 137.614 88.646 137.73 88.5308C137.845 88.4156 138.001 88.3508 138.164 88.3508H148.469C148.632 88.3508 148.788 88.4156 148.904 88.5308C149.019 88.646 149.084 88.8023 149.084 88.9653C149.084 89.1257 149.021 89.2797 148.909 89.3945C148.797 89.5093 148.645 89.5758 148.484 89.5798Z" fill="#263238"/>
<path d="M148.484 92.1255H138.179C138.016 92.1255 137.86 92.0608 137.745 91.9455C137.63 91.8303 137.565 91.674 137.565 91.511C137.565 91.3481 137.63 91.1918 137.745 91.0765C137.86 90.9613 138.016 90.8965 138.179 90.8965H148.484C148.647 90.8965 148.804 90.9613 148.919 91.0765C149.034 91.1918 149.099 91.3481 149.099 91.511C149.099 91.674 149.034 91.8303 148.919 91.9455C148.804 92.0608 148.647 92.1255 148.484 92.1255Z" fill="#263238"/>
<path d="M146.462 59.7529H124.066C122.683 59.7529 121.562 60.8739 121.562 62.2566V74.5499C121.562 75.9327 122.683 77.0536 124.066 77.0536H146.462C147.844 77.0536 148.965 75.9327 148.965 74.5499V62.2566C148.965 60.8739 147.844 59.7529 146.462 59.7529Z" fill="white"/>
<path d="M133.859 66.848C134.869 66.848 135.687 66.0295 135.687 65.0199C135.687 64.0102 134.869 63.1917 133.859 63.1917C132.849 63.1917 132.031 64.0102 132.031 65.0199C132.031 66.0295 132.849 66.848 133.859 66.848Z" fill="#455A64"/>
<path d="M148.965 74.8286V68.6991C148.288 67.8615 147.529 67.0943 146.698 66.4091C145.339 65.3328 143.698 64.6153 142.057 64.7947C139.931 65.0237 138.115 66.703 136.867 68.6838C136.256 69.6571 135.622 70.8097 134.577 71.0119C133.783 71.1684 133 70.6875 132.367 70.1189C131.733 69.5502 131.165 68.867 130.428 68.4968C128.951 67.7526 127.237 68.4472 125.802 69.283C124.29 70.163 122.865 71.1854 121.547 72.3363V74.8247C121.547 76.0537 122.421 77.0498 123.497 77.0498H147.003C148.095 77.0537 148.965 76.0575 148.965 74.8286Z" fill="#455A64"/>
<path d="M146.465 77.0537C146.752 77.0389 147.035 76.9823 147.305 76.8857C147.63 76.7634 147.927 76.575 148.175 76.3323C148.514 76.003 148.752 75.583 148.858 75.1225C148.916 74.8465 148.937 74.5643 148.923 74.2828C148.923 73.9851 148.923 73.6721 148.923 73.3439C148.923 72.6875 148.923 71.9776 148.923 71.2142C148.923 69.6876 148.923 67.9396 148.923 66.016C148.923 65.0542 148.923 64.0466 148.923 62.9933C148.968 62.4682 148.918 61.9394 148.774 61.4323C148.59 60.921 148.238 60.4875 147.774 60.2033C147.541 60.0541 147.282 59.9492 147.011 59.8942C146.73 59.844 146.445 59.8248 146.16 59.8369H140.63H124.066C123.537 59.8371 123.023 60.0115 122.604 60.333C122.185 60.6545 121.883 61.1052 121.745 61.6155C121.669 61.9585 121.641 62.3104 121.661 62.6612V66.8862C121.661 68.2716 121.661 69.6342 121.661 70.9662V72.9432C121.661 73.2676 121.661 73.592 121.661 73.9164C121.653 74.2322 121.662 74.5481 121.688 74.8629C121.769 75.4698 122.079 76.0227 122.554 76.4087C123.019 76.785 123.606 76.9779 124.203 76.9506H127.71H134.008L143.13 76.9811L145.607 77.0002L143.13 77.0193L134.008 77.0498H127.71H124.192C123.553 77.0783 122.927 76.8735 122.428 76.4735C121.916 76.058 121.582 75.4629 121.493 74.8095C121.465 74.4871 121.456 74.1635 121.466 73.8401V72.8668C121.466 72.2142 121.466 71.5539 121.466 70.8898V66.9015C121.466 65.516 121.466 64.1077 121.466 62.6765C121.446 62.3089 121.477 61.9402 121.558 61.5811C121.653 61.216 121.83 60.8769 122.073 60.5888C122.318 60.297 122.623 60.0621 122.968 59.9006C123.313 59.7391 123.689 59.6548 124.069 59.6537H140.634H146.133C146.43 59.6417 146.727 59.6622 147.019 59.7148C147.445 59.8086 147.841 60.0091 148.168 60.2975C148.496 60.5858 148.745 60.9526 148.893 61.3636C148.99 61.625 149.042 61.9013 149.045 62.1803V62.978C149.045 64.0314 149.045 65.039 149.045 66.0007C149.045 67.9091 149.045 69.6647 149.045 71.199C149.045 71.9623 149.045 72.6722 149.045 73.3286C149.045 73.6569 149.045 73.9698 149.045 74.2675C149.056 74.5546 149.03 74.8418 148.969 75.1225C148.853 75.596 148.604 76.0265 148.252 76.3629C147.993 76.6037 147.687 76.7894 147.355 76.9086C147.15 76.9804 146.937 77.024 146.721 77.0384C146.538 77.0575 146.465 77.0537 146.465 77.0537Z" fill="#263238"/>
<path d="M131.584 85.664H124.791C122.984 85.664 121.52 87.1284 121.52 88.9348V94.5033C121.52 96.3097 122.984 97.7741 124.791 97.7741H131.584C133.391 97.7741 134.855 96.3097 134.855 94.5033V88.9348C134.855 87.1284 133.391 85.664 131.584 85.664Z" fill="white"/>
<path d="M129.951 89.1599C129.952 89.4199 129.875 89.6743 129.731 89.8908C129.587 90.1073 129.382 90.2762 129.142 90.376C128.902 90.4758 128.638 90.5022 128.383 90.4516C128.128 90.4011 127.893 90.276 127.71 90.0921C127.526 89.9083 127.401 89.674 127.35 89.419C127.3 89.1639 127.326 88.8996 127.426 88.6596C127.526 88.4195 127.694 88.2145 127.911 88.0705C128.127 87.9265 128.382 87.8501 128.642 87.8508C128.989 87.8518 129.321 87.9901 129.566 88.2354C129.812 88.4807 129.95 88.8131 129.951 89.1599Z" fill="#FF725E"/>
<path d="M124.882 97.774H131.485C131.927 97.7745 132.365 97.6879 132.773 97.5192C133.181 97.3504 133.553 97.1028 133.865 96.7905C134.178 96.4783 134.426 96.1074 134.595 95.6992C134.764 95.291 134.851 94.8535 134.851 94.4116V90.3431C134.369 90.1719 133.859 90.0904 133.348 90.1026C132.565 90.1457 131.82 90.4555 131.237 90.9805C130.695 91.4499 130.298 91.9995 129.802 92.5071C129.465 92.8864 129.001 93.1294 128.497 93.1903C127.207 93.2742 126.672 91.8583 125.443 91.5797C124.854 91.4726 124.245 91.5824 123.73 91.8888C123.287 92.1695 122.892 92.5186 122.558 92.9231L121.528 94.0681V94.4498C121.537 95.3339 121.894 96.1788 122.522 96.8011C123.15 97.4235 123.998 97.7731 124.882 97.774Z" fill="#FF725E"/>
<path d="M131.611 97.774C131.611 97.774 131.771 97.774 132.069 97.7205C132.625 97.631 133.149 97.3981 133.588 97.0448C134.027 96.6914 134.366 96.2298 134.573 95.7053C134.893 94.942 134.76 94.007 134.783 92.9879C134.806 91.9689 134.783 90.8392 134.783 89.6331C134.83 89.0215 134.761 88.4064 134.58 87.8202C134.36 87.2153 133.961 86.692 133.435 86.3203C132.874 85.9371 132.206 85.7408 131.527 85.7592H124.76C124.005 85.7619 123.274 86.0324 122.699 86.5226C122.145 87.0035 121.777 87.6642 121.661 88.3889C121.615 88.747 121.6 89.1083 121.615 89.469C121.615 89.8507 121.615 90.1903 121.615 90.5453V94.6062C121.627 95.196 121.805 95.7704 122.129 96.2639C122.452 96.7573 122.908 97.1497 123.444 97.3961C123.922 97.6134 124.445 97.7154 124.97 97.6938L129.829 97.7243L131.149 97.7434H131.489H131.607C131.568 97.7485 131.528 97.7485 131.489 97.7434H131.149L129.829 97.7625L124.97 97.793C124.422 97.8227 123.875 97.7206 123.375 97.4953C122.826 97.245 122.356 96.849 122.016 96.3504C121.653 95.8194 121.451 95.1955 121.432 94.5527C121.432 93.9077 121.432 93.2474 121.432 92.5681C121.432 91.8887 121.432 91.1979 121.432 90.488C121.432 90.1331 121.432 89.7743 121.432 89.4118C121.417 89.0409 121.433 88.6695 121.478 88.3011C121.602 87.5308 121.992 86.8285 122.581 86.3165C123.191 85.7916 123.967 85.5007 124.772 85.4959H131.508C132.226 85.4762 132.932 85.6861 133.523 86.0951C134.083 86.4867 134.51 87.041 134.745 87.6828C134.931 88.2889 134.999 88.9249 134.947 89.5568C134.947 90.7628 134.947 91.8849 134.947 92.9116C134.947 93.423 134.947 93.9115 134.947 94.3734C134.951 94.8161 134.869 95.2554 134.706 95.6672C134.441 96.3285 133.966 96.8848 133.355 97.2511C132.975 97.4854 132.547 97.6326 132.103 97.6824C131.943 97.7313 131.778 97.762 131.611 97.774Z" fill="#263238"/>
<path d="M123.516 102.797C123.516 102.797 123.34 102.797 122.997 102.797C121.648 102.675 120.396 102.046 119.493 101.037C118.728 100.189 118.251 99.1202 118.131 97.9839C118.081 97.3428 118.108 96.6748 118.096 95.965C118.085 95.2551 118.096 94.5185 118.096 93.7475C118.096 92.1979 118.096 90.5199 118.096 88.7134C118.096 85.099 118.096 80.9847 118.096 76.4391C118.096 67.3441 118.096 56.5126 118.096 44.4903C118.096 42.9865 118.096 41.4599 118.096 39.9103C118.096 39.147 118.096 38.3837 118.115 37.5822C118.192 36.3728 118.62 35.2121 119.347 34.2426C120.073 33.273 121.068 32.5368 122.207 32.1244C122.98 31.8516 123.796 31.7223 124.615 31.7428H146.015C146.452 31.7327 146.889 31.7493 147.324 31.7924C148.196 31.9015 149.035 32.1927 149.787 32.647C150.54 33.1013 151.188 33.7087 151.69 34.4297C152.187 35.1449 152.526 35.9582 152.683 36.815C152.793 37.6626 152.83 38.5182 152.793 39.3722V49.3526C152.793 55.8981 152.793 62.2108 152.793 68.222C152.793 74.2331 152.793 79.9504 152.793 85.2975C152.793 87.9717 152.793 90.5517 152.793 93.0376V96.6825C152.814 97.276 152.78 97.8701 152.69 98.4572C152.573 99.0279 152.37 99.5775 152.087 100.087C151.806 100.583 151.448 101.031 151.026 101.415C150.217 102.163 149.198 102.645 148.106 102.797C147.587 102.855 147.064 102.875 146.542 102.858H140.756L131.489 102.839L125.63 102.82L131.489 102.801L140.756 102.781H146.542C147.058 102.8 147.574 102.781 148.087 102.724C148.61 102.653 149.119 102.501 149.595 102.274C150.087 102.046 150.539 101.741 150.935 101.369C151.344 100.995 151.691 100.556 151.961 100.072C152.239 99.575 152.437 99.038 152.549 98.4801C152.637 97.9031 152.669 97.319 152.644 96.7359C152.644 95.5451 152.644 94.3302 152.644 93.091C152.644 90.6077 152.644 88.0277 152.644 85.3509C152.644 80.0077 152.644 74.2828 152.644 68.2754C152.644 62.268 152.644 55.9515 152.644 49.4061C152.644 46.1365 152.644 42.8097 152.644 39.4256C152.684 38.5844 152.648 37.7414 152.538 36.9066C152.383 36.0837 152.055 35.303 151.576 34.6167C151.09 33.9183 150.463 33.33 149.735 32.89C149.007 32.4501 148.195 32.1684 147.351 32.0634C146.924 32.0199 146.494 32.0034 146.065 32.0137H124.573C123.775 31.9975 122.981 32.1268 122.23 32.3954C121.124 32.7933 120.159 33.5063 119.454 34.4463C118.748 35.3863 118.333 36.5123 118.261 37.6852C118.222 38.4486 118.261 39.2348 118.241 40.0019V44.5819C118.241 56.6042 118.241 67.4357 118.219 76.5307C118.219 81.0763 118.219 85.1906 118.219 88.805C118.219 90.609 118.219 92.287 118.219 93.8391C118.219 94.6024 118.219 95.3657 118.219 96.0565C118.219 96.7474 118.196 97.4382 118.241 98.0679C118.357 99.1896 118.822 100.247 119.57 101.091C120.117 101.709 120.8 102.191 121.566 102.499C122.193 102.712 122.854 102.812 123.516 102.797Z" fill="#263238"/>
<path d="M135.26 120.254C135.206 120.254 135.161 116.346 135.161 111.525C135.161 106.705 135.206 102.797 135.26 102.797C135.313 102.797 135.359 106.705 135.359 111.525C135.359 116.346 135.321 120.254 135.26 120.254Z" fill="#263238"/>
<path d="M136.702 31.2467C136.702 31.6143 136.593 31.9737 136.389 32.2793C136.185 32.585 135.895 32.8232 135.555 32.9639C135.215 33.1046 134.842 33.1414 134.481 33.0697C134.121 32.998 133.789 32.8209 133.529 32.561C133.27 32.301 133.092 31.9699 133.021 31.6093C132.949 31.2488 132.986 30.875 133.127 30.5354C133.267 30.1958 133.505 29.9055 133.811 29.7012C134.117 29.497 134.476 29.388 134.844 29.388C135.337 29.388 135.809 29.5838 136.158 29.9324C136.507 30.281 136.702 30.7537 136.702 31.2467Z" fill="#263238"/>
<path d="M135.393 121.708C136.418 121.708 137.248 120.878 137.248 119.853C137.248 118.829 136.418 117.998 135.393 117.998C134.369 117.998 133.538 118.829 133.538 119.853C133.538 120.878 134.369 121.708 135.393 121.708Z" fill="#263238"/>
<path d="M113.677 23.6248C113.772 23.6142 113.868 23.6142 113.963 23.6248L114.784 23.6057L117.799 23.5714L127.756 23.5447H131.955C132.401 23.5382 132.842 23.6349 133.245 23.8271C133.617 24.0027 133.949 24.2549 134.218 24.5673C134.487 24.8796 134.687 25.2451 134.806 25.64C134.901 25.9903 134.938 26.3539 134.916 26.7163C134.916 27.0636 134.916 27.3995 134.916 27.7162C134.916 28.9757 134.893 30.0062 134.886 30.7352C134.886 31.0749 134.886 31.3497 134.867 31.5557C134.866 31.6515 134.86 31.747 134.848 31.842C134.83 31.7476 134.823 31.6517 134.825 31.5557C134.825 31.3497 134.825 31.0749 134.825 30.7352C134.825 30.0024 134.806 28.9757 134.79 27.7162C134.79 27.3995 134.79 27.0636 134.79 26.7163C134.805 26.3632 134.762 26.0101 134.664 25.6705C134.55 25.3002 134.359 24.958 134.104 24.6661C133.849 24.3742 133.535 24.1391 133.184 23.976C132.443 23.5943 131.535 23.747 130.619 23.7164H127.783L117.825 23.6859L114.81 23.6554H113.99C113.885 23.655 113.78 23.6447 113.677 23.6248Z" fill="#263238"/>
<path d="M126.043 142.135L127.065 139.055C125.626 136.899 125.045 134.283 125.437 131.721C125.829 129.159 127.164 126.836 129.182 125.209C131.199 123.582 133.752 122.769 136.339 122.929C138.926 123.088 141.359 124.21 143.161 126.073C144.963 127.936 146.003 130.406 146.076 132.996C146.149 135.587 145.251 138.111 143.557 140.073C141.864 142.035 139.498 143.293 136.924 143.599C134.35 143.904 131.755 143.237 129.649 141.726L126.043 142.135Z" fill="white"/>
<path d="M126.043 142.135L126.283 142.104L126.978 142.016L129.649 141.696L129.626 141.749C129.622 141.743 129.619 141.735 129.62 141.727C129.62 141.719 129.623 141.711 129.629 141.705C129.634 141.699 129.641 141.696 129.649 141.695C129.657 141.694 129.665 141.695 129.672 141.7C131.077 142.702 132.711 143.336 134.424 143.543C134.953 143.607 135.487 143.629 136.019 143.608C136.587 143.58 137.152 143.51 137.71 143.398C140.294 142.877 142.578 141.38 144.088 139.219C145.441 137.294 146.091 134.962 145.927 132.615C145.764 130.268 144.798 128.049 143.191 126.33C142.053 125.102 140.631 124.173 139.05 123.624C137.539 123.103 135.929 122.936 134.344 123.136C132.848 123.325 131.414 123.847 130.145 124.662C127.89 126.097 126.281 128.353 125.657 130.952L125.566 131.383C125.529 131.524 125.504 131.667 125.489 131.811C125.455 132.097 125.424 132.379 125.39 132.654C125.367 133.19 125.374 133.726 125.409 134.261C125.561 135.97 126.135 137.615 127.081 139.047C127.083 139.051 127.084 139.056 127.084 139.06C127.084 139.065 127.083 139.07 127.081 139.074C126.741 140.062 126.482 140.826 126.317 141.364C126.226 141.619 126.161 141.818 126.111 141.955C126.062 142.093 126.039 142.158 126.039 142.158L126.1 141.963C126.142 141.826 126.207 141.631 126.287 141.375C126.459 140.848 126.707 140.074 127.05 139.085V139.112C126.084 137.677 125.493 136.022 125.333 134.299C125.295 133.759 125.286 133.218 125.306 132.677C125.34 132.398 125.371 132.116 125.401 131.826C125.416 131.68 125.441 131.536 125.478 131.395L125.569 130.96C126.192 128.326 127.816 126.039 130.096 124.582C131.375 123.756 132.822 123.227 134.332 123.032C135.939 122.829 137.571 122.996 139.103 123.521C140.707 124.077 142.149 125.019 143.301 126.265C143.451 126.414 143.59 126.574 143.717 126.742L144.099 127.231L144.443 127.754C144.561 127.923 144.668 128.1 144.763 128.284L145.049 128.834C145.152 129.013 145.213 129.215 145.297 129.399C145.381 129.582 145.458 129.78 145.519 129.967C145.58 130.154 145.637 130.349 145.694 130.551C146.127 132.079 146.2 133.685 145.908 135.246C145.629 136.705 145.044 138.09 144.191 139.307C142.658 141.486 140.343 142.99 137.729 143.505C137.165 143.615 136.593 143.684 136.019 143.711C135.481 143.728 134.943 143.703 134.409 143.635C132.682 143.419 131.039 142.77 129.63 141.749L129.672 141.703C129.675 141.706 129.678 141.71 129.68 141.714C129.682 141.718 129.683 141.722 129.683 141.726C129.683 141.731 129.682 141.735 129.68 141.739C129.678 141.743 129.675 141.746 129.672 141.749L126.97 142.032L126.287 142.104L126.043 142.135Z" fill="#263238"/>
<path d="M130.897 133.593L132.34 131.998L135.409 134.456L139.962 129.227L141.45 130.677L135.336 137.402L130.897 133.593Z" fill="#FF725E"/>
<path d="M24.9061 27.0522L20.9788 25.5713C18.1387 27.3181 14.7479 27.9395 11.4728 27.3135C8.1978 26.6874 5.27529 24.8592 3.2796 22.1881C1.28392 19.5169 0.359357 16.196 0.687606 12.8778C1.01585 9.55969 2.57318 6.48427 5.05355 4.25591C7.53392 2.02755 10.758 0.807388 14.0922 0.835181C17.4264 0.862975 20.6297 2.13672 23.0726 4.40611C25.5155 6.67551 27.0213 9.77646 27.2942 13.0996C27.5671 16.4228 26.5873 19.7278 24.5474 22.3653L24.9061 27.0522Z" fill="white"/>
<path d="M24.9061 27.0522C24.9061 27.0522 24.9061 26.9453 24.8756 26.7431C24.8451 26.5408 24.8336 26.2355 24.7993 25.8462C24.7344 25.0523 24.6351 23.8921 24.5092 22.3807L24.5779 22.4112C24.5743 22.4153 24.5699 22.4185 24.565 22.4207C24.56 22.423 24.5547 22.4241 24.5493 22.4241C24.5439 22.4241 24.5385 22.423 24.5336 22.4207C24.5286 22.4185 24.5242 22.4153 24.5206 22.4112C24.5147 22.4043 24.5115 22.3955 24.5115 22.3864C24.5115 22.3773 24.5147 22.3685 24.5206 22.3616C26.3065 20.0359 27.2775 17.1873 27.2839 14.2551C27.2736 13.5199 27.2099 12.7865 27.093 12.0605C26.6211 9.18992 25.2191 6.55384 23.1028 4.55772C20.9865 2.56159 18.2731 1.31596 15.3798 1.01241C12.4865 0.70886 9.57363 1.36419 7.08912 2.87762C4.60461 4.39105 2.68608 6.67876 1.62859 9.38891C0.88471 11.3135 0.589707 13.3824 0.766034 15.4383C0.941657 17.3723 1.54526 19.2431 2.53313 20.9151C4.28474 23.8959 7.12556 26.0799 10.4564 27.0064L11.0098 27.1476C11.1882 27.202 11.3707 27.2416 11.5556 27.2659L12.6395 27.4339C13.3288 27.4899 14.0208 27.5064 14.7119 27.4835C16.9207 27.3731 19.0675 26.7161 20.9597 25.5714C20.965 25.5683 20.9709 25.5668 20.9769 25.5668C20.983 25.5668 20.9889 25.5683 20.9941 25.5714L23.8947 26.6782L24.658 26.9682L24.9176 27.0713C24.9176 27.0713 24.8374 27.0484 24.6695 26.9873L23.9062 26.7163L20.9636 25.6439H20.9979C19.0994 26.8227 16.9355 27.5064 14.7043 27.6323C14.0056 27.6566 13.306 27.6413 12.609 27.5865L11.5174 27.4224C11.329 27.399 11.1427 27.3607 10.9602 27.3079L10.403 27.1667C8.81574 26.7317 7.32254 26.0071 5.99861 25.0294C4.53443 23.9414 3.30616 22.5677 2.3881 20.9914C1.38335 19.3023 0.767929 17.4105 0.586653 15.4535C0.403622 13.3701 0.698635 11.2724 1.44921 9.32022C2.24247 7.27536 3.52704 5.45729 5.18949 4.02657C5.38844 3.84147 5.60015 3.67057 5.82305 3.51514L6.47187 3.03043L7.16268 2.61061C7.38763 2.46724 7.62228 2.33972 7.86494 2.22894L8.58628 1.88163C8.82279 1.77128 9.06483 1.67319 9.31144 1.58775C9.55952 1.49997 9.80378 1.39692 10.0748 1.32441L10.8381 1.14503C12.8282 0.652023 14.9057 0.628504 16.9065 1.07633C19.5222 1.66439 21.9018 3.02249 23.7385 4.97552C25.5752 6.92854 26.7848 9.38697 27.2114 12.0338C27.327 12.7675 27.3895 13.5086 27.3984 14.2513C27.3833 17.2066 26.3917 20.0741 24.5779 22.4074L24.5206 22.3501C24.5288 22.3436 24.5389 22.3401 24.5493 22.3401C24.5597 22.3401 24.5698 22.3436 24.5779 22.3501C24.5796 22.3577 24.5796 22.3655 24.5779 22.373C24.6848 23.8997 24.7649 25.0752 24.8183 25.8729C24.8451 26.2545 24.8641 26.5561 24.8756 26.7621C24.887 26.9682 24.9061 27.0522 24.9061 27.0522Z" fill="#263238"/>
<path d="M11.0862 9.24007C11.5111 8.98402 11.9679 8.78512 12.4449 8.64849L12.7235 7.30504L15.0135 7.26306L15.3417 8.59888C15.8186 8.72501 16.2768 8.91366 16.7042 9.15992L17.8492 8.3966L19.4865 9.97667L18.7766 11.1446C19.0343 11.5687 19.2333 12.0257 19.3682 12.5033L20.7155 12.7819L20.7536 15.0719L19.4178 15.4001C19.3007 15.8819 19.1184 16.3454 18.8759 16.7779L19.6392 17.9229L18.0515 19.5487L16.876 18.8389C16.451 19.0939 15.9941 19.2916 15.5173 19.4266L15.2348 20.7739L12.9449 20.812L12.6357 19.4648C12.1531 19.3446 11.6885 19.1611 11.2541 18.919L10.1091 19.6823L8.47178 18.1022L9.18549 16.9267C8.92925 16.5019 8.73033 16.045 8.59391 15.568L7.25046 15.2856L7.20848 12.9956L8.5443 12.6674C8.6631 12.1849 8.84534 11.7203 9.08626 11.2858L8.32293 10.1408L9.90301 8.50728L11.0785 9.21717L11.0862 9.24007ZM12.296 12.2705C11.9592 12.6168 11.7327 13.0554 11.6455 13.5307C11.5583 14.0059 11.6142 14.4963 11.8062 14.9397C11.9981 15.3831 12.3174 15.7595 12.7236 16.0212C13.1298 16.2828 13.6045 16.4179 14.0876 16.4093C14.5707 16.4007 15.0404 16.2488 15.437 15.9729C15.8336 15.697 16.1394 15.3095 16.3154 14.8595C16.4915 14.4096 16.5299 13.9175 16.4259 13.4457C16.3218 12.9738 16.08 12.5436 15.731 12.2094C15.2657 11.7653 14.6441 11.5226 14.001 11.534C13.3579 11.5454 12.7452 11.8101 12.296 12.2705Z" fill="#455A64"/>
</svg>
