<svg width="39" height="39" viewBox="0 0 39 39" fill="none" xmlns="http://www.w3.org/2000/svg">
<g clip-path="url(#clip0_120_31)">
<path d="M0.832207 19.2666C0.831293 22.5434 1.69417 25.7429 3.33491 28.563L0.675293 38.1984L10.613 35.6129C13.3616 37.0976 16.4413 37.8756 19.5708 37.8758H19.579C29.9102 37.8758 38.32 29.5342 38.3245 19.2813C38.3264 14.313 36.3783 9.64116 32.8387 6.12632C29.2998 2.61179 24.5931 0.675244 19.5783 0.672977C9.24585 0.672977 0.836625 9.01414 0.832359 19.2666" fill="url(#paint0_linear_120_31)"/>
<path d="M0.163008 19.2606C0.161941 22.6552 1.05574 25.9692 2.75498 28.8902L0 38.8711L10.294 36.1929C13.1304 37.7274 16.3238 38.5364 19.5733 38.5376H19.5817C30.2835 38.5376 38.9954 29.8959 39 19.276C39.0018 14.1292 36.9836 9.28941 33.3176 5.64865C29.6511 2.00835 24.7761 0.00211628 19.5817 0C8.87798 0 0.167273 8.64047 0.163008 19.2606ZM6.29347 28.3872L5.90911 27.7818C4.29335 25.2325 3.44053 22.2867 3.44175 19.2618C3.4451 10.4346 10.6851 3.25302 19.5878 3.25302C23.8991 3.25484 27.9508 4.92247 30.9983 7.94814C34.0456 10.9741 35.7225 14.9966 35.7214 19.2748C35.7174 28.1019 28.4773 35.2844 19.5817 35.2844H19.5753C16.6787 35.2829 13.838 34.5111 11.3606 33.0525L10.771 32.7056L4.66233 34.2948L6.29347 28.3872Z" fill="url(#paint1_linear_120_31)"/>
<path d="M14.7285 11.2084C14.365 10.4068 13.9824 10.3906 13.6368 10.3766C13.3537 10.3645 13.0301 10.3654 12.7069 10.3654C12.3833 10.3654 11.8576 10.4862 11.4132 10.9676C10.9683 11.4495 9.71484 12.6141 9.71484 14.9827C9.71484 17.3514 11.4535 19.6404 11.6959 19.962C11.9386 20.2829 15.0525 25.2991 19.9842 27.2288C24.0828 28.8325 24.9169 28.5135 25.8065 28.4331C26.6961 28.353 28.6772 27.2689 29.0814 26.1447C29.4859 25.0206 29.4859 24.0571 29.3646 23.8558C29.2433 23.6552 28.9198 23.5347 28.4345 23.294C27.9492 23.0532 25.5638 21.8885 25.1191 21.7278C24.6742 21.5673 24.3508 21.4872 24.0272 21.9692C23.7037 22.4505 22.7745 23.5347 22.4913 23.8558C22.2084 24.1776 21.9252 24.2176 21.4401 23.9768C20.9546 23.7353 19.392 23.2275 17.5382 21.5876C16.0958 20.3114 15.122 18.7356 14.8389 18.2535C14.5559 17.7722 14.8086 17.5113 15.0519 17.2714C15.2699 17.0557 15.5373 16.7092 15.7801 16.4282C16.022 16.1471 16.1028 15.9465 16.2646 15.6254C16.4265 15.304 16.3455 15.0229 16.2243 14.7821C16.1028 14.5413 15.1599 12.1603 14.7285 11.2084Z" fill="white"/>
</g>
<defs>
<linearGradient id="paint0_linear_120_31" x1="1883.13" y1="3753.21" x2="1883.13" y2="0.672977" gradientUnits="userSpaceOnUse">
<stop stop-color="#1FAF38"/>
<stop offset="1" stop-color="#60D669"/>
</linearGradient>
<linearGradient id="paint1_linear_120_31" x1="1950" y1="3887.11" x2="1950" y2="0" gradientUnits="userSpaceOnUse">
<stop stop-color="#F9F9F9"/>
<stop offset="1" stop-color="white"/>
</linearGradient>
<clipPath id="clip0_120_31">
<rect width="39" height="39" fill="white"/>
</clipPath>
</defs>
</svg>
