<svg width="192" height="142" viewBox="0 0 192 142" fill="none" xmlns="http://www.w3.org/2000/svg">
<path d="M85.79 16.5885L85.1588 16.4819" stroke="#173756" stroke-width="1.02" stroke-miterlimit="10"/>
<path d="M83.9054 16.2686L62.0012 12.5082" stroke="#173756" stroke-width="1.02" stroke-miterlimit="10" stroke-dasharray="2.86 2.86"/>
<path d="M61.3744 12.4015L60.7388 12.2903L60.5344 12.9037" stroke="#173756" stroke-width="1.02" stroke-miterlimit="10"/>
<path d="M60.1254 14.1394L49.6312 45.6667" stroke="#173756" stroke-width="1.02" stroke-miterlimit="10" stroke-dasharray="2.93 2.93"/>
<path d="M49.4222 46.2846L49.2178 46.898L49.8534 47.0002" stroke="#173756" stroke-width="1.02" stroke-miterlimit="10"/>
<path d="M50.8535 47.1691L54.356 47.747" stroke="#173756" stroke-width="1.02" stroke-miterlimit="10" stroke-dasharray="2.28 2.28"/>
<path d="M54.8583 47.8314L55.4894 47.9337" stroke="#173756" stroke-width="1.02" stroke-miterlimit="10"/>
<path d="M93.5818 19.8243L94.2174 19.931" stroke="#173756" stroke-width="1.02" stroke-miterlimit="10"/>
<path d="M95.4886 20.1399L189.102 35.6569" stroke="#173756" stroke-width="1.02" stroke-miterlimit="10" stroke-dasharray="2.9 2.9"/>
<path d="M189.737 35.7636L190.373 35.8703L190.173 36.4792" stroke="#173756" stroke-width="1.02" stroke-miterlimit="10"/>
<path d="M189.768 37.7194L183.466 56.9478" stroke="#173756" stroke-width="1.02" stroke-miterlimit="10" stroke-dasharray="2.94 2.94"/>
<path d="M183.266 57.5656L183.065 58.179" stroke="#173756" stroke-width="1.02" stroke-miterlimit="10"/>
<path d="M85.6967 50.3738L86.3323 50.4761" stroke="#173756" stroke-width="1.02" stroke-miterlimit="10"/>
<path d="M87.3813 50.6494L91.0616 51.2627" stroke="#173756" stroke-width="1.02" stroke-miterlimit="10" stroke-dasharray="2.4 2.4"/>
<path d="M91.5905 51.3472L92.2217 51.4539L92.4261 50.845" stroke="#173756" stroke-width="1.02" stroke-miterlimit="10"/>
<path d="M92.8173 49.6715L94.9641 43.2265" stroke="#173756" stroke-width="1.02" stroke-miterlimit="10" stroke-dasharray="2.78 2.78"/>
<path d="M95.1598 42.6398L95.3598 42.0308L95.9954 42.1331" stroke="#173756" stroke-width="1.02" stroke-miterlimit="10"/>
<path d="M97.2977 42.351L146.053 50.4317" stroke="#173756" stroke-width="1.02" stroke-miterlimit="10" stroke-dasharray="2.97 2.97"/>
<path d="M146.702 50.5428L147.338 50.645" stroke="#173756" stroke-width="1.02" stroke-miterlimit="10"/>
<path d="M33.7098 81.701L33.9098 81.0876" stroke="#173756" stroke-width="1.02" stroke-miterlimit="10"/>
<path d="M34.4476 79.4742L34.6521 78.8608L35.2877 78.9675" stroke="#173756" stroke-width="1.02" stroke-miterlimit="10"/>
<path d="M36.5589 79.1765L58.7609 82.8568" stroke="#173756" stroke-width="1.02" stroke-miterlimit="10" stroke-dasharray="2.89 2.89"/>
<path d="M59.3965 82.9634L60.0277 83.0701" stroke="#173756" stroke-width="1.02" stroke-miterlimit="10"/>
<path d="M149.018 62.2014C147.351 62.2459 147.284 59.6545 148.951 59.6145C150.618 59.5745 150.685 62.1614 149.018 62.2014Z" fill="white"/>
<path d="M93.5018 26.8339C91.8394 26.8783 91.7683 24.2914 93.4396 24.247C95.1109 24.2025 95.1731 26.7939 93.5018 26.8339Z" fill="#452C6D"/>
<path d="M49.4933 70.1844C49.3302 70.1762 49.1762 70.1067 49.062 69.9899C48.9478 69.873 48.8819 69.7174 48.8774 69.5542C48.873 69.3909 48.9302 69.2319 49.0378 69.109C49.1453 68.986 49.2953 68.9082 49.4578 68.891C49.6209 68.8993 49.7749 68.9687 49.8891 69.0856C50.0032 69.2024 50.0691 69.358 50.0736 69.5213C50.0781 69.6846 50.0209 69.8435 49.9133 69.9665C49.8057 70.0894 49.6558 70.1672 49.4933 70.1844Z" fill="#452C6D"/>
<path d="M112.801 35.5636C112.638 35.5546 112.485 35.4845 112.371 35.3673C112.258 35.2501 112.192 35.0944 112.188 34.9312C112.184 34.7681 112.242 34.6094 112.35 34.4869C112.458 34.3644 112.608 34.287 112.77 34.2701C112.933 34.2791 113.087 34.3492 113.2 34.4664C113.314 34.5836 113.379 34.7393 113.383 34.9025C113.387 35.0657 113.329 35.2243 113.222 35.3469C113.114 35.4694 112.964 35.5468 112.801 35.5636Z" fill="#452C6D"/>
<path d="M166.171 103.61C166.007 103.601 165.853 103.532 165.739 103.415C165.625 103.298 165.559 103.143 165.555 102.979C165.55 102.816 165.608 102.657 165.715 102.534C165.823 102.411 165.973 102.333 166.135 102.316C166.298 102.325 166.452 102.394 166.566 102.511C166.681 102.628 166.746 102.783 166.751 102.947C166.755 103.11 166.698 103.269 166.591 103.392C166.483 103.515 166.333 103.593 166.171 103.61Z" fill="#452C6D"/>
<path d="M46.093 41.5374C45.9299 41.5291 45.7759 41.4597 45.6617 41.3428C45.5476 41.226 45.4817 41.0704 45.4772 40.9071C45.4727 40.7438 45.5299 40.5849 45.6375 40.4619C45.7451 40.339 45.8951 40.2612 46.0575 40.244C46.2206 40.2522 46.3746 40.3217 46.4888 40.4385C46.603 40.5554 46.6689 40.711 46.6734 40.8742C46.6778 41.0375 46.6206 41.1965 46.513 41.3194C46.4055 41.4424 46.2555 41.5202 46.093 41.5374Z" fill="white"/>
<path d="M13.1656 83.5191C13.0025 83.5108 12.8485 83.4414 12.7343 83.3245C12.6201 83.2077 12.5542 83.0521 12.5497 82.8888C12.5453 82.7255 12.6025 82.5666 12.7101 82.4436C12.8176 82.3207 12.9676 82.2429 13.1301 82.2256C13.2932 82.2339 13.4472 82.3034 13.5614 82.4202C13.6755 82.5371 13.7414 82.6926 13.7459 82.8559C13.7504 83.0192 13.6932 83.1782 13.5856 83.3011C13.478 83.424 13.3281 83.5019 13.1656 83.5191Z" fill="white"/>
<path d="M156.396 52.7873C156.233 52.7791 156.079 52.7096 155.965 52.5928C155.851 52.4759 155.785 52.3203 155.781 52.1571C155.776 51.9938 155.833 51.8348 155.941 51.7119C156.048 51.589 156.198 51.5111 156.361 51.4939C156.524 51.5022 156.678 51.5716 156.792 51.6885C156.906 51.8053 156.972 51.9609 156.977 52.1242C156.981 52.2875 156.924 52.4464 156.816 52.5694C156.709 52.6923 156.559 52.7701 156.396 52.7873Z" fill="#F95B5E"/>
<path d="M66.6016 5.03198C66.4386 5.02298 66.285 4.95289 66.1714 4.8357C66.0578 4.7185 65.9925 4.5628 65.9886 4.39962C65.9847 4.23645 66.0424 4.07779 66.1502 3.95526C66.258 3.83274 66.4081 3.75535 66.5705 3.73853C66.7334 3.74753 66.887 3.81761 67.0006 3.93481C67.1142 4.052 67.1795 4.20771 67.1834 4.37088C67.1873 4.53405 67.1296 4.69272 67.0218 4.81524C66.914 4.93776 66.7639 5.01515 66.6016 5.03198Z" fill="#F95B5E"/>
<path d="M62.9879 9.20123C62.8249 9.19223 62.6713 9.12214 62.5577 9.00495C62.4441 8.88775 62.3788 8.73205 62.3749 8.56887C62.371 8.4057 62.4287 8.24704 62.5365 8.12451C62.6444 8.00199 62.7944 7.9246 62.9568 7.90778C63.1197 7.91678 63.2733 7.98686 63.3869 8.10406C63.5006 8.22125 63.5658 8.37696 63.5698 8.54013C63.5737 8.7033 63.516 8.86197 63.4081 8.98449C63.3003 9.10701 63.1502 9.1844 62.9879 9.20123Z" fill="#F95B5E"/>
<path d="M141.88 130.808C141.717 130.799 141.563 130.729 141.449 130.611C141.336 130.494 141.27 130.339 141.267 130.175C141.263 130.012 141.32 129.854 141.428 129.731C141.536 129.608 141.686 129.531 141.848 129.514C142.011 129.523 142.165 129.593 142.279 129.711C142.392 129.828 142.457 129.983 142.461 130.147C142.465 130.31 142.408 130.468 142.3 130.591C142.192 130.714 142.042 130.791 141.88 130.808Z" fill="#F95B5E"/>
<path d="M112.05 29.8253C111.891 29.8122 111.743 29.7411 111.633 29.6255C111.523 29.51 111.46 29.358 111.455 29.1986C111.45 29.0392 111.504 28.8836 111.606 28.7615C111.709 28.6393 111.852 28.5591 112.01 28.5363C112.173 28.5453 112.327 28.6153 112.44 28.7325C112.554 28.8497 112.619 29.0054 112.623 29.1686C112.627 29.3318 112.569 29.4904 112.462 29.613C112.354 29.7355 112.204 29.8129 112.041 29.8297L112.05 29.8253Z" fill="#F95B5E"/>
<path d="M45.0485 74.016C44.8854 74.0077 44.7314 73.9382 44.6172 73.8214C44.5031 73.7046 44.4372 73.549 44.4327 73.3857C44.4282 73.2224 44.4854 73.0634 44.593 72.9405C44.7006 72.8176 44.8506 72.7397 45.013 72.7225C45.1761 72.7308 45.3301 72.8003 45.4443 72.9171C45.5585 73.034 45.6244 73.1895 45.6289 73.3528C45.6334 73.5161 45.5761 73.6751 45.4685 73.798C45.361 73.9209 45.211 73.9988 45.0485 74.016Z" fill="#F95B5E"/>
<path d="M155.676 36.4925C155.513 36.4843 155.359 36.4148 155.245 36.298C155.131 36.1811 155.065 36.0256 155.06 35.8623C155.056 35.699 155.113 35.54 155.221 35.4171C155.328 35.2942 155.478 35.2163 155.641 35.1991C155.804 35.2074 155.958 35.2768 156.072 35.3937C156.186 35.5105 156.252 35.6661 156.257 35.8294C156.261 35.9927 156.204 36.1516 156.096 36.2746C155.989 36.3975 155.839 36.4753 155.676 36.4925Z" fill="#F95B5E"/>
<path d="M20.7619 71.6069C20.5989 71.5979 20.4453 71.5278 20.3317 71.4106C20.2181 71.2934 20.1529 71.1377 20.1489 70.9745C20.145 70.8113 20.2027 70.6527 20.3106 70.5302C20.4184 70.4076 20.5684 70.3302 20.7308 70.3134C20.8938 70.3224 21.0474 70.3925 21.161 70.5097C21.2746 70.6269 21.3398 70.7826 21.3438 70.9458C21.3477 71.1089 21.29 71.2676 21.1821 71.3901C21.0743 71.5127 20.9243 71.59 20.7619 71.6069Z" fill="#F95B5E"/>
<path d="M130.198 135.733C130.035 135.724 129.881 135.655 129.767 135.538C129.653 135.421 129.587 135.266 129.583 135.102C129.578 134.939 129.635 134.78 129.743 134.657C129.85 134.534 130 134.456 130.163 134.439C130.326 134.447 130.48 134.517 130.594 134.634C130.708 134.751 130.774 134.906 130.779 135.07C130.783 135.233 130.726 135.392 130.618 135.515C130.511 135.638 130.361 135.715 130.198 135.733Z" fill="#F95B5E"/>
<path d="M53.3382 23.7181C53.175 23.7098 53.021 23.6403 52.9068 23.5235C52.7927 23.4067 52.7268 23.2511 52.7223 23.0878C52.7178 22.9245 52.7751 22.7655 52.8826 22.6426C52.9902 22.5197 53.1402 22.4418 53.3026 22.4246C53.4657 22.4329 53.6198 22.5024 53.7339 22.6192C53.8481 22.736 53.914 22.8916 53.9185 23.0549C53.923 23.2182 53.8657 23.3772 53.7581 23.5001C53.6506 23.623 53.5006 23.7009 53.3382 23.7181Z" fill="white"/>
<path d="M46.3331 75.4872C46.1701 75.4782 46.0165 75.4081 45.9029 75.2909C45.7893 75.1737 45.724 75.018 45.7201 74.8548C45.7162 74.6916 45.7739 74.533 45.8817 74.4105C45.9896 74.2879 46.1396 74.2106 46.302 74.1937C46.4649 74.2027 46.6185 74.2728 46.7321 74.39C46.8457 74.5072 46.911 74.6629 46.9149 74.8261C46.9189 74.9893 46.8612 75.1479 46.7533 75.2704C46.6455 75.393 46.4954 75.4703 46.3331 75.4872Z" fill="white"/>
<path d="M84.3454 63.8506C84.1824 63.8416 84.0288 63.7715 83.9152 63.6543C83.8016 63.5371 83.7364 63.3814 83.7324 63.2182C83.7285 63.0551 83.7862 62.8964 83.894 62.7739C84.0019 62.6513 84.1519 62.574 84.3143 62.5571C84.4773 62.5661 84.6309 62.6362 84.7445 62.7534C84.8581 62.8706 84.9233 63.0263 84.9273 63.1895C84.9312 63.3527 84.8735 63.5113 84.7656 63.6338C84.6578 63.7564 84.5077 63.8338 84.3454 63.8506Z" fill="white"/>
<path d="M89.5414 91.0486C89.3783 91.0404 89.2243 90.9709 89.1101 90.8541C88.996 90.7372 88.9301 90.5816 88.9256 90.4184C88.9211 90.2551 88.9783 90.0961 89.0859 89.9732C89.1935 89.8502 89.3434 89.7724 89.5059 89.7552C89.669 89.7635 89.823 89.8329 89.9372 89.9498C90.0514 90.0666 90.1173 90.2222 90.1217 90.3855C90.1262 90.5488 90.069 90.7077 89.9614 90.8307C89.8538 90.9536 89.7039 91.0314 89.5414 91.0486Z" fill="white"/>
<path d="M48.5066 136.177C48.3345 136.181 48.1678 136.117 48.0432 135.998C47.9186 135.879 47.8462 135.716 47.8421 135.544C47.838 135.372 47.9024 135.205 48.0212 135.08C48.14 134.956 48.3034 134.883 48.4755 134.879C48.6476 134.875 48.8143 134.939 48.9389 135.058C49.0635 135.177 49.1359 135.34 49.14 135.513C49.1441 135.685 49.0797 135.851 48.9609 135.976C48.8421 136.101 48.6787 136.173 48.5066 136.177Z" fill="white"/>
<path d="M22.4642 78.9141C20.7974 78.9541 20.7262 76.3672 22.3975 76.3272C24.0688 76.2872 24.131 78.8696 22.4642 78.9141Z" fill="#452C6D"/>
<path d="M77.3626 35.2302C75.6957 35.2747 75.6291 32.6878 77.2959 32.6433C78.9627 32.5989 79.0294 35.1902 77.3626 35.2302Z" fill="#452C6D"/>
<path d="M155.472 104.001C153.805 104.045 153.738 101.458 155.405 101.414C157.072 101.37 157.139 103.961 155.472 104.001Z" fill="white"/>
<path d="M89.1058 97.8047C87.4435 97.8447 87.3723 95.2578 89.0392 95.2134C90.706 95.1689 90.7771 97.7603 89.1058 97.8047Z" fill="white"/>
<path d="M10.5477 36.2791L24.5223 50.8938L24.6823 57.121L10.5477 36.2791Z" fill="#392863"/>
<path d="M24.6823 57.121L24.949 50.7871L23.9578 50.9782L24.6823 57.121Z" fill="#281C4C"/>
<path d="M10.5477 36.2791L12.4278 55.4986L24.5223 50.8938L10.5477 36.2791Z" fill="#452C6D"/>
<path d="M10.5477 36.2791L35.1632 48.6002L24.5223 50.8938L10.5477 36.2791Z" fill="#4B3577"/>
<path d="M25.4912 59.1301C25.5315 59.3417 25.5835 59.5509 25.6468 59.7568" stroke="#173756" stroke-width="0.87" stroke-miterlimit="10"/>
<path d="M26.1668 60.9658C26.9183 62.2784 28.0847 63.3041 29.4827 63.8816C30.49 64.2711 31.5658 64.4526 32.6452 64.4152C33.7246 64.3778 34.7853 64.1222 35.7632 63.6639C36.6789 63.2505 37.5723 62.606 37.879 61.6503C38.2968 60.3391 37.3234 58.8367 35.9944 58.4589C35.3199 58.3066 34.6163 58.3458 33.9629 58.572C33.3095 58.7982 32.7322 59.2024 32.2963 59.7391C31.4393 60.8328 30.98 62.1856 30.9939 63.575C30.9287 64.5677 31.146 65.5586 31.6206 66.433C32.4385 67.802 34.052 68.4865 35.621 68.7976C38.0856 69.2739 40.6353 69.0285 42.9639 68.0909" stroke="#173756" stroke-width="0.87" stroke-miterlimit="10" stroke-dasharray="2.97 2.97"/>
<path d="M43.5595 67.8286C43.7551 67.7353 43.9462 67.642 44.1373 67.5397" stroke="#173756" stroke-width="0.87" stroke-miterlimit="10"/>
<path d="M153.236 8.25888L153.338 12.3081L173.798 2.17389L153.236 8.25888Z" fill="#2C1851"/>
<path d="M176.696 0.933777L153.129 8.22777L164.891 11.9081L176.696 0.933777Z" fill="#452C6D"/>
<path d="M176.696 0.933777L144.52 6.01424L153.236 8.25888L176.696 0.933777Z" fill="#4B3577"/>
<path d="M151.934 12.9615C151.778 13.1082 151.614 13.2504 151.454 13.406" stroke="#173756" stroke-width="0.87" stroke-miterlimit="10"/>
<path d="M150.44 14.1928C146.915 16.7553 142.572 17.9366 138.235 17.5131C136.39 17.3175 134.523 16.8063 133.07 15.6507C132.399 15.1129 131.794 14.375 131.763 13.5172C131.727 12.5837 132.363 11.7614 133.043 11.1214C134.399 9.83238 136.377 8.85007 138.115 9.55236C140.302 10.4413 140.711 13.6283 139.426 15.6107C138.141 17.5931 135.786 18.5754 133.514 19.2155C131.1 19.9018 128.619 20.3294 126.114 20.4911" stroke="#173756" stroke-width="0.87" stroke-miterlimit="10" stroke-dasharray="2.91 2.91"/>
<path d="M125.469 20.4911L124.825 20.5134" stroke="#173756" stroke-width="0.87" stroke-miterlimit="10"/>
<path d="M62.1746 101.707L154.681 116.975C156.148 116.18 157.908 115.446 159.241 115.562L159.299 117.735L103.041 142L0.0578613 116.673L62.1746 101.707Z" fill="#A7A9AC"/>
<path d="M0 114.5L0.057783 116.673C0.057783 116.673 6.35613 116.255 7.05842 115.757C7.7607 115.26 0 114.5 0 114.5Z" fill="#A7A9AC"/>
<path d="M62.4679 100.249L159.259 115.562C159.429 115.572 159.597 115.524 159.737 115.427C159.877 115.329 159.979 115.187 160.028 115.024L181.794 50.7738C181.828 50.7049 181.845 50.6294 181.845 50.5529C181.845 50.4764 181.828 50.4009 181.794 50.332C181.761 50.2632 181.712 50.2028 181.652 50.1553C181.592 50.1079 181.522 50.0747 181.448 50.0582L84.6388 34.7457C84.4693 34.7353 84.3013 34.7822 84.1618 34.879C84.0223 34.9758 83.9195 35.1167 83.8699 35.2791L62.1168 99.5338C62.0834 99.6029 62.0663 99.6788 62.0665 99.7556C62.0668 99.8323 62.0845 99.908 62.1183 99.977C62.1522 100.046 62.2012 100.106 62.2618 100.153C62.3223 100.201 62.3928 100.233 62.4679 100.249Z" fill="#173756"/>
<path d="M66.3794 97.1825L157.717 111.633L177.518 53.1252L86.1812 38.675L66.3794 97.1825Z" fill="#5F88DB"/>
<path d="M157.717 111.633L173.834 64.0151C164.024 64.5751 154.218 65.4419 144.498 66.4108C120.58 68.7933 96.5288 71.8024 73.1444 77.2163L66.3882 97.1825L157.717 111.633Z" fill="#6E9CE5"/>
<path d="M160.615 79.0252L160.406 79.6341L159.77 79.5319" stroke="white" stroke-width="1.02" stroke-miterlimit="10"/>
<path d="M158.463 79.3231L140.817 76.5184" stroke="white" stroke-width="1.02" stroke-miterlimit="10" stroke-dasharray="2.98 2.98"/>
<path d="M140.164 76.4161L139.528 76.3139L139.737 75.705" stroke="white" stroke-width="1.02" stroke-miterlimit="10"/>
<path d="M140.177 74.4383L146.089 57.3123" stroke="white" stroke-width="1.02" stroke-miterlimit="10" stroke-dasharray="3.02 3.02"/>
<path d="M146.307 56.681L146.515 56.072L147.151 56.1743" stroke="white" stroke-width="1.02" stroke-miterlimit="10"/>
<path d="M148.458 56.3788L166.104 59.1879" stroke="white" stroke-width="1.02" stroke-miterlimit="10" stroke-dasharray="2.98 2.98"/>
<path d="M166.757 59.2902L167.393 59.3924L167.184 60.0013" stroke="white" stroke-width="1.02" stroke-miterlimit="10"/>
<path d="M166.744 61.2682L160.832 78.3897" stroke="white" stroke-width="1.02" stroke-miterlimit="10" stroke-dasharray="3.02 3.02"/>
<path d="M97.9689 95.0179L97.76 95.6269L97.1244 95.5247" stroke="white" stroke-width="1.02" stroke-miterlimit="10"/>
<path d="M95.8176 95.3157L78.1715 92.511" stroke="white" stroke-width="1.02" stroke-miterlimit="10" stroke-dasharray="2.98 2.98"/>
<path d="M77.5181 92.4044L76.8825 92.3021L77.0959 91.6976" stroke="white" stroke-width="1.02" stroke-miterlimit="10"/>
<path d="M77.5315 90.4264L83.4431 73.3049" stroke="white" stroke-width="1.02" stroke-miterlimit="10" stroke-dasharray="3.02 3.02"/>
<path d="M83.6609 72.6692L83.8743 72.0602L84.5099 72.1625" stroke="white" stroke-width="1.02" stroke-miterlimit="10"/>
<path d="M85.8167 72.3715L103.463 75.1762" stroke="white" stroke-width="1.02" stroke-miterlimit="10" stroke-dasharray="2.98 2.98"/>
<path d="M104.116 75.2828L104.752 75.385L104.538 75.9895" stroke="white" stroke-width="1.02" stroke-miterlimit="10"/>
<path d="M104.103 77.2607L98.1911 94.3823" stroke="white" stroke-width="1.02" stroke-miterlimit="10" stroke-dasharray="3.02 3.02"/>
<path d="M152.036 104.628L131.23 101.174L138.35 80.9765L159.161 84.4301L152.036 104.628Z" fill="#173756"/>
<path d="M151.783 102.583L133.012 99.4672L133.185 98.9694L151.956 102.085L151.783 102.583Z" fill="#0C253A"/>
<path d="M147.164 101.596L133.221 99.2848L133.274 99.1337L147.218 101.449L147.164 101.596Z" fill="white"/>
<path d="M150.316 92.9422C149.831 94.2213 148.929 95.2994 147.755 96.0019C146.581 96.7045 145.205 96.9905 143.849 96.8137C141.182 96.3692 139.773 93.9245 140.684 91.3421C141.168 90.063 142.069 88.9845 143.242 88.2812C144.415 87.5778 145.79 87.2906 147.147 87.4661C149.791 87.924 151.223 90.3775 150.316 92.9422Z" fill="#122D44"/>
<path d="M144.062 91.862L144.858 89.6041L146.475 91.0664L148.093 92.5332L145.68 93.3288L143.266 94.1245L144.062 91.862Z" fill="white"/>
<path d="M125.034 100.454L103.814 96.9336L111.077 76.3362L132.296 79.8609L125.034 100.454Z" fill="#EA3636"/>
<path d="M110.819 90.0752L118.82 91.4087C119.086 91.4441 119.357 91.3882 119.588 91.2502C119.819 91.1122 119.996 90.9002 120.091 90.6486L121.304 87.2083C121.35 87.0973 121.37 86.9771 121.362 86.8572C121.354 86.7373 121.319 86.6208 121.259 86.5167C121.199 86.4127 121.115 86.3239 121.015 86.2573C120.915 86.1907 120.801 86.148 120.682 86.1326L112.681 84.7992C112.416 84.7664 112.147 84.8235 111.917 84.9612C111.688 85.0989 111.511 85.3094 111.415 85.5592L110.197 89.004C110.151 89.1148 110.132 89.2345 110.141 89.3538C110.149 89.4732 110.184 89.5891 110.244 89.6925C110.305 89.796 110.388 89.8843 110.487 89.9506C110.587 90.017 110.7 90.0596 110.819 90.0752Z" fill="white"/>
<path d="M112.606 89.7374L111.735 92.9644L110.548 89.4307L112.606 89.7374Z" fill="white"/>
<path d="M124.34 89.4084L116.339 88.075C116.22 88.0596 116.106 88.0169 116.006 87.9503C115.906 87.8837 115.823 87.7949 115.763 87.6909C115.702 87.5868 115.667 87.4703 115.659 87.3504C115.651 87.2305 115.671 87.1103 115.717 86.9993L116.935 83.559C117.029 83.3078 117.206 83.0959 117.436 82.9578C117.666 82.8198 117.936 82.7638 118.202 82.7989L126.203 84.1324C126.321 84.148 126.435 84.1906 126.534 84.2569C126.634 84.3233 126.717 84.4116 126.777 84.515C126.837 84.6185 126.873 84.7344 126.881 84.8538C126.889 84.9731 126.87 85.0928 126.825 85.2036L125.611 88.6483C125.514 88.8985 125.337 89.1092 125.106 89.2469C124.876 89.3845 124.606 89.4414 124.34 89.4084Z" fill="#6E9CE5"/>
<path d="M122.98 88.5417L121.602 91.6886L125.011 88.9195L122.98 88.5417Z" fill="#6E9CE5"/>
<path d="M106.01 70.9891L84.7944 67.4688L92.0573 46.8713L113.273 50.3917L106.01 70.9891Z" fill="#FF5C5C"/>
<path d="M97.9733 52.2806L96.1243 53.383L92.5684 63.5306L100.534 64.864L104.565 53.383L97.9733 52.2806Z" fill="white"/>
<path d="M97.4977 53.6275L97.9733 52.294L96.1242 53.383L97.4977 53.6275Z" fill="#173756"/>
<path d="M101.889 64.6151C101.767 64.9419 101.537 65.2175 101.237 65.3967C100.938 65.5759 100.586 65.6483 100.24 65.6019C100.086 65.5816 99.9389 65.5262 99.8097 65.4399C99.6806 65.3537 99.5729 65.2389 99.4952 65.1044C99.4174 64.97 99.3716 64.8195 99.3613 64.6645C99.351 64.5095 99.3764 64.3542 99.4357 64.2106C99.5587 63.8848 99.7878 63.6098 100.086 63.43C100.384 63.2502 100.735 63.176 101.08 63.2194C101.235 63.2398 101.383 63.2953 101.512 63.3818C101.642 63.4682 101.75 63.5833 101.828 63.7182C101.906 63.853 101.953 64.004 101.963 64.1596C101.974 64.3151 101.948 64.4709 101.889 64.6151Z" fill="#173756"/>
<path d="M100.565 65.2107L100.2 65.1485L100.742 63.6106L101.107 63.6728L100.565 65.2107Z" fill="white"/>
<path d="M99.7957 64.4551L99.9202 64.1039L101.507 64.3662L101.383 64.7173L99.7957 64.4551Z" fill="white"/>
<path d="M103.205 55.6054L96.2665 54.4542L96.3643 54.1741L103.303 55.3254L103.205 55.6054Z" fill="#E6E7E8"/>
<path d="M102.947 56.3388L96.0087 55.1876L96.1065 54.9031L103.045 56.0544L102.947 56.3388Z" fill="#E6E7E8"/>
<path d="M102.689 57.0678L95.7509 55.9166L95.8487 55.6365L102.787 56.7878L102.689 57.0678Z" fill="#E6E7E8"/>
<path d="M102.432 57.8011L95.4931 56.6499L95.5909 56.3699L102.529 57.5211L102.432 57.8011Z" fill="#E6E7E8"/>
<path d="M102.174 58.5345L95.2353 57.3788L95.3331 57.0988L102.271 58.25L102.174 58.5345Z" fill="#E6E7E8"/>
<path d="M101.916 59.2635L94.9775 58.1123L95.0753 57.8323L102.014 58.9835L101.916 59.2635Z" fill="#E6E7E8"/>
<path d="M101.658 59.9969L94.7152 58.8457L94.8175 58.5612L101.756 59.7124L101.658 59.9969Z" fill="#E6E7E8"/>
<path d="M101.4 60.7259L94.4575 59.5746L94.5597 59.2946L101.498 60.4458L101.4 60.7259Z" fill="#E6E7E8"/>
<path d="M101.138 61.4593L94.1996 60.3081L94.3019 60.0281L101.24 61.1793L101.138 61.4593Z" fill="#E6E7E8"/>
<path d="M100.885 62.1927L93.9418 61.037L94.0441 60.757L100.982 61.9082L100.885 62.1927Z" fill="#E6E7E8"/>
<path d="M100.622 62.9217L93.6841 61.7704L93.7863 61.4904L100.725 62.6416L100.622 62.9217Z" fill="#E6E7E8"/>
<path d="M133.439 74.5137L133.23 75.1227L132.594 75.0204" stroke="white" stroke-width="1.02" stroke-miterlimit="10"/>
<path d="M131.287 74.8161L113.641 72.007" stroke="white" stroke-width="1.02" stroke-miterlimit="10" stroke-dasharray="2.98 2.98"/>
<path d="M112.988 71.9047L112.352 71.8025L112.561 71.1935" stroke="white" stroke-width="1.02" stroke-miterlimit="10"/>
<path d="M113.001 69.9267L118.913 52.8052" stroke="white" stroke-width="1.02" stroke-miterlimit="10" stroke-dasharray="3.02 3.02"/>
<path d="M119.131 52.1695L119.344 51.5605L119.98 51.6628" stroke="white" stroke-width="1.02" stroke-miterlimit="10"/>
<path d="M121.287 51.8672L138.928 54.6763" stroke="white" stroke-width="1.02" stroke-miterlimit="10" stroke-dasharray="2.98 2.98"/>
<path d="M139.582 54.7786L140.217 54.8809L140.008 55.4898" stroke="white" stroke-width="1.02" stroke-miterlimit="10"/>
<path d="M139.568 56.7565L133.657 73.8825" stroke="white" stroke-width="1.02" stroke-miterlimit="10" stroke-dasharray="3.02 3.02"/>
<path d="M128.843 69.8022L107.965 66.4819L114.953 46.2401L135.83 49.5604L128.843 69.8022Z" fill="#8DC63F"/>
<path d="M111.615 62.4415L128.038 65.1662L127.727 58.4412L120.758 60.0458L117.402 56.1121L111.615 62.4415Z" fill="white"/>
<path d="M130.045 56.3718C131.327 55.5375 131.799 53.9906 131.1 52.9166C130.401 51.8427 128.795 51.6484 127.513 52.4827C126.232 53.317 125.759 54.8639 126.458 55.9379C127.157 57.0118 128.763 57.2061 130.045 56.3718Z" fill="white"/>
<path d="M145.578 71.4064L145.852 70.5949L153.773 68.3898L153.336 69.6881L147.306 71.2417L147.376 71.1675L147.307 71.3703L147.292 71.2822L151.696 74.5567L151.259 75.855L145.578 71.4064ZM164.738 71.9116L163.429 71.6956C163.473 71.3211 163.445 70.9809 163.344 70.6751C163.246 70.3699 163.091 70.1017 162.879 69.8704C162.672 69.6364 162.418 69.4447 162.119 69.2955C161.82 69.1462 161.491 69.042 161.132 68.9828C160.478 68.8748 159.831 68.9358 159.192 69.166C158.557 69.3967 157.979 69.7956 157.457 70.3626C156.939 70.9302 156.529 71.6637 156.226 72.5631C155.923 73.4624 155.822 74.247 155.923 74.9168C156.028 75.5872 156.291 76.1248 156.712 76.5297C157.136 76.9352 157.676 77.192 158.331 77.3C158.69 77.3592 159.051 77.3687 159.414 77.3287C159.776 77.2886 160.125 77.1979 160.458 77.0567C160.797 76.9126 161.107 76.7193 161.389 76.4768C161.676 76.2315 161.919 75.9361 162.117 75.5905L163.426 75.8065C163.149 76.321 162.81 76.7664 162.408 77.1427C162.006 77.519 161.562 77.8223 161.076 78.0525C160.591 78.2794 160.081 78.4292 159.548 78.5018C159.018 78.5749 158.48 78.5665 157.935 78.4765C157.012 78.3244 156.265 77.9727 155.693 77.4215C155.12 76.8703 154.763 76.1618 154.62 75.2959C154.476 74.4301 154.589 73.4495 154.958 72.354C155.327 71.2586 155.852 70.3459 156.533 69.6159C157.213 68.8859 157.986 68.3638 158.85 68.0495C159.713 67.7352 160.606 67.6541 161.529 67.8062C162.074 67.8962 162.561 68.0567 162.988 68.2879C163.419 68.5195 163.779 68.8144 164.067 69.1724C164.356 69.527 164.561 69.9355 164.68 70.3977C164.8 70.8565 164.82 71.3611 164.738 71.9116ZM141.583 82.6721L143.146 82.9299L143.917 92.1576L144.043 92.1785L150.623 84.1632L152.185 84.421L148.687 94.8073L147.462 94.6052L150.12 86.7141L150.014 86.6966L143.977 94.0304L142.794 93.8353L142.073 85.3867L141.968 85.3693L139.309 93.2605L138.084 93.0584L141.583 82.6721ZM140.876 103.302C140.986 102.778 140.863 102.337 140.508 101.978C140.153 101.62 139.649 101.387 138.994 101.279C138.515 101.2 138.071 101.205 137.662 101.295C137.256 101.385 136.909 101.544 136.621 101.771C136.336 101.999 136.138 102.278 136.027 102.61C135.933 102.887 135.921 103.136 135.992 103.359C136.066 103.578 136.191 103.771 136.364 103.939C136.539 104.104 136.732 104.248 136.943 104.372C137.155 104.493 137.353 104.595 137.537 104.679L138.539 105.144C138.797 105.261 139.077 105.411 139.38 105.593C139.686 105.776 139.961 106.001 140.205 106.27C140.454 106.536 140.626 106.853 140.721 107.222C140.816 107.591 140.781 108.019 140.617 108.506C140.428 109.067 140.104 109.549 139.645 109.952C139.19 110.355 138.625 110.642 137.951 110.812C137.28 110.984 136.529 111.001 135.699 110.864C134.924 110.736 134.294 110.505 133.808 110.172C133.326 109.839 132.995 109.431 132.816 108.948C132.64 108.466 132.627 107.937 132.776 107.362L134.128 107.585C134.031 107.983 134.059 108.331 134.211 108.627C134.369 108.921 134.611 109.16 134.939 109.346C135.271 109.53 135.652 109.657 136.081 109.728C136.581 109.81 137.056 109.806 137.506 109.716C137.957 109.623 138.347 109.455 138.673 109.213C139.001 108.967 139.229 108.655 139.357 108.277C139.473 107.932 139.467 107.635 139.339 107.385C139.212 107.136 139.007 106.916 138.725 106.727C138.443 106.538 138.129 106.361 137.783 106.197L136.576 105.612C135.809 105.24 135.253 104.796 134.906 104.282C134.559 103.768 134.503 103.161 134.739 102.461C134.935 101.88 135.269 101.4 135.742 101.021C136.22 100.639 136.778 100.374 137.415 100.226C138.056 100.075 138.722 100.056 139.412 100.17C140.109 100.285 140.688 100.507 141.149 100.837C141.612 101.163 141.932 101.558 142.11 102.023C142.291 102.488 142.302 102.984 142.143 103.511L140.876 103.302ZM150.369 108.209L142.448 110.414L142.885 109.115L148.915 107.562L148.845 107.636L148.914 107.433L148.928 107.521L144.525 104.247L144.962 102.949L150.642 107.397L150.369 108.209Z" fill="#173756"/>
<path d="M159.259 115.562L102.983 139.826L0 114.5L62.1167 99.5338L159.259 115.562Z" fill="#E6E7E8"/>
<path d="M149.511 116.473L62.8368 100.756C60.2499 101.134 28.8115 109.646 30.945 109.05L117.9 128.092L149.511 116.473Z" fill="#D1D3D4"/>
<path d="M92.035 108.606L95.262 107.499L100.467 108.446L97.3955 109.61L92.035 108.606Z" fill="#173756"/>
<path d="M84.4032 107.179L87.6613 106.112L94.0841 107.286L90.866 108.388L84.4032 107.179Z" fill="#173756"/>
<path d="M126.145 114.984L129.563 113.753L136.292 114.98L132.821 116.233L126.145 114.984Z" fill="#173756"/>
<path d="M98.5023 109.819L101.587 108.65L106.801 109.601L103.676 110.784L98.5023 109.819Z" fill="#173756"/>
<path d="M118.695 113.593L122.047 112.384L128.416 113.544L125.007 114.775L118.695 113.593Z" fill="#173756"/>
<path d="M77.2915 105.85L80.6296 104.832L86.4523 105.894L83.2076 106.957L77.2915 105.85Z" fill="#173756"/>
<path d="M111.335 112.215L114.624 111.028L120.9 112.17L117.557 113.379L111.335 112.215Z" fill="#173756"/>
<path d="M104.787 110.993L107.921 109.806L113.477 110.819L110.197 112.002L104.787 110.993Z" fill="#173756"/>
<path d="M64.0724 103.379L68.4773 102.614L79.3716 104.601L76.0469 105.619L64.0724 103.379Z" fill="#173756"/>
<path d="M144.773 116.527L140.555 117.682L133.954 116.447L137.439 115.189L144.773 116.527Z" fill="#173756"/>
<path d="M127.283 118.856L134.159 120.22L130.492 121.549L123.687 120.154L127.283 118.856Z" fill="#173756"/>
<path d="M45.1241 111.344L37.8923 109.85L42.1638 108.695L49.0133 110.152L45.1241 111.344Z" fill="#173756"/>
<path d="M50.2446 109.779L43.4839 108.339L46.8354 107.428L53.3737 108.823L50.2446 109.779Z" fill="#173756"/>
<path d="M115.015 119.144L121.82 120.54L117.962 121.94L111.232 120.509L115.015 119.144Z" fill="#173756"/>
<path d="M119.651 116.704L113.464 115.482L116.468 114.393L122.744 115.589L119.651 116.704Z" fill="#173756"/>
<path d="M131.639 117.282L138.595 118.607L135.297 119.807L128.425 118.442L131.639 117.282Z" fill="#173756"/>
<path d="M127.309 118.224L120.767 116.926L123.873 115.806L130.505 117.069L127.309 118.224Z" fill="#173756"/>
<path d="M112.348 115.26L106.25 114.051L109.157 113.002L115.339 114.18L112.348 115.26Z" fill="#173756"/>
<path d="M66.7483 108.459L60.5299 107.183L63.8413 106.286L69.9174 107.49L66.7483 108.459Z" fill="#173756"/>
<path d="M59.472 106.859L53.2581 105.583L56.7962 104.734L62.8768 105.939L59.472 106.859Z" fill="#173756"/>
<path d="M78.3982 108.535L72.3977 107.343L75.1091 106.517L81.0785 107.655L78.3982 108.535Z" fill="#173756"/>
<path d="M54.6049 108.446L48.1555 107.072L51.6402 106.125L57.9475 107.423L54.6049 108.446Z" fill="#173756"/>
<path d="M92.7284 111.375L87.1857 110.273L89.9104 109.335L95.3686 110.375L92.7284 111.375Z" fill="#173756"/>
<path d="M65.197 105.917L67.9928 105.161L73.8734 106.281L71.1798 107.103L65.197 105.917Z" fill="#173756"/>
<path d="M58.432 104.374L61.0011 103.708L66.8817 104.828L64.4192 105.561L58.432 104.374Z" fill="#173756"/>
<path d="M105.138 113.833L99.978 112.806L102.712 111.775L108.028 112.788L105.138 113.833Z" fill="#173756"/>
<path d="M86.0389 110.046L79.5717 108.766L82.2697 107.881L88.7503 109.117L86.0389 110.046Z" fill="#173756"/>
<path d="M98.8889 112.593L93.8174 111.588L96.471 110.584L101.609 111.566L98.8889 112.593Z" fill="#173756"/>
<path d="M68.5307 112.05L65.6193 113.051L58.9609 111.633L61.9568 110.65L68.5307 112.05Z" fill="#173756"/>
<path d="M108.921 117.118L112.326 115.891L118.513 117.118L115.033 118.375L108.921 117.118Z" fill="#173756"/>
<path d="M107.454 117.589L113.913 118.918L110.148 120.278L103.774 118.918L107.454 117.589Z" fill="#173756"/>
<path d="M95.7376 114.411L98.8712 113.224L103.996 114.242L100.702 115.433L95.7376 114.411Z" fill="#173756"/>
<path d="M119.629 117.34L126.171 118.633L122.589 119.927L116.131 118.602L119.629 117.34Z" fill="#173756"/>
<path d="M101.8 115.66L105.112 114.464L111.21 115.669L107.823 116.895L101.8 115.66Z" fill="#173756"/>
<path d="M67.9484 108.704L71.1353 107.73L77.1892 108.93L74.0511 109.957L67.9484 108.704Z" fill="#173756"/>
<path d="M89.6526 113.162L92.7106 112.006L97.7866 113.011L94.6619 114.193L89.6526 113.162Z" fill="#173756"/>
<path d="M75.2112 110.197L78.3626 109.161L84.8654 110.45L81.714 111.53L75.2112 110.197Z" fill="#173756"/>
<path d="M82.843 111.766L86.0078 110.677L91.6261 111.793L88.5769 112.944L82.843 111.766Z" fill="#173756"/>
<path d="M94.4619 117.576L91.6394 118.593L85.6967 117.331L88.5236 116.309L94.4619 117.576Z" fill="#173756"/>
<path d="M75.6335 113.566L72.891 114.602L66.7305 113.291L69.6463 112.291L75.6335 113.566Z" fill="#173756"/>
<path d="M81.6385 114.842L78.8961 115.882L73.9534 114.829L76.6959 113.788L81.6385 114.842Z" fill="#173756"/>
<path d="M54.5516 109.073L60.8188 110.406L57.8186 111.393L51.4269 110.028L54.5516 109.073Z" fill="#173756"/>
<path d="M109.032 120.678L106.21 121.7L99.8357 120.34L102.663 119.322L109.032 120.678Z" fill="#173756"/>
<path d="M50.1912 110.406L56.6407 111.779L53.0093 112.971L46.3198 111.588L50.1912 110.406Z" fill="#173756"/>
<path d="M110.121 120.909L116.851 122.345L114.037 123.367L107.294 121.931L110.121 120.909Z" fill="#173756"/>
<path d="M101.578 119.091L98.7511 120.109L92.7239 118.829L95.5509 117.807L101.578 119.091Z" fill="#173756"/>
<path d="M63.1391 110.264L66.4638 109.17L73.0066 110.517L69.6819 111.655L63.1391 110.264Z" fill="#173756"/>
<path d="M87.4391 116.078L84.6121 117.1L79.9584 116.109L82.7008 115.069L87.4391 116.078Z" fill="#173756"/>
<path d="M83.5009 117.5L80.4028 118.62L75.8158 117.673L78.8783 116.518L83.5009 117.5Z" fill="#173756"/>
<path d="M105.094 122.1L102.258 123.127L95.8087 121.794L98.7245 120.745L105.094 122.1Z" fill="#173756"/>
<path d="M77.8159 116.291L74.7445 117.451L69.7396 116.42L72.8688 115.237L77.8159 116.291Z" fill="#173756"/>
<path d="M112.93 123.772L110.192 124.763L103.356 123.354L106.183 122.331L112.93 123.772Z" fill="#173756"/>
<path d="M70.7931 111.895L74.1356 110.748L79.9361 111.94L76.7136 113.157L70.7931 111.895Z" fill="#173756"/>
<path d="M97.6355 120.513L94.7108 121.567L88.6125 120.309L91.6083 119.229L97.6355 120.513Z" fill="#173756"/>
<path d="M71.811 115.011L68.6685 116.198L62.1701 114.86L65.5838 113.682L71.811 115.011Z" fill="#173756"/>
<path d="M90.5238 118.998L87.5146 120.082L81.5052 118.847L84.5855 117.731L90.5238 118.998Z" fill="#173756"/>
<path d="M106.356 117.367L102.689 118.691L96.6621 117.407L100.249 116.109L106.356 117.367Z" fill="#173756"/>
<path d="M83.7809 114.66L87.0923 113.411L92.0261 114.424L88.5502 115.677L83.7809 114.66Z" fill="#173756"/>
<path d="M77.7759 113.384L81.0118 112.162L86.0211 113.188L82.7231 114.433L77.7759 113.384Z" fill="#173756"/>
<path d="M64.4681 113.446L61.0411 114.624L54.1649 113.206L57.7786 112.024L64.4681 113.446Z" fill="#173756"/>
<path d="M89.6348 115.909L93.1284 114.646L99.1467 115.886L95.5775 117.175L89.6348 115.909Z" fill="#173756"/>
<path d="M61.9967 110.019L55.7872 108.699L59.1475 107.668L65.3081 108.935L61.9967 110.019Z" fill="#173756"/>
<path d="M82.2919 121.838L57.8452 116.58L38.2256 122.078L65.077 128.203L82.2919 121.838Z" fill="#BCBEC0"/>
<path d="M111.099 124.985L117.757 122.567L121.064 123.176L126.229 121.416L129.558 122.029L117.762 126.385L111.099 124.985Z" fill="#173756"/>
<path d="M149.974 58.7168L176.46 63.1083C177.105 63.1863 177.757 63.0524 178.318 62.7268C178.88 62.4012 179.32 61.9017 179.572 61.3037L184.532 48.5914C184.652 48.3342 184.709 48.0524 184.7 47.7689C184.69 47.4853 184.614 47.208 184.477 46.9595C184.34 46.7109 184.147 46.4982 183.912 46.3384C183.678 46.1787 183.409 46.0765 183.128 46.0401L156.636 41.6486C155.992 41.5705 155.34 41.7044 154.779 42.03C154.217 42.3556 153.777 42.8552 153.525 43.4532L148.565 56.1654C148.445 56.423 148.387 56.7051 148.397 56.989C148.407 57.2728 148.484 57.5503 148.621 57.799C148.758 58.0476 148.952 58.2603 149.187 58.4198C149.423 58.5793 149.692 58.681 149.974 58.7168Z" fill="#E5713E"/>
<path d="M154.441 42.5953L155.583 39.155L183.43 44.6622L179.634 53.0541L154.441 42.5953Z" fill="white"/>
<path d="M175.705 62.9794L149.218 58.5923C148.93 58.5492 148.655 58.4447 148.411 58.2859C148.168 58.127 147.961 57.9176 147.805 57.6717C147.65 57.4259 147.549 57.1494 147.51 56.8611C147.47 56.5728 147.494 56.2794 147.578 56.0009L151.156 43.062C151.334 42.4623 151.721 41.9464 152.247 41.6079C152.773 41.2694 153.403 41.1309 154.023 41.2174L180.51 45.6089C180.798 45.6508 181.073 45.7543 181.318 45.9125C181.562 46.0706 181.769 46.2796 181.925 46.5252C182.081 46.7708 182.183 47.0472 182.222 47.3355C182.262 47.6238 182.239 47.9172 182.154 48.1958L178.576 61.1392C178.397 61.7389 178.009 62.2545 177.482 62.5921C176.955 62.9298 176.324 63.0672 175.705 62.9794Z" fill="#FAAF41"/>
<path d="M170.384 44.3822L170.753 43.271C170.82 43.0877 170.946 42.9327 171.113 42.8316C171.28 42.7306 171.476 42.6895 171.669 42.7154L178.834 43.9021L178.203 45.8001L170.384 44.3822Z" fill="#FAAF41"/>
<path d="M156.581 62.1125L157.074 60.6489L171.362 56.6716L170.573 59.0133L159.697 61.8154L159.822 61.6816L159.699 62.0475L159.672 61.8886L167.615 67.7948L166.826 70.1365L156.581 62.1125ZM156.682 81.3907L142.841 102.783L140.784 102.444L154.625 81.0514L156.682 81.3907ZM147.779 126.683L133.491 130.66L134.28 128.318L145.156 125.516L145.03 125.65L145.154 125.284L145.181 125.443L137.238 119.537L138.027 117.195L148.272 125.219L147.779 126.683Z" fill="#82561C"/>
<g opacity="0.95">
<path d="M80.4962 97.9781L63.5213 95.1645C62.9786 95.0933 62.4592 94.8997 62.0024 94.5981C61.5455 94.2966 61.1633 93.8952 60.8845 93.4241C60.6057 92.9531 60.4377 92.4248 60.3933 91.8792C60.3488 91.3337 60.429 90.7851 60.6277 90.2752L63.2946 82.2522C63.7004 81.114 64.4846 80.1495 65.5162 79.5201C66.5477 78.8906 67.764 78.6344 68.9618 78.7941L85.9367 81.6077C86.479 81.6795 86.9979 81.8736 87.4542 82.1753C87.9105 82.4771 88.2922 82.8787 88.5705 83.3496C88.8488 83.8206 89.0164 84.3487 89.0607 84.8939C89.1049 85.4392 89.0246 85.9874 88.8258 86.497L86.1589 94.52C85.7533 95.6574 84.9698 96.6212 83.9392 97.2506C82.9086 97.88 81.6933 98.1367 80.4962 97.9781Z" fill="#EA3636"/>
<path d="M72.1487 87.9638L73.1133 85.0613L75.2112 86.9415L77.3137 88.8217L74.2467 89.844L71.1842 90.8663L72.1487 87.9638Z" fill="white"/>
</g>
<path d="M101.534 104.681C101.534 104.681 92.7773 113.1 90.4793 114.802C90.4793 114.802 105.33 115.34 117.98 109.335C130.63 103.33 134.848 96.6225 137.675 91.9376C137.675 91.9376 123.607 94.2756 120.553 94.6045C119.615 99.4403 116.94 103.766 113.032 106.766C113.032 106.766 108.579 106.877 101.534 104.681Z" fill="white"/>
<path d="M90.4793 114.802C90.4793 114.802 105.33 115.34 117.98 109.335C121.388 107.754 124.619 105.817 127.62 103.556C123.034 105.629 118.066 106.724 113.032 106.77C113.032 106.77 108.588 106.881 101.534 104.685C101.534 104.681 92.7773 113.099 90.4793 114.802Z" fill="#E3C8FC"/>
<path d="M79.705 62.0682L55.6806 58.0856L63.468 34.6968L87.4879 38.6794L79.705 62.0682Z" fill="#8DC63F"/>
<path d="M75.6735 43.4664C76.191 43.1301 76.792 42.9445 77.409 42.9304C78.026 42.9162 78.6348 43.0741 79.1672 43.3864L76.5269 44.9688C76.2381 45.1175 76.018 45.3723 75.9128 45.6797C75.8075 45.9871 75.8253 46.3232 75.9624 46.6178C76.0538 46.7483 76.17 46.8595 76.3045 46.9449C76.439 47.0303 76.589 47.0883 76.746 47.1156C76.9029 47.1429 77.0637 47.1388 77.2191 47.1038C77.3745 47.0687 77.5214 47.0032 77.6515 46.9112L80.2917 45.3288C80.301 45.9537 80.1405 46.5694 79.8274 47.1103C79.5143 47.6512 79.0603 48.097 78.5138 48.4002C77.9971 48.7366 77.3969 48.9223 76.7805 48.9364C76.1642 48.9505 75.5561 48.7925 75.0246 48.4802L66.4193 53.6495C66.289 53.7414 66.1419 53.8065 65.9863 53.8413C65.8308 53.876 65.6698 53.8797 65.5129 53.852C65.3559 53.8243 65.2059 53.7659 65.0716 53.68C64.9373 53.5942 64.8213 53.4826 64.7303 53.3517C64.5923 53.058 64.574 52.7221 64.6794 52.4151C64.7847 52.1081 65.0055 51.8542 65.2948 51.7072L73.9089 46.5378C73.8983 45.9142 74.0568 45.2994 74.3675 44.7586C74.6781 44.2179 75.1295 43.7713 75.6735 43.4664Z" fill="white"/>
<path d="M72.0065 47.1603L69.6908 43.4844C69.6908 43.4844 71.3709 42.4443 72.5399 43.0399C72.5901 43.0656 72.6457 43.0791 72.7022 43.0791C72.7586 43.0791 72.8142 43.0656 72.8644 43.0399C72.9977 42.9377 73.0422 42.8621 72.7622 42.6532C72.4821 42.4443 70.8375 41.1375 67.6417 43.4533C67.6227 43.6478 67.5584 43.8352 67.4538 44.0003C67.3492 44.1654 67.2073 44.3037 67.0396 44.404C66.8718 44.5043 66.6829 44.5638 66.4879 44.5778C66.293 44.5918 66.0974 44.5598 65.9171 44.4845L64.7703 45.169L66.0193 47.2225L67.1928 46.4935C67.1448 46.276 67.1773 46.0484 67.2844 45.853C67.3915 45.6577 67.5658 45.5078 67.775 45.4312C67.8684 45.3747 67.9721 45.3375 68.08 45.3216C68.1879 45.3058 68.298 45.3117 68.4036 45.3391C68.5092 45.3664 68.6083 45.4146 68.695 45.4808C68.7817 45.547 68.8543 45.6299 68.9085 45.7246L70.2419 48.2226L72.0065 47.1603Z" fill="white"/>
<path d="M76.1758 53.8629L73.7756 50.0226L71.8554 51.116L73.9356 55.0186C73.9356 55.0186 74.8512 55.752 75.5624 55.2231C76.2736 54.6941 76.2869 54.0896 76.1758 53.8629Z" fill="white"/>
<path d="M15.6192 102.214L44.8174 107.054C45.5263 107.14 46.2439 106.993 46.8614 106.634C47.479 106.276 47.9629 105.726 48.2399 105.068L53.7115 91.053C53.8443 90.7693 53.9081 90.4582 53.8978 90.1451C53.8874 89.832 53.8032 89.5258 53.652 89.2514C53.5007 88.9771 53.2867 88.7424 53.0275 88.5665C52.7682 88.3907 52.4711 88.2786 52.1602 88.2394L22.9576 83.399C22.2524 83.3197 21.5405 83.4702 20.9278 83.8282C20.3151 84.1862 19.8344 84.7326 19.5573 85.3859L14.0901 99.4005C13.9565 99.6825 13.8914 99.9921 13.9001 100.304C13.9087 100.616 13.9909 100.921 14.1399 101.196C14.2889 101.47 14.5005 101.705 14.7576 101.882C15.0146 102.059 15.3098 102.173 15.6192 102.214Z" fill="#F97F40"/>
<path d="M18.8017 84.4214L19.6818 81.2211L53.6226 87.5728L47.511 103.005L18.8017 84.4214Z" fill="#D3D3D3"/>
<path d="M20.5396 84.4436L21.8019 80.6477L52.4981 86.7194L48.3155 95.9735L20.5396 84.4436Z" fill="white"/>
<path d="M44.004 106.917L14.7836 102.076C14.4657 102.031 14.1615 101.917 13.8918 101.743C13.6222 101.568 13.3936 101.337 13.2216 101.066C13.0497 100.795 12.9386 100.49 12.8959 100.172C12.8533 99.8533 12.8801 99.5296 12.9745 99.2227L16.9171 84.9414C17.1145 84.2803 17.5423 83.7119 18.123 83.3392C18.7036 82.9665 19.3986 82.8143 20.0818 82.9101L49.28 87.7506C49.5983 87.7955 49.903 87.9089 50.1732 88.0831C50.4433 88.2572 50.6725 88.4878 50.8449 88.7591C51.0173 89.0304 51.1288 89.3358 51.1717 89.6543C51.2146 89.9729 51.188 90.2969 51.0935 90.6041L47.1465 104.872C46.953 105.532 46.5298 106.101 45.9534 106.476C45.3771 106.851 44.6856 107.007 44.004 106.917Z" fill="#FAAF41"/>
<path d="M38.119 86.4127L38.5235 85.1859C38.5965 84.9836 38.7362 84.8122 38.9196 84.7C39.103 84.5877 39.3191 84.5411 39.5325 84.5681L47.4354 85.9015L46.7376 87.995L38.119 86.4127Z" fill="#FAAF41"/>
<path d="M34.1275 99.5473L26.5224 98.276C26.4582 98.2681 26.398 98.2409 26.3496 98.1981C26.3012 98.1552 26.2669 98.0987 26.2513 98.036C26.2389 97.9683 26.2439 97.8986 26.2656 97.8334C26.2874 97.7681 26.3252 97.7094 26.3757 97.6626L32.314 91.8843C32.364 91.8314 32.4262 91.7916 32.4952 91.7683C32.5642 91.7451 32.6378 91.7391 32.7096 91.751C32.7741 91.7598 32.8345 91.7879 32.8828 91.8315C32.9312 91.8751 32.9653 91.9322 32.9808 91.9955L34.6698 99.0405C34.6834 99.1082 34.6791 99.1783 34.6573 99.2438C34.6355 99.3093 34.5969 99.368 34.5453 99.4139C34.4932 99.4704 34.4273 99.5123 34.354 99.5357C34.2808 99.5591 34.2028 99.5631 34.1275 99.5473ZM27.438 97.6493L33.7097 98.6894L32.3363 92.88L27.438 97.6493Z" fill="#8E5D1C"/>
<path d="M30.5228 97.3514C30.5484 97.2661 30.6038 97.1928 30.6788 97.1447C30.7538 97.0966 30.8435 97.0769 30.9317 97.0892C30.9727 97.0929 31.0122 97.1065 31.0467 97.1289C31.0812 97.1512 31.1098 97.1817 31.1299 97.2176C31.1501 97.2535 31.1612 97.2937 31.1623 97.3349C31.1633 97.376 31.1544 97.4168 31.1362 97.4537C31.1122 97.54 31.0572 97.6145 30.9818 97.6629C30.9063 97.7112 30.8157 97.7301 30.7272 97.7159C30.6867 97.7113 30.6479 97.697 30.6139 97.6744C30.5799 97.6518 30.5518 97.6215 30.5319 97.5859C30.5119 97.5504 30.5007 97.5105 30.4991 97.4698C30.4975 97.429 30.5056 97.3885 30.5228 97.3514ZM30.8917 96.6492L31.6296 94.2134L32.1274 94.2978L31.2384 96.7069L30.8917 96.6492Z" fill="#8E5D1C"/>
<path d="M88.2969 28.6474L110.703 32.3633C111.249 32.4317 111.803 32.3197 112.28 32.0445C112.756 31.7693 113.13 31.3459 113.344 30.8387L117.54 20.0822C117.641 19.8642 117.689 19.6255 117.681 19.3854C117.672 19.1453 117.608 18.9105 117.492 18.7001C117.376 18.4897 117.212 18.3096 117.013 18.1744C116.814 18.0392 116.587 17.9527 116.348 17.922L93.9374 14.2105C93.3933 14.1444 92.8425 14.2575 92.3685 14.5326C91.8944 14.8078 91.523 15.2299 91.3105 15.7351L87.119 26.4916C87.0168 26.7082 86.9673 26.9459 86.9744 27.1852C86.9815 27.4245 87.0451 27.6588 87.1599 27.869C87.2747 28.0791 87.4375 28.2591 87.6351 28.3944C87.8327 28.5297 88.0594 28.6164 88.2969 28.6474Z" fill="#F97F40"/>
<path d="M90.7371 14.9928L91.4127 12.5392L117.464 17.4108L112.77 29.2563L90.7371 14.9928Z" fill="#D3D3D3"/>
<path d="M92.0706 15.0062L93.0395 12.0948L116.602 16.7575L113.388 23.8604L92.0706 15.0062Z" fill="white"/>
<path d="M110.063 32.2567L87.6568 28.5408C87.4129 28.5053 87.1795 28.4176 86.9727 28.2836C86.7658 28.1497 86.5903 27.9726 86.4582 27.7645C86.3261 27.5564 86.2405 27.3222 86.2072 27.078C86.174 26.8338 86.1939 26.5853 86.2656 26.3495L89.2925 15.4018C89.4419 14.8922 89.7687 14.453 90.2138 14.1635C90.659 13.8741 91.1931 13.7536 91.7194 13.8239L114.13 17.5398C114.374 17.5759 114.607 17.664 114.813 17.7982C115.02 17.9324 115.195 18.1094 115.327 18.3173C115.459 18.5252 115.545 18.7591 115.578 19.003C115.612 19.247 115.593 19.4953 115.522 19.7311L112.495 30.7143C112.338 31.2181 112.008 31.6499 111.563 31.9324C111.117 32.215 110.586 32.3299 110.063 32.2567Z" fill="#FAAF41"/>
<path d="M104.787 27.1584L94.2308 25.4026C94.1455 25.3908 94.0641 25.3596 93.9927 25.3114C93.9214 25.2633 93.862 25.1994 93.8191 25.1248C93.7762 25.0502 93.7509 24.9667 93.7453 24.8808C93.7396 24.7949 93.7536 24.7089 93.7863 24.6292L95.9109 18.602C95.9794 18.4209 96.1072 18.2684 96.2734 18.1691C96.4397 18.0698 96.6346 18.0297 96.8265 18.0553L107.37 19.8066C107.455 19.8184 107.536 19.8496 107.608 19.8978C107.679 19.9459 107.739 20.0098 107.781 20.0844C107.824 20.159 107.85 20.2425 107.855 20.3284C107.861 20.4143 107.847 20.5003 107.814 20.58L105.698 26.6027C105.632 26.7847 105.505 26.9386 105.34 27.0395C105.174 27.1404 104.98 27.1823 104.787 27.1584ZM94.9153 24.4914L104.805 26.136L106.707 20.7444L96.8177 19.0998L94.9153 24.4914Z" fill="#8E5D1C"/>
<path d="M100.36 23.3491C100.268 23.3344 100.182 23.2909 100.116 23.2247L96.0087 19.0509C95.9664 19.0003 95.935 18.9414 95.9164 18.878C95.8979 18.8146 95.8927 18.7481 95.901 18.6826C95.9093 18.6171 95.9311 18.5541 95.9649 18.4974C95.9988 18.4407 96.0439 18.3916 96.0976 18.3531C96.1954 18.255 96.3265 18.1974 96.4649 18.1916C96.6032 18.1859 96.7387 18.2324 96.8443 18.322L100.747 22.269L107.21 20.0466C107.269 20.0165 107.334 20 107.4 19.9982C107.466 19.9964 107.532 20.0094 107.592 20.0362C107.652 20.063 107.706 20.103 107.749 20.1533C107.792 20.2035 107.824 20.2627 107.841 20.3266C107.862 20.4647 107.833 20.6058 107.758 20.7241C107.684 20.8424 107.57 20.9301 107.436 20.9711L100.649 23.3358C100.555 23.3619 100.456 23.3665 100.36 23.3491Z" fill="#8E5D1C"/>
<path d="M105.565 16.5219L105.876 15.5796C105.932 15.4244 106.039 15.2929 106.18 15.2072C106.32 15.1214 106.486 15.0866 106.65 15.1084L112.712 16.1129L112.179 17.7175L105.565 16.5219Z" fill="#FAAF41"/>
</svg>
