<svg width="40" height="39" viewBox="0 0 40 39" fill="none" xmlns="http://www.w3.org/2000/svg">
<circle cx="19.9426" cy="19.1885" r="19.1885" fill="#FF0000"/>
<path d="M31.571 13.3209C31.4318 12.8066 31.1603 12.3377 30.7836 11.961C30.4068 11.5842 29.9379 11.3128 29.4236 11.1736C27.5406 10.6602 19.9628 10.6602 19.9628 10.6602C19.9628 10.6602 12.3847 10.6757 10.502 11.1892C9.98771 11.3284 9.51884 11.5998 9.14209 11.9766C8.76535 12.3533 8.49387 12.8222 8.3547 13.3365C7.78515 16.6821 7.56418 21.7797 8.37028 24.9913C8.50945 25.5056 8.78093 25.9745 9.15767 26.3513C9.53442 26.728 10.0033 26.9995 10.5176 27.1387C12.4005 27.6521 19.9784 27.6521 19.9784 27.6521C19.9784 27.6521 27.5563 27.6521 29.4392 27.1387C29.9535 26.9995 30.4223 26.728 30.7991 26.3513C31.1758 25.9745 31.4473 25.5056 31.5865 24.9913C32.187 21.6411 32.3722 16.5466 31.5709 13.3211L31.571 13.3209Z" fill="white"/>
<path d="M17.551 22.7972L23.8374 19.1561L17.551 15.5149V22.7972Z" fill="#FF0000"/>
</svg>
